<svg xmlns="http://www.w3.org/2000/svg" xmlns:xlink="http://www.w3.org/1999/xlink" width="516.6pt" height="251.8174pt" viewBox="0 0 516.6 251.8174">
<defs>
<g>
<g id="f10_backprop-glyph-0-0">
<path d="M 1.011719 -8.011719 L 4.441406 -8.011719 C 5.453125 -8.011719 6.230469 -7.78125 6.78125 -7.332031 C 7.332031 -6.871094 7.605469 -6.230469 7.605469 -5.398438 C 7.605469 -4.550781 7.332031 -3.902344 6.78125 -3.453125 C 6.230469 -3 5.453125 -2.78125 4.441406 -2.78125 L 3.078125 -2.78125 L 3.078125 0 L 1.011719 0 Z M 3.078125 -6.519531 L 3.078125 -4.277344 L 4.222656 -4.277344 C 4.617188 -4.277344 4.925781 -4.363281 5.144531 -4.5625 C 5.363281 -4.757812 5.472656 -5.035156 5.472656 -5.398438 C 5.472656 -5.75 5.363281 -6.023438 5.144531 -6.222656 C 4.925781 -6.417969 4.617188 -6.519531 4.222656 -6.519531 Z M 3.078125 -6.519531 " />
</g>
<g id="f10_backprop-glyph-0-1">
<path d="M 3.945312 -4.460938 C 4.375 -4.460938 4.683594 -4.539062 4.871094 -4.703125 C 5.054688 -4.859375 5.15625 -5.121094 5.15625 -5.496094 C 5.15625 -5.859375 5.054688 -6.121094 4.871094 -6.277344 C 4.683594 -6.429688 4.375 -6.519531 3.945312 -6.519531 L 3.078125 -6.519531 L 3.078125 -4.460938 Z M 3.078125 -3.035156 L 3.078125 0 L 1.011719 0 L 1.011719 -8.011719 L 4.164062 -8.011719 C 5.222656 -8.011719 5.992188 -7.824219 6.484375 -7.472656 C 6.96875 -7.121094 7.222656 -6.5625 7.222656 -5.804688 C 7.222656 -5.277344 7.089844 -4.835938 6.835938 -4.496094 C 6.574219 -4.15625 6.1875 -3.902344 5.683594 -3.75 C 5.96875 -3.683594 6.222656 -3.527344 6.441406 -3.308594 C 6.660156 -3.078125 6.890625 -2.738281 7.121094 -2.273438 L 8.242188 0 L 6.046875 0 L 5.066406 -1.988281 C 4.871094 -2.386719 4.660156 -2.660156 4.460938 -2.8125 C 4.265625 -2.957031 3.988281 -3.035156 3.660156 -3.035156 Z M 3.078125 -3.035156 " />
</g>
<g id="f10_backprop-glyph-0-2">
<path d="M 4.671875 -6.660156 C 4.035156 -6.660156 3.550781 -6.417969 3.199219 -5.957031 C 2.847656 -5.496094 2.683594 -4.835938 2.683594 -4 C 2.683594 -3.15625 2.847656 -2.496094 3.199219 -2.035156 C 3.550781 -1.570312 4.035156 -1.339844 4.671875 -1.339844 C 5.296875 -1.339844 5.78125 -1.570312 6.132812 -2.035156 C 6.484375 -2.496094 6.660156 -3.15625 6.660156 -4 C 6.660156 -4.835938 6.484375 -5.496094 6.132812 -5.957031 C 5.78125 -6.417969 5.296875 -6.660156 4.671875 -6.660156 Z M 4.671875 -8.15625 C 5.957031 -8.15625 6.96875 -7.78125 7.695312 -7.046875 C 8.417969 -6.308594 8.792969 -5.296875 8.792969 -4 C 8.792969 -2.703125 8.417969 -1.683594 7.695312 -0.957031 C 6.96875 -0.21875 5.957031 0.144531 4.671875 0.144531 C 3.386719 0.144531 2.375 -0.21875 1.648438 -0.957031 C 0.914062 -1.683594 0.550781 -2.703125 0.550781 -4 C 0.550781 -5.296875 0.914062 -6.308594 1.648438 -7.046875 C 2.375 -7.78125 3.386719 -8.15625 4.671875 -8.15625 Z M 4.671875 -8.15625 " />
</g>
<g id="f10_backprop-glyph-0-3">
<path d="M 5.871094 -1.460938 L 2.636719 -1.460938 L 2.132812 0 L 0.0546875 0 L 3.023438 -8.011719 L 5.484375 -8.011719 L 8.453125 0 L 6.375 0 Z M 3.15625 -2.945312 L 5.351562 -2.945312 L 4.253906 -6.132812 Z M 3.15625 -2.945312 " />
</g>
<g id="f10_backprop-glyph-0-4">
<path d="M 8.210938 -0.59375 C 7.695312 -0.339844 7.15625 -0.152344 6.605469 -0.03125 C 6.046875 0.078125 5.472656 0.144531 4.890625 0.144531 C 3.550781 0.144531 2.496094 -0.21875 1.714844 -0.96875 C 0.933594 -1.703125 0.550781 -2.714844 0.550781 -4 C 0.550781 -5.285156 0.945312 -6.296875 1.738281 -7.046875 C 2.527344 -7.78125 3.617188 -8.15625 5 -8.15625 C 5.527344 -8.15625 6.046875 -8.101562 6.527344 -8 C 7.011719 -7.902344 7.472656 -7.761719 7.914062 -7.5625 L 7.914062 -5.902344 C 7.464844 -6.15625 7.023438 -6.34375 6.582031 -6.472656 C 6.144531 -6.59375 5.695312 -6.660156 5.253906 -6.660156 C 4.429688 -6.660156 3.792969 -6.429688 3.351562 -5.96875 C 2.902344 -5.507812 2.683594 -4.847656 2.683594 -4 C 2.683594 -3.144531 2.890625 -2.496094 3.320312 -2.035156 C 3.75 -1.570312 4.363281 -1.339844 5.15625 -1.339844 C 5.375 -1.339844 5.574219 -1.351562 5.757812 -1.375 C 5.933594 -1.394531 6.101562 -1.441406 6.253906 -1.503906 L 6.253906 -3.066406 L 4.988281 -3.066406 L 4.988281 -4.453125 L 8.210938 -4.453125 Z M 8.210938 -0.59375 " />
</g>
<g id="f10_backprop-glyph-0-5">
<path d="M 0.0546875 -8.011719 L 7.441406 -8.011719 L 7.441406 -6.453125 L 4.78125 -6.453125 L 4.78125 0 L 2.714844 0 L 2.714844 -6.453125 L 0.0546875 -6.453125 Z M 0.0546875 -8.011719 " />
</g>
<g id="f10_backprop-glyph-0-6">
<path d="M 1.011719 -8.011719 L 3.078125 -8.011719 L 3.078125 0 L 1.011719 0 Z M 1.011719 -8.011719 " />
</g>
<g id="f10_backprop-glyph-0-7">
<path d="M 1.011719 -8.011719 L 3.320312 -8.011719 L 6.230469 -2.515625 L 6.230469 -8.011719 L 8.1875 -8.011719 L 8.1875 0 L 5.878906 0 L 2.96875 -5.496094 L 2.96875 0 L 1.011719 0 Z M 1.011719 -8.011719 " />
</g>
<g id="f10_backprop-glyph-0-8">
</g>
<g id="f10_backprop-glyph-0-9">
<path d="M 0.0546875 -8.011719 L 2.132812 -8.011719 L 4.253906 -2.097656 L 6.375 -8.011719 L 8.453125 -8.011719 L 5.484375 0 L 3.023438 0 Z M 0.0546875 -8.011719 " />
</g>
<g id="f10_backprop-glyph-0-10">
<path d="M 2.847656 -0.867188 L 2.847656 2.273438 L 0.921875 2.273438 L 0.921875 -6.011719 L 2.847656 -6.011719 L 2.847656 -5.132812 C 3.109375 -5.484375 3.394531 -5.738281 3.726562 -5.902344 C 4.042969 -6.066406 4.417969 -6.15625 4.835938 -6.15625 C 5.574219 -6.15625 6.175781 -5.859375 6.660156 -5.265625 C 7.132812 -4.671875 7.375 -3.914062 7.375 -2.988281 C 7.375 -2.066406 7.132812 -1.308594 6.660156 -0.726562 C 6.175781 -0.144531 5.574219 0.144531 4.835938 0.144531 C 4.417969 0.144531 4.042969 0.0546875 3.726562 -0.0976562 C 3.394531 -0.253906 3.109375 -0.515625 2.847656 -0.867188 Z M 4.121094 -4.757812 C 3.703125 -4.757812 3.394531 -4.605469 3.175781 -4.308594 C 2.957031 -4 2.847656 -3.570312 2.847656 -3 C 2.847656 -2.429688 2.957031 -1.988281 3.175781 -1.691406 C 3.394531 -1.386719 3.703125 -1.242188 4.121094 -1.242188 C 4.527344 -1.242188 4.835938 -1.386719 5.054688 -1.691406 C 5.277344 -1.988281 5.386719 -2.429688 5.386719 -3 C 5.386719 -3.570312 5.277344 -4 5.054688 -4.308594 C 4.835938 -4.605469 4.527344 -4.757812 4.121094 -4.757812 Z M 4.121094 -4.757812 " />
</g>
<g id="f10_backprop-glyph-0-11">
<path d="M 5.386719 -4.375 C 5.210938 -4.453125 5.046875 -4.507812 4.878906 -4.550781 C 4.714844 -4.582031 4.550781 -4.605469 4.386719 -4.605469 C 3.890625 -4.605469 3.507812 -4.441406 3.242188 -4.132812 C 2.980469 -3.8125 2.847656 -3.363281 2.847656 -2.769531 L 2.847656 0 L 0.921875 0 L 0.921875 -6.011719 L 2.847656 -6.011719 L 2.847656 -5.023438 C 3.089844 -5.417969 3.363281 -5.703125 3.691406 -5.878906 C 4.011719 -6.054688 4.398438 -6.15625 4.847656 -6.15625 C 4.914062 -6.15625 4.980469 -6.144531 5.054688 -6.144531 C 5.121094 -6.144531 5.230469 -6.132812 5.386719 -6.109375 Z M 5.386719 -4.375 " />
</g>
<g id="f10_backprop-glyph-0-12">
<path d="M 6.925781 -3.023438 L 6.925781 -2.472656 L 2.429688 -2.472656 C 2.472656 -2.023438 2.636719 -1.683594 2.921875 -1.460938 C 3.199219 -1.230469 3.582031 -1.121094 4.089844 -1.121094 C 4.484375 -1.121094 4.902344 -1.175781 5.332031 -1.296875 C 5.75 -1.417969 6.1875 -1.605469 6.640625 -1.847656 L 6.640625 -0.363281 C 6.175781 -0.1875 5.726562 -0.0664062 5.277344 0.0117188 C 4.8125 0.0976562 4.363281 0.144531 3.914062 0.144531 C 2.824219 0.144531 1.976562 -0.132812 1.375 -0.679688 C 0.769531 -1.230469 0.472656 -2 0.472656 -3 C 0.472656 -3.980469 0.769531 -4.75 1.363281 -5.308594 C 1.957031 -5.871094 2.769531 -6.15625 3.804688 -6.15625 C 4.75 -6.15625 5.496094 -5.871094 6.066406 -5.296875 C 6.640625 -4.726562 6.925781 -3.96875 6.925781 -3.023438 Z M 4.945312 -3.660156 C 4.945312 -4.023438 4.835938 -4.320312 4.628906 -4.539062 C 4.40625 -4.757812 4.132812 -4.878906 3.792969 -4.878906 C 3.417969 -4.878906 3.109375 -4.769531 2.878906 -4.5625 C 2.648438 -4.351562 2.507812 -4.054688 2.449219 -3.660156 Z M 4.636719 -8.792969 L 6.15625 -8.792969 L 4.175781 -6.769531 L 3.121094 -6.769531 Z M 4.636719 -8.792969 " />
</g>
<g id="f10_backprop-glyph-0-13">
<path d="M 5.011719 -5.132812 L 5.011719 -8.355469 L 6.945312 -8.355469 L 6.945312 0 L 5.011719 0 L 5.011719 -0.867188 C 4.75 -0.515625 4.453125 -0.253906 4.132812 -0.0976562 C 3.8125 0.0546875 3.453125 0.144531 3.035156 0.144531 C 2.285156 0.144531 1.683594 -0.144531 1.210938 -0.726562 C 0.726562 -1.308594 0.496094 -2.066406 0.496094 -2.988281 C 0.496094 -3.914062 0.726562 -4.671875 1.210938 -5.265625 C 1.683594 -5.859375 2.285156 -6.15625 3.035156 -6.15625 C 3.453125 -6.15625 3.8125 -6.066406 4.132812 -5.902344 C 4.453125 -5.738281 4.75 -5.484375 5.011719 -5.132812 Z M 3.75 -1.242188 C 4.15625 -1.242188 4.460938 -1.386719 4.683594 -1.691406 C 4.902344 -1.988281 5.011719 -2.429688 5.011719 -3 C 5.011719 -3.570312 4.902344 -4 4.683594 -4.308594 C 4.460938 -4.605469 4.15625 -4.757812 3.75 -4.757812 C 3.332031 -4.757812 3.023438 -4.605469 2.804688 -4.308594 C 2.582031 -4 2.484375 -3.570312 2.484375 -3 C 2.484375 -2.429688 2.582031 -1.988281 2.804688 -1.691406 C 3.023438 -1.386719 3.332031 -1.242188 3.75 -1.242188 Z M 3.75 -1.242188 " />
</g>
<g id="f10_backprop-glyph-0-14">
<path d="M 0.921875 -6.011719 L 2.847656 -6.011719 L 2.847656 0 L 0.921875 0 Z M 0.921875 -8.355469 L 2.847656 -8.355469 L 2.847656 -6.78125 L 0.921875 -6.78125 Z M 0.921875 -8.355469 " />
</g>
<g id="f10_backprop-glyph-0-15">
<path d="M 6.925781 -3.023438 L 6.925781 -2.472656 L 2.429688 -2.472656 C 2.472656 -2.023438 2.636719 -1.683594 2.921875 -1.460938 C 3.199219 -1.230469 3.582031 -1.121094 4.089844 -1.121094 C 4.484375 -1.121094 4.902344 -1.175781 5.332031 -1.296875 C 5.75 -1.417969 6.1875 -1.605469 6.640625 -1.847656 L 6.640625 -0.363281 C 6.175781 -0.1875 5.726562 -0.0664062 5.277344 0.0117188 C 4.8125 0.0976562 4.363281 0.144531 3.914062 0.144531 C 2.824219 0.144531 1.976562 -0.132812 1.375 -0.679688 C 0.769531 -1.230469 0.472656 -2 0.472656 -3 C 0.472656 -3.980469 0.769531 -4.75 1.363281 -5.308594 C 1.957031 -5.871094 2.769531 -6.15625 3.804688 -6.15625 C 4.75 -6.15625 5.496094 -5.871094 6.066406 -5.296875 C 6.640625 -4.726562 6.925781 -3.96875 6.925781 -3.023438 Z M 4.945312 -3.660156 C 4.945312 -4.023438 4.835938 -4.320312 4.628906 -4.539062 C 4.40625 -4.757812 4.132812 -4.878906 3.792969 -4.878906 C 3.417969 -4.878906 3.109375 -4.769531 2.878906 -4.5625 C 2.648438 -4.351562 2.507812 -4.054688 2.449219 -3.660156 Z M 4.945312 -3.660156 " />
</g>
<g id="f10_backprop-glyph-0-16">
<path d="M 1.011719 -8.011719 L 6.582031 -8.011719 L 6.582031 -6.453125 L 3.078125 -6.453125 L 3.078125 -4.957031 L 6.375 -4.957031 L 6.375 -3.394531 L 3.078125 -3.394531 L 3.078125 -1.5625 L 6.703125 -1.5625 L 6.703125 0 L 1.011719 0 Z M 3.988281 -10.1875 L 5.507812 -10.1875 L 3.980469 -8.769531 L 2.921875 -8.769531 Z M 3.988281 -10.1875 " />
</g>
<g id="f10_backprop-glyph-0-17">
<path d="M 1.230469 -6.011719 L 3.164062 -6.011719 L 3.164062 -3.933594 L 1.230469 -3.933594 Z M 1.230469 -2.078125 L 3.164062 -2.078125 L 3.164062 0 L 1.230469 0 Z M 1.230469 -2.078125 " />
</g>
<g id="f10_backprop-glyph-0-18">
<path d="M 0.921875 -8.355469 L 2.847656 -8.355469 L 2.847656 0 L 0.921875 0 Z M 0.921875 -8.355469 " />
</g>
<g id="f10_backprop-glyph-0-19">
<path d="M 2.320312 -8.011719 L 2.320312 -5.035156 L 1.042969 -5.035156 L 1.042969 -8.011719 Z M 2.320312 -8.011719 " />
</g>
<g id="f10_backprop-glyph-0-20">
<path d="M 0.855469 -2.339844 L 0.855469 -6.011719 L 2.792969 -6.011719 L 2.792969 -5.40625 C 2.792969 -5.078125 2.78125 -4.671875 2.78125 -4.175781 C 2.78125 -3.683594 2.78125 -3.351562 2.78125 -3.199219 C 2.78125 -2.714844 2.792969 -2.363281 2.8125 -2.15625 C 2.835938 -1.933594 2.878906 -1.78125 2.945312 -1.691406 C 3.023438 -1.5625 3.121094 -1.460938 3.253906 -1.394531 C 3.375 -1.328125 3.515625 -1.296875 3.691406 -1.296875 C 4.089844 -1.296875 4.40625 -1.449219 4.636719 -1.757812 C 4.859375 -2.066406 4.980469 -2.496094 4.980469 -3.042969 L 4.980469 -6.011719 L 6.902344 -6.011719 L 6.902344 0 L 4.980469 0 L 4.980469 -0.867188 C 4.695312 -0.515625 4.386719 -0.253906 4.054688 -0.0976562 C 3.726562 0.0546875 3.375 0.144531 2.988281 0.144531 C 2.285156 0.144531 1.757812 -0.0664062 1.394531 -0.484375 C 1.03125 -0.902344 0.855469 -1.527344 0.855469 -2.339844 Z M 0.855469 -2.339844 " />
</g>
<g id="f10_backprop-glyph-0-21">
<path d="M 6.496094 -5.011719 C 6.738281 -5.386719 7.023438 -5.660156 7.351562 -5.859375 C 7.683594 -6.054688 8.058594 -6.15625 8.464844 -6.15625 C 9.144531 -6.15625 9.671875 -5.933594 10.035156 -5.519531 C 10.398438 -5.089844 10.585938 -4.472656 10.585938 -3.660156 L 10.585938 0 L 8.648438 0 L 8.648438 -3.132812 C 8.648438 -3.175781 8.660156 -3.230469 8.660156 -3.277344 C 8.660156 -3.320312 8.660156 -3.394531 8.660156 -3.496094 C 8.660156 -3.914062 8.59375 -4.222656 8.472656 -4.417969 C 8.34375 -4.605469 8.144531 -4.703125 7.871094 -4.703125 C 7.496094 -4.703125 7.222656 -4.550781 7.023438 -4.253906 C 6.824219 -3.945312 6.714844 -3.515625 6.714844 -2.957031 L 6.714844 0 L 4.78125 0 L 4.78125 -3.132812 C 4.78125 -3.792969 4.714844 -4.222656 4.605469 -4.417969 C 4.496094 -4.605469 4.285156 -4.703125 4 -4.703125 C 3.628906 -4.703125 3.339844 -4.550781 3.144531 -4.253906 C 2.945312 -3.945312 2.847656 -3.515625 2.847656 -2.957031 L 2.847656 0 L 0.914062 0 L 0.914062 -6.011719 L 2.847656 -6.011719 L 2.847656 -5.132812 C 3.078125 -5.460938 3.351562 -5.714844 3.660156 -5.890625 C 3.96875 -6.066406 4.296875 -6.15625 4.671875 -6.15625 C 5.078125 -6.15625 5.441406 -6.046875 5.757812 -5.847656 C 6.078125 -5.648438 6.320312 -5.363281 6.496094 -5.011719 Z M 6.496094 -5.011719 " />
</g>
<g id="f10_backprop-glyph-0-22">
<path d="M 3.78125 -4.78125 C 3.351562 -4.78125 3.023438 -4.628906 2.804688 -4.320312 C 2.582031 -4.011719 2.472656 -3.570312 2.472656 -3 C 2.472656 -2.417969 2.582031 -1.976562 2.804688 -1.671875 C 3.023438 -1.363281 3.351562 -1.21875 3.78125 -1.21875 C 4.199219 -1.21875 4.515625 -1.363281 4.738281 -1.671875 C 4.957031 -1.976562 5.078125 -2.417969 5.078125 -3 C 5.078125 -3.570312 4.957031 -4.011719 4.738281 -4.320312 C 4.515625 -4.628906 4.199219 -4.78125 3.78125 -4.78125 Z M 3.78125 -6.15625 C 4.8125 -6.15625 5.617188 -5.871094 6.199219 -5.320312 C 6.78125 -4.757812 7.078125 -3.988281 7.078125 -3 C 7.078125 -2.011719 6.78125 -1.230469 6.199219 -0.679688 C 5.617188 -0.132812 4.8125 0.144531 3.78125 0.144531 C 2.746094 0.144531 1.933594 -0.132812 1.351562 -0.679688 C 0.757812 -1.230469 0.472656 -2.011719 0.472656 -3 C 0.472656 -3.988281 0.757812 -4.757812 1.351562 -5.320312 C 1.933594 -5.871094 2.746094 -6.15625 3.78125 -6.15625 Z M 3.78125 -6.15625 " />
</g>
<g id="f10_backprop-glyph-0-23">
<path d="M 6.96875 -3.660156 L 6.96875 0 L 5.035156 0 L 5.035156 -2.804688 C 5.035156 -3.320312 5.023438 -3.671875 5 -3.867188 C 4.980469 -4.066406 4.933594 -4.210938 4.878906 -4.308594 C 4.804688 -4.429688 4.703125 -4.527344 4.574219 -4.59375 C 4.441406 -4.660156 4.285156 -4.703125 4.132812 -4.703125 C 3.726562 -4.703125 3.40625 -4.550781 3.1875 -4.242188 C 2.957031 -3.933594 2.847656 -3.507812 2.847656 -2.957031 L 2.847656 0 L 0.921875 0 L 0.921875 -6.011719 L 2.847656 -6.011719 L 2.847656 -5.132812 C 3.132812 -5.484375 3.429688 -5.738281 3.757812 -5.902344 C 4.089844 -6.066406 4.453125 -6.15625 4.847656 -6.15625 C 5.539062 -6.15625 6.066406 -5.933594 6.429688 -5.519531 C 6.78125 -5.089844 6.96875 -4.472656 6.96875 -3.660156 Z M 6.96875 -3.660156 " />
</g>
<g id="f10_backprop-glyph-0-24">
<path d="M 3.023438 -7.714844 L 3.023438 -6.011719 L 5 -6.011719 L 5 -4.636719 L 3.023438 -4.636719 L 3.023438 -2.089844 C 3.023438 -1.800781 3.078125 -1.617188 3.1875 -1.515625 C 3.296875 -1.417969 3.515625 -1.375 3.847656 -1.375 L 4.835938 -1.375 L 4.835938 0 L 3.1875 0 C 2.429688 0 1.890625 -0.152344 1.570312 -0.472656 C 1.253906 -0.78125 1.097656 -1.320312 1.097656 -2.089844 L 1.097656 -4.636719 L 0.144531 -4.636719 L 0.144531 -6.011719 L 1.097656 -6.011719 L 1.097656 -7.714844 Z M 3.023438 -7.714844 " />
</g>
<g id="f10_backprop-glyph-0-25">
<path d="M 2.441406 -3.078125 L 0.273438 -6.011719 L 2.308594 -6.011719 L 3.539062 -4.230469 L 4.78125 -6.011719 L 6.816406 -6.011719 L 4.648438 -3.089844 L 6.925781 0 L 4.890625 0 L 3.539062 -1.902344 L 2.199219 0 L 0.164062 0 Z M 2.441406 -3.078125 " />
</g>
<g id="f10_backprop-glyph-1-0">
<path d="M 2.726562 0.550781 C 2.265625 1.320312 1.890625 1.792969 1.605469 1.988281 C 1.320312 2.175781 0.945312 2.273438 0.503906 2.273438 L -0.265625 2.273438 L -0.0976562 1.449219 L 0.460938 1.449219 C 0.738281 1.449219 0.96875 1.375 1.164062 1.21875 C 1.351562 1.066406 1.570312 0.78125 1.8125 0.339844 L 2.121094 -0.21875 L 0.792969 -6.011719 L 1.835938 -6.011719 L 2.835938 -1.40625 L 5.59375 -6.011719 L 6.628906 -6.011719 Z M 2.726562 0.550781 " />
</g>
<g id="f10_backprop-glyph-2-0">
<path d="M 2.476562 0.5 C 2.058594 1.199219 1.71875 1.628906 1.457031 1.808594 C 1.199219 1.976562 0.859375 2.070312 0.460938 2.070312 L -0.238281 2.070312 L -0.0898438 1.320312 L 0.417969 1.320312 C 0.667969 1.320312 0.878906 1.25 1.058594 1.109375 C 1.230469 0.96875 1.429688 0.710938 1.648438 0.308594 L 1.929688 -0.199219 L 0.71875 -5.464844 L 1.667969 -5.464844 L 2.578125 -1.277344 L 5.085938 -5.464844 L 6.023438 -5.464844 Z M 2.476562 0.5 " />
</g>
<g id="f10_backprop-glyph-3-0">
<path d="M 1.167969 -1.238281 L 2.199219 -1.238281 L 2.199219 -0.398438 L 1.398438 1.148438 L 0.769531 1.148438 L 1.167969 -0.398438 Z M 1.167969 -1.238281 " />
</g>
<g id="f10_backprop-glyph-4-0">
<path d="M 0.601562 -5.316406 L 2.050781 -5.316406 L 2.050781 -4.828125 L 1.230469 -4.828125 L 1.230469 0.425781 L 2.050781 0.425781 L 2.050781 0.917969 L 0.601562 0.917969 Z M 0.601562 -5.316406 " />
</g>
<g id="f10_backprop-glyph-4-1">
<path d="M 1.34375 -0.582031 L 3.75 -0.582031 L 3.75 0 L 0.511719 0 L 0.511719 -0.582031 C 0.769531 -0.847656 1.125 -1.210938 1.582031 -1.671875 C 2.027344 -2.125 2.316406 -2.421875 2.433594 -2.554688 C 2.65625 -2.796875 2.8125 -3.007812 2.894531 -3.183594 C 2.980469 -3.351562 3.027344 -3.523438 3.027344 -3.691406 C 3.027344 -3.957031 2.929688 -4.183594 2.742188 -4.351562 C 2.554688 -4.519531 2.308594 -4.609375 2 -4.609375 C 1.785156 -4.609375 1.554688 -4.566406 1.316406 -4.496094 C 1.078125 -4.421875 0.820312 -4.308594 0.546875 -4.15625 L 0.546875 -4.855469 C 0.824219 -4.964844 1.085938 -5.050781 1.320312 -5.105469 C 1.558594 -5.160156 1.785156 -5.191406 1.988281 -5.191406 C 2.511719 -5.191406 2.929688 -5.058594 3.246094 -4.792969 C 3.558594 -4.527344 3.722656 -4.175781 3.722656 -3.734375 C 3.722656 -3.523438 3.679688 -3.324219 3.601562 -3.140625 C 3.523438 -2.953125 3.386719 -2.726562 3.175781 -2.476562 C 3.121094 -2.40625 2.9375 -2.21875 2.628906 -1.902344 C 2.320312 -1.585938 1.894531 -1.148438 1.34375 -0.582031 Z M 1.34375 -0.582031 " />
</g>
<g id="f10_backprop-glyph-4-2">
<path d="M 2.125 -5.316406 L 2.125 0.917969 L 0.679688 0.917969 L 0.679688 0.425781 L 1.496094 0.425781 L 1.496094 -4.828125 L 0.679688 -4.828125 L 0.679688 -5.316406 Z M 2.125 -5.316406 " />
</g>
<g id="f10_backprop-glyph-4-3">
<path d="M 0.867188 -0.582031 L 1.992188 -0.582031 L 1.992188 -4.46875 L 0.769531 -4.226562 L 0.769531 -4.855469 L 1.988281 -5.097656 L 2.679688 -5.097656 L 2.679688 -0.582031 L 3.804688 -0.582031 L 3.804688 0 L 0.867188 0 Z M 0.867188 -0.582031 " />
</g>
<g id="f10_backprop-glyph-5-0">
<path d="M 1.101562 -8.742188 L 3.355469 -8.742188 L 3.355469 -1.703125 L 7.3125 -1.703125 L 7.3125 0 L 1.101562 0 Z M 1.101562 -8.742188 " />
</g>
<g id="f10_backprop-glyph-5-1">
<path d="M 7.554688 -3.296875 L 7.554688 -2.699219 L 2.648438 -2.699219 C 2.699219 -2.207031 2.878906 -1.835938 3.191406 -1.59375 C 3.488281 -1.34375 3.910156 -1.222656 4.460938 -1.222656 C 4.890625 -1.222656 5.347656 -1.28125 5.816406 -1.414062 C 6.269531 -1.546875 6.75 -1.75 7.242188 -2.015625 L 7.242188 -0.394531 C 6.738281 -0.203125 6.246094 -0.0703125 5.753906 0.0117188 C 5.25 0.109375 4.761719 0.15625 4.269531 0.15625 C 3.082031 0.15625 2.160156 -0.144531 1.5 -0.742188 C 0.839844 -1.34375 0.515625 -2.183594 0.515625 -3.273438 C 0.515625 -4.339844 0.839844 -5.179688 1.488281 -5.792969 C 2.132812 -6.402344 3.023438 -6.714844 4.148438 -6.714844 C 5.179688 -6.714844 5.996094 -6.402344 6.617188 -5.78125 C 7.242188 -5.15625 7.554688 -4.328125 7.554688 -3.296875 Z M 5.394531 -3.992188 C 5.394531 -4.386719 5.277344 -4.710938 5.046875 -4.953125 C 4.808594 -5.191406 4.507812 -5.324219 4.136719 -5.324219 C 3.730469 -5.324219 3.394531 -5.203125 3.140625 -4.976562 C 2.890625 -4.75 2.734375 -4.425781 2.675781 -3.992188 Z M 5.394531 -3.992188 " />
</g>
<g id="f10_backprop-glyph-5-2">
<path d="M 6.128906 -6.355469 L 6.128906 -4.761719 C 5.671875 -4.941406 5.238281 -5.085938 4.832031 -5.179688 C 4.414062 -5.277344 4.015625 -5.324219 3.644531 -5.324219 C 3.238281 -5.324219 2.949219 -5.265625 2.757812 -5.167969 C 2.566406 -5.070312 2.46875 -4.917969 2.46875 -4.710938 C 2.46875 -4.542969 2.542969 -4.414062 2.6875 -4.328125 C 2.828125 -4.234375 3.09375 -4.171875 3.476562 -4.125 L 3.847656 -4.078125 C 4.917969 -3.933594 5.636719 -3.71875 6.007812 -3.40625 C 6.378906 -3.09375 6.570312 -2.601562 6.570312 -1.929688 C 6.570312 -1.234375 6.308594 -0.707031 5.792969 -0.359375 C 5.277344 -0.0117188 4.507812 0.15625 3.488281 0.15625 C 3.058594 0.15625 2.601562 0.121094 2.144531 0.0585938 C 1.679688 0 1.199219 -0.0976562 0.71875 -0.238281 L 0.71875 -1.835938 C 1.128906 -1.617188 1.558594 -1.460938 2.003906 -1.367188 C 2.433594 -1.269531 2.890625 -1.222656 3.34375 -1.222656 C 3.753906 -1.222656 4.054688 -1.269531 4.269531 -1.390625 C 4.472656 -1.5 4.582031 -1.667969 4.582031 -1.894531 C 4.582031 -2.085938 4.507812 -2.21875 4.363281 -2.3125 C 4.222656 -2.410156 3.933594 -2.480469 3.511719 -2.53125 L 3.140625 -2.578125 C 2.207031 -2.6875 1.558594 -2.902344 1.1875 -3.226562 C 0.804688 -3.539062 0.625 -4.015625 0.625 -4.664062 C 0.625 -5.359375 0.851562 -5.875 1.332031 -6.210938 C 1.8125 -6.546875 2.542969 -6.714844 3.523438 -6.714844 C 3.910156 -6.714844 4.304688 -6.679688 4.738281 -6.617188 C 5.167969 -6.558594 5.625 -6.476562 6.128906 -6.355469 Z M 6.128906 -6.355469 " />
</g>
<g id="f10_backprop-glyph-5-3">
</g>
<g id="f10_backprop-glyph-5-4">
<path d="M 5.46875 -5.601562 L 5.46875 -9.113281 L 7.578125 -9.113281 L 7.578125 0 L 5.46875 0 L 5.46875 -0.949219 C 5.179688 -0.5625 4.855469 -0.277344 4.507812 -0.109375 C 4.160156 0.0585938 3.765625 0.15625 3.308594 0.15625 C 2.492188 0.15625 1.835938 -0.15625 1.320312 -0.792969 C 0.792969 -1.425781 0.539062 -2.253906 0.539062 -3.261719 C 0.539062 -4.269531 0.792969 -5.097656 1.320312 -5.742188 C 1.835938 -6.390625 2.492188 -6.714844 3.308594 -6.714844 C 3.765625 -6.714844 4.160156 -6.617188 4.507812 -6.4375 C 4.855469 -6.257812 5.179688 -5.984375 5.46875 -5.601562 Z M 4.089844 -1.355469 C 4.53125 -1.355469 4.867188 -1.511719 5.109375 -1.847656 C 5.347656 -2.171875 5.46875 -2.648438 5.46875 -3.273438 C 5.46875 -3.898438 5.347656 -4.363281 5.109375 -4.699219 C 4.867188 -5.023438 4.53125 -5.191406 4.089844 -5.191406 C 3.632812 -5.191406 3.296875 -5.023438 3.058594 -4.699219 C 2.816406 -4.363281 2.710938 -3.898438 2.710938 -3.273438 C 2.710938 -2.648438 2.816406 -2.171875 3.058594 -1.847656 C 3.296875 -1.511719 3.632812 -1.355469 4.089844 -1.355469 Z M 4.089844 -1.355469 " />
</g>
<g id="f10_backprop-glyph-5-5">
<path d="M 0.933594 -2.554688 L 0.933594 -6.558594 L 3.046875 -6.558594 L 3.046875 -5.898438 C 3.046875 -5.539062 3.035156 -5.097656 3.035156 -4.554688 C 3.035156 -4.015625 3.035156 -3.65625 3.035156 -3.488281 C 3.035156 -2.960938 3.046875 -2.578125 3.070312 -2.351562 C 3.09375 -2.109375 3.140625 -1.941406 3.214844 -1.847656 C 3.296875 -1.703125 3.40625 -1.59375 3.550781 -1.523438 C 3.679688 -1.449219 3.835938 -1.414062 4.027344 -1.414062 C 4.460938 -1.414062 4.808594 -1.582031 5.058594 -1.917969 C 5.300781 -2.253906 5.433594 -2.722656 5.433594 -3.320312 L 5.433594 -6.558594 L 7.53125 -6.558594 L 7.53125 0 L 5.433594 0 L 5.433594 -0.949219 C 5.121094 -0.5625 4.785156 -0.277344 4.425781 -0.109375 C 4.066406 0.0585938 3.679688 0.15625 3.261719 0.15625 C 2.492188 0.15625 1.917969 -0.0703125 1.523438 -0.527344 C 1.128906 -0.984375 0.933594 -1.667969 0.933594 -2.554688 Z M 0.933594 -2.554688 " />
</g>
<g id="f10_backprop-glyph-5-6">
<path d="M 2.660156 -3.355469 L 0.300781 -6.558594 L 2.519531 -6.558594 L 3.859375 -4.617188 L 5.214844 -6.558594 L 7.433594 -6.558594 L 5.070312 -3.371094 L 7.554688 0 L 5.335938 0 L 3.859375 -2.074219 L 2.398438 0 L 0.179688 0 Z M 2.660156 -3.355469 " />
</g>
<g id="f10_backprop-glyph-5-7">
<path d="M 3.105469 -0.949219 L 3.105469 2.480469 L 1.007812 2.480469 L 1.007812 -6.558594 L 3.105469 -6.558594 L 3.105469 -5.601562 C 3.394531 -5.984375 3.707031 -6.257812 4.066406 -6.4375 C 4.414062 -6.617188 4.820312 -6.714844 5.277344 -6.714844 C 6.078125 -6.714844 6.738281 -6.390625 7.265625 -5.742188 C 7.78125 -5.097656 8.046875 -4.269531 8.046875 -3.261719 C 8.046875 -2.253906 7.78125 -1.425781 7.265625 -0.792969 C 6.738281 -0.15625 6.078125 0.15625 5.277344 0.15625 C 4.820312 0.15625 4.414062 0.0585938 4.066406 -0.109375 C 3.707031 -0.277344 3.394531 -0.5625 3.105469 -0.949219 Z M 4.496094 -5.191406 C 4.039062 -5.191406 3.707031 -5.023438 3.464844 -4.699219 C 3.226562 -4.363281 3.105469 -3.898438 3.105469 -3.273438 C 3.105469 -2.648438 3.226562 -2.171875 3.464844 -1.847656 C 3.707031 -1.511719 4.039062 -1.355469 4.496094 -1.355469 C 4.941406 -1.355469 5.277344 -1.511719 5.515625 -1.847656 C 5.753906 -2.171875 5.875 -2.648438 5.875 -3.273438 C 5.875 -3.898438 5.753906 -4.363281 5.515625 -4.699219 C 5.277344 -5.023438 4.941406 -5.191406 4.496094 -5.191406 Z M 4.496094 -5.191406 " />
</g>
<g id="f10_backprop-glyph-5-8">
<path d="M 3.945312 -2.949219 C 3.5 -2.949219 3.164062 -2.867188 2.949219 -2.722656 C 2.734375 -2.578125 2.625 -2.363281 2.625 -2.074219 C 2.625 -1.8125 2.710938 -1.59375 2.890625 -1.449219 C 3.070312 -1.296875 3.320312 -1.222656 3.632812 -1.222656 C 4.027344 -1.222656 4.363281 -1.355469 4.628906 -1.644531 C 4.890625 -1.929688 5.035156 -2.277344 5.035156 -2.710938 L 5.035156 -2.949219 Z M 7.144531 -3.742188 L 7.144531 0 L 5.035156 0 L 5.035156 -0.972656 C 4.75 -0.5625 4.4375 -0.277344 4.089844 -0.109375 C 3.730469 0.0585938 3.308594 0.15625 2.804688 0.15625 C 2.121094 0.15625 1.570312 -0.0351562 1.152344 -0.433594 C 0.71875 -0.816406 0.515625 -1.332031 0.515625 -1.964844 C 0.515625 -2.734375 0.78125 -3.296875 1.308594 -3.65625 C 1.835938 -4.015625 2.660156 -4.195312 3.800781 -4.195312 L 5.035156 -4.195312 L 5.035156 -4.363281 C 5.035156 -4.6875 4.902344 -4.929688 4.640625 -5.085938 C 4.375 -5.238281 3.96875 -5.324219 3.417969 -5.324219 C 2.960938 -5.324219 2.542969 -5.277344 2.160156 -5.179688 C 1.773438 -5.085938 1.414062 -4.953125 1.089844 -4.785156 L 1.089844 -6.378906 C 1.535156 -6.488281 1.976562 -6.570312 2.433594 -6.632812 C 2.890625 -6.679688 3.34375 -6.714844 3.800781 -6.714844 C 4.976562 -6.714844 5.828125 -6.476562 6.355469 -6.007812 C 6.882812 -5.539062 7.144531 -4.785156 7.144531 -3.742188 Z M 7.144531 -3.742188 " />
</g>
<g id="f10_backprop-glyph-5-9">
<path d="M 1.34375 -6.558594 L 3.453125 -6.558594 L 3.453125 -4.292969 L 1.34375 -4.292969 Z M 1.34375 -2.265625 L 3.453125 -2.265625 L 3.453125 0 L 1.34375 0 Z M 1.34375 -2.265625 " />
</g>
<g id="f10_backprop-glyph-5-10">
<path d="M 0.179688 -6.558594 L 2.277344 -6.558594 L 3.910156 -2.027344 L 5.539062 -6.558594 L 7.636719 -6.558594 L 5.058594 0 L 2.757812 0 Z M 0.179688 -6.558594 " />
</g>
<g id="f10_backprop-glyph-5-11">
<path d="M 7.601562 -3.992188 L 7.601562 0 L 5.492188 0 L 5.492188 -3.058594 C 5.492188 -3.621094 5.480469 -4.003906 5.457031 -4.222656 C 5.433594 -4.4375 5.382812 -4.59375 5.324219 -4.699219 C 5.238281 -4.832031 5.132812 -4.941406 4.988281 -5.011719 C 4.84375 -5.085938 4.675781 -5.132812 4.507812 -5.132812 C 4.066406 -5.132812 3.71875 -4.964844 3.476562 -4.628906 C 3.226562 -4.292969 3.105469 -3.824219 3.105469 -3.226562 L 3.105469 0 L 1.007812 0 L 1.007812 -6.558594 L 3.105469 -6.558594 L 3.105469 -5.601562 C 3.417969 -5.984375 3.742188 -6.257812 4.101562 -6.4375 C 4.460938 -6.617188 4.855469 -6.714844 5.289062 -6.714844 C 6.042969 -6.714844 6.617188 -6.476562 7.015625 -6.019531 C 7.398438 -5.550781 7.601562 -4.878906 7.601562 -3.992188 Z M 7.601562 -3.992188 " />
</g>
<g id="f10_backprop-glyph-5-12">
<path d="M 3.296875 -8.417969 L 3.296875 -6.558594 L 5.457031 -6.558594 L 5.457031 -5.058594 L 3.296875 -5.058594 L 3.296875 -2.277344 C 3.296875 -1.964844 3.355469 -1.761719 3.476562 -1.65625 C 3.597656 -1.546875 3.835938 -1.5 4.195312 -1.5 L 5.277344 -1.5 L 5.277344 0 L 3.476562 0 C 2.648438 0 2.0625 -0.167969 1.714844 -0.515625 C 1.367188 -0.851562 1.199219 -1.4375 1.199219 -2.277344 L 1.199219 -5.058594 L 0.15625 -5.058594 L 0.15625 -6.558594 L 1.199219 -6.558594 L 1.199219 -8.417969 Z M 3.296875 -8.417969 " />
</g>
<g id="f10_backprop-glyph-5-13">
<path d="M 4.125 -5.214844 C 3.65625 -5.214844 3.296875 -5.046875 3.058594 -4.710938 C 2.816406 -4.375 2.699219 -3.898438 2.699219 -3.273438 C 2.699219 -2.636719 2.816406 -2.160156 3.058594 -1.824219 C 3.296875 -1.488281 3.65625 -1.332031 4.125 -1.332031 C 4.582031 -1.332031 4.929688 -1.488281 5.167969 -1.824219 C 5.40625 -2.160156 5.539062 -2.636719 5.539062 -3.273438 C 5.539062 -3.898438 5.40625 -4.375 5.167969 -4.710938 C 4.929688 -5.046875 4.582031 -5.214844 4.125 -5.214844 Z M 4.125 -6.714844 C 5.25 -6.714844 6.128906 -6.402344 6.761719 -5.804688 C 7.398438 -5.191406 7.722656 -4.351562 7.722656 -3.273438 C 7.722656 -2.195312 7.398438 -1.34375 6.761719 -0.742188 C 6.128906 -0.144531 5.25 0.15625 4.125 0.15625 C 2.996094 0.15625 2.109375 -0.144531 1.476562 -0.742188 C 0.828125 -1.34375 0.515625 -2.195312 0.515625 -3.273438 C 0.515625 -4.351562 0.828125 -5.191406 1.476562 -5.804688 C 2.109375 -6.402344 2.996094 -6.714844 4.125 -6.714844 Z M 4.125 -6.714844 " />
</g>
<g id="f10_backprop-glyph-5-14">
<path d="M 5.875 -4.773438 C 5.683594 -4.855469 5.503906 -4.917969 5.324219 -4.964844 C 5.144531 -5 4.964844 -5.023438 4.785156 -5.023438 C 4.246094 -5.023438 3.824219 -4.84375 3.539062 -4.507812 C 3.25 -4.160156 3.105469 -3.667969 3.105469 -3.023438 L 3.105469 0 L 1.007812 0 L 1.007812 -6.558594 L 3.105469 -6.558594 L 3.105469 -5.480469 C 3.371094 -5.910156 3.667969 -6.222656 4.027344 -6.414062 C 4.375 -6.605469 4.796875 -6.714844 5.289062 -6.714844 C 5.359375 -6.714844 5.433594 -6.703125 5.515625 -6.703125 C 5.585938 -6.703125 5.707031 -6.691406 5.875 -6.667969 Z M 5.875 -4.773438 " />
</g>
<g id="f10_backprop-glyph-5-15">
<path d="M 7.554688 -3.296875 L 7.554688 -2.699219 L 2.648438 -2.699219 C 2.699219 -2.207031 2.878906 -1.835938 3.191406 -1.59375 C 3.488281 -1.34375 3.910156 -1.222656 4.460938 -1.222656 C 4.890625 -1.222656 5.347656 -1.28125 5.816406 -1.414062 C 6.269531 -1.546875 6.75 -1.75 7.242188 -2.015625 L 7.242188 -0.394531 C 6.738281 -0.203125 6.246094 -0.0703125 5.753906 0.0117188 C 5.25 0.109375 4.761719 0.15625 4.269531 0.15625 C 3.082031 0.15625 2.160156 -0.144531 1.5 -0.742188 C 0.839844 -1.34375 0.515625 -2.183594 0.515625 -3.273438 C 0.515625 -4.339844 0.839844 -5.179688 1.488281 -5.792969 C 2.132812 -6.402344 3.023438 -6.714844 4.148438 -6.714844 C 5.179688 -6.714844 5.996094 -6.402344 6.617188 -5.78125 C 7.242188 -5.15625 7.554688 -4.328125 7.554688 -3.296875 Z M 5.394531 -3.992188 C 5.394531 -4.386719 5.277344 -4.710938 5.046875 -4.953125 C 4.808594 -5.191406 4.507812 -5.324219 4.136719 -5.324219 C 3.730469 -5.324219 3.394531 -5.203125 3.140625 -4.976562 C 2.890625 -4.75 2.734375 -4.425781 2.675781 -3.992188 Z M 5.058594 -9.59375 L 6.714844 -9.59375 L 4.554688 -7.386719 L 3.40625 -7.386719 Z M 5.058594 -9.59375 " />
</g>
<g id="f10_backprop-glyph-5-16">
<path d="M 1.007812 -6.558594 L 3.105469 -6.558594 L 3.105469 0 L 1.007812 0 Z M 1.007812 -9.113281 L 3.105469 -9.113281 L 3.105469 -7.398438 L 1.007812 -7.398438 Z M 1.007812 -9.113281 " />
</g>
<g id="f10_backprop-glyph-5-17">
<path d="M 1.222656 -2.265625 L 3.332031 -2.265625 L 3.332031 -0.480469 L 1.882812 1.691406 L 0.636719 1.691406 L 1.222656 -0.480469 Z M 1.222656 -2.265625 " />
</g>
<g id="f10_backprop-glyph-5-18">
<path d="M 7.554688 -3.296875 L 7.554688 -2.699219 L 2.648438 -2.699219 C 2.699219 -2.207031 2.878906 -1.835938 3.191406 -1.59375 C 3.488281 -1.34375 3.910156 -1.222656 4.460938 -1.222656 C 4.890625 -1.222656 5.347656 -1.28125 5.816406 -1.414062 C 6.269531 -1.546875 6.75 -1.75 7.242188 -2.015625 L 7.242188 -0.394531 C 6.738281 -0.203125 6.246094 -0.0703125 5.753906 0.0117188 C 5.25 0.109375 4.761719 0.15625 4.269531 0.15625 C 3.082031 0.15625 2.160156 -0.144531 1.5 -0.742188 C 0.839844 -1.34375 0.515625 -2.183594 0.515625 -3.273438 C 0.515625 -4.339844 0.839844 -5.179688 1.488281 -5.792969 C 2.132812 -6.402344 3.023438 -6.714844 4.148438 -6.714844 C 5.179688 -6.714844 5.996094 -6.402344 6.617188 -5.78125 C 7.242188 -5.15625 7.554688 -4.328125 7.554688 -3.296875 Z M 5.394531 -3.992188 C 5.394531 -4.386719 5.277344 -4.710938 5.046875 -4.953125 C 4.808594 -5.191406 4.507812 -5.324219 4.136719 -5.324219 C 3.730469 -5.324219 3.394531 -5.203125 3.140625 -4.976562 C 2.890625 -4.75 2.734375 -4.425781 2.675781 -3.992188 Z M 3.476562 -9.59375 L 5.132812 -7.386719 L 3.980469 -7.386719 L 1.824219 -9.59375 Z M 3.476562 -9.59375 " />
</g>
<g id="f10_backprop-glyph-5-19">
<path d="M 6.308594 -6.355469 L 6.308594 -4.640625 C 6.019531 -4.832031 5.730469 -4.976562 5.445312 -5.070312 C 5.15625 -5.167969 4.855469 -5.214844 4.554688 -5.214844 C 3.96875 -5.214844 3.511719 -5.035156 3.191406 -4.699219 C 2.855469 -4.363281 2.699219 -3.886719 2.699219 -3.273438 C 2.699219 -2.648438 2.855469 -2.171875 3.191406 -1.835938 C 3.511719 -1.5 3.96875 -1.332031 4.554688 -1.332031 C 4.878906 -1.332031 5.191406 -1.378906 5.492188 -1.476562 C 5.78125 -1.570312 6.054688 -1.714844 6.308594 -1.90625 L 6.308594 -0.191406 C 5.972656 -0.0703125 5.636719 0.0117188 5.300781 0.0703125 C 4.964844 0.121094 4.628906 0.15625 4.292969 0.15625 C 3.105469 0.15625 2.183594 -0.144531 1.511719 -0.742188 C 0.839844 -1.34375 0.515625 -2.195312 0.515625 -3.273438 C 0.515625 -4.351562 0.839844 -5.191406 1.511719 -5.804688 C 2.183594 -6.402344 3.105469 -6.714844 4.292969 -6.714844 C 4.628906 -6.714844 4.964844 -6.679688 5.300781 -6.617188 C 5.636719 -6.558594 5.972656 -6.476562 6.308594 -6.355469 Z M 6.308594 -6.355469 " />
</g>
<g id="f10_backprop-glyph-5-20">
<path d="M 5.46875 -1.113281 C 5.179688 -0.730469 4.855469 -0.445312 4.507812 -0.265625 C 4.160156 -0.0820312 3.765625 0 3.308594 0 C 2.507812 0 1.847656 -0.3125 1.320312 -0.949219 C 0.792969 -1.570312 0.539062 -2.375 0.539062 -3.355469 C 0.539062 -4.328125 0.792969 -5.132812 1.320312 -5.753906 C 1.847656 -6.378906 2.507812 -6.703125 3.308594 -6.703125 C 3.765625 -6.703125 4.160156 -6.605469 4.507812 -6.425781 C 4.855469 -6.246094 5.179688 -5.972656 5.46875 -5.585938 L 5.46875 -6.558594 L 7.578125 -6.558594 L 7.578125 -0.660156 C 7.578125 0.382812 7.242188 1.1875 6.570312 1.738281 C 5.898438 2.289062 4.941406 2.578125 3.679688 2.578125 C 3.273438 2.578125 2.878906 2.542969 2.492188 2.480469 C 2.109375 2.410156 1.726562 2.3125 1.34375 2.195312 L 1.34375 0.5625 C 1.703125 0.765625 2.0625 0.921875 2.421875 1.03125 C 2.769531 1.128906 3.117188 1.1875 3.476562 1.1875 C 4.160156 1.1875 4.664062 1.03125 4.988281 0.730469 C 5.300781 0.433594 5.46875 -0.0234375 5.46875 -0.660156 Z M 4.089844 -5.191406 C 3.65625 -5.191406 3.308594 -5.023438 3.070312 -4.710938 C 2.828125 -4.386719 2.710938 -3.933594 2.710938 -3.355469 C 2.710938 -2.757812 2.816406 -2.300781 3.058594 -1.992188 C 3.296875 -1.679688 3.632812 -1.523438 4.089844 -1.523438 C 4.519531 -1.523438 4.867188 -1.679688 5.109375 -2.003906 C 5.347656 -2.3125 5.46875 -2.769531 5.46875 -3.355469 C 5.46875 -3.933594 5.347656 -4.386719 5.109375 -4.710938 C 4.867188 -5.023438 4.519531 -5.191406 4.089844 -5.191406 Z M 4.089844 -5.191406 " />
</g>
</g>
<clipPath id="f10_backprop-clip-0">
<path clip-rule="nonzero" d="M 0 0.0078125 L 516.199219 0.0078125 L 516.199219 251.628906 L 0 251.628906 Z M 0 0.0078125 " />
</clipPath>
</defs>
<g clip-path="url(#f10_backprop-clip-0)">
<path fill-rule="nonzero" fill="rgb(100%, 100%, 100%)" fill-opacity="1" d="M 0 251.628906 L 516.199219 251.628906 L 516.199219 0.0078125 L 0 0.0078125 Z M 0 251.628906 " />
</g>
<path fill="none" stroke-width="1.2" stroke-linecap="round" stroke-linejoin="round" stroke="rgb(18.03894%, 54.508972%, 34.117126%)" stroke-opacity="1" stroke-miterlimit="10" d="M 77.509187 162.496666 C 122.704311 166.190931 167.457686 169.850012 211.765404 173.473909 " transform="matrix(0.999226, 0, 0, -0.999226, -0.000000000000001388, 251.628756)" />
<path fill-rule="nonzero" fill="rgb(18.03894%, 54.508972%, 34.117126%)" fill-opacity="1" stroke-width="1.2" stroke-linecap="round" stroke-linejoin="round" stroke="rgb(18.03894%, 54.508972%, 34.117126%)" stroke-opacity="1" stroke-miterlimit="10" d="M 206.784988 175.475458 L 211.765404 173.473909 L 207.175916 170.690506 Z M 206.784988 175.475458 " transform="matrix(0.999226, 0, 0, -0.999226, -0.000000000000001388, 251.628756)" />
<path fill="none" stroke-width="1.2" stroke-linecap="round" stroke-linejoin="round" stroke="rgb(18.03894%, 54.508972%, 34.117126%)" stroke-opacity="1" stroke-miterlimit="10" d="M 77.509187 162.496666 C 122.704311 129.232649 167.54369 96.234462 212.019507 63.498196 " transform="matrix(0.999226, 0, 0, -0.999226, -0.000000000000001388, 251.628756)" />
<path fill-rule="nonzero" fill="rgb(18.03894%, 54.508972%, 34.117126%)" fill-opacity="1" stroke-width="1.2" stroke-linecap="round" stroke-linejoin="round" stroke="rgb(18.03894%, 54.508972%, 34.117126%)" stroke-opacity="1" stroke-miterlimit="10" d="M 209.57621 68.27533 L 212.019507 63.498196 L 206.734168 64.412967 Z M 209.57621 68.27533 " transform="matrix(0.999226, 0, 0, -0.999226, -0.000000000000001388, 251.628756)" />
<path fill="none" stroke-width="1.2" stroke-linecap="round" stroke-linejoin="round" stroke="rgb(18.03894%, 54.508972%, 34.117126%)" stroke-opacity="1" stroke-miterlimit="10" d="M 77.509187 73.791316 C 122.704311 107.055334 167.54369 140.053521 212.019507 172.789786 " transform="matrix(0.999226, 0, 0, -0.999226, -0.000000000000001388, 251.628756)" />
<path fill-rule="nonzero" fill="rgb(18.03894%, 54.508972%, 34.117126%)" fill-opacity="1" stroke-width="1.2" stroke-linecap="round" stroke-linejoin="round" stroke="rgb(18.03894%, 54.508972%, 34.117126%)" stroke-opacity="1" stroke-miterlimit="10" d="M 206.734168 171.875016 L 212.019507 172.789786 L 209.57621 168.008743 Z M 206.734168 171.875016 " transform="matrix(0.999226, 0, 0, -0.999226, -0.000000000000001388, 251.628756)" />
<path fill="none" stroke-width="1.2" stroke-linecap="round" stroke-linejoin="round" stroke="rgb(18.03894%, 54.508972%, 34.117126%)" stroke-opacity="1" stroke-miterlimit="10" d="M 77.509187 73.791316 C 122.704311 70.097052 167.457686 66.437971 211.765404 62.814073 " transform="matrix(0.999226, 0, 0, -0.999226, -0.000000000000001388, 251.628756)" />
<path fill-rule="nonzero" fill="rgb(18.03894%, 54.508972%, 34.117126%)" fill-opacity="1" stroke-width="1.2" stroke-linecap="round" stroke-linejoin="round" stroke="rgb(18.03894%, 54.508972%, 34.117126%)" stroke-opacity="1" stroke-miterlimit="10" d="M 207.175916 65.597477 L 211.765404 62.814073 L 206.784988 60.812525 Z M 207.175916 65.597477 " transform="matrix(0.999226, 0, 0, -0.999226, -0.000000000000001388, 251.628756)" />
<path fill="none" stroke-width="1.2" stroke-linecap="round" stroke-linejoin="round" stroke="rgb(18.03894%, 54.508972%, 34.117126%)" stroke-opacity="1" stroke-miterlimit="10" d="M 253.277991 173.583369 C 297.640439 155.104228 341.588504 136.797095 385.122186 118.658061 " transform="matrix(0.999226, 0, 0, -0.999226, -0.000000000000001388, 251.628756)" />
<path fill-rule="nonzero" fill="rgb(18.03894%, 54.508972%, 34.117126%)" fill-opacity="1" stroke-width="1.2" stroke-linecap="round" stroke-linejoin="round" stroke="rgb(18.03894%, 54.508972%, 34.117126%)" stroke-opacity="1" stroke-miterlimit="10" d="M 381.615566 122.719797 L 385.122186 118.658061 L 379.770389 118.290589 Z M 381.615566 122.719797 " transform="matrix(0.999226, 0, 0, -0.999226, -0.000000000000001388, 251.628756)" />
<path fill="none" stroke-width="1.2" stroke-linecap="round" stroke-linejoin="round" stroke="rgb(18.03894%, 54.508972%, 34.117126%)" stroke-opacity="1" stroke-miterlimit="10" d="M 253.277991 62.704614 C 297.640439 81.183755 341.588504 99.490888 385.122186 117.626012 " transform="matrix(0.999226, 0, 0, -0.999226, -0.000000000000001388, 251.628756)" />
<path fill-rule="nonzero" fill="rgb(18.03894%, 54.508972%, 34.117126%)" fill-opacity="1" stroke-width="1.2" stroke-linecap="round" stroke-linejoin="round" stroke="rgb(18.03894%, 54.508972%, 34.117126%)" stroke-opacity="1" stroke-miterlimit="10" d="M 379.770389 117.997393 L 385.122186 117.626012 L 381.615566 113.568185 Z M 379.770389 117.997393 " transform="matrix(0.999226, 0, 0, -0.999226, -0.000000000000001388, 251.628756)" />
<path fill="none" stroke-width="2.4" stroke-linecap="round" stroke-linejoin="round" stroke="rgb(75.292969%, 22.3526%, 16.862488%)" stroke-opacity="1" stroke-miterlimit="10" d="M 408.960942 25.00357 C 350.368735 25.00357 292.67566 25.00357 235.873901 25.00357 " transform="matrix(0.999226, 0, 0, -0.999226, -0.000000000000001388, 251.628756)" />
<path fill-rule="nonzero" fill="rgb(75.292969%, 22.3526%, 16.862488%)" fill-opacity="1" stroke-width="2.4" stroke-linecap="round" stroke-linejoin="round" stroke="rgb(75.292969%, 22.3526%, 16.862488%)" stroke-opacity="1" stroke-miterlimit="10" d="M 240.67449 22.603275 L 235.873901 25.00357 L 240.67449 27.403864 Z M 240.67449 22.603275 " transform="matrix(0.999226, 0, 0, -0.999226, -0.000000000000001388, 251.628756)" />
<path fill="none" stroke-width="2.4" stroke-linecap="round" stroke-linejoin="round" stroke="rgb(75.292969%, 22.3526%, 16.862488%)" stroke-opacity="1" stroke-miterlimit="10" d="M 233.188229 25.00357 C 174.599931 25.00357 116.902947 25.00357 60.105097 25.00357 " transform="matrix(0.999226, 0, 0, -0.999226, -0.000000000000001388, 251.628756)" />
<path fill-rule="nonzero" fill="rgb(75.292969%, 22.3526%, 16.862488%)" fill-opacity="1" stroke-width="2.4" stroke-linecap="round" stroke-linejoin="round" stroke="rgb(75.292969%, 22.3526%, 16.862488%)" stroke-opacity="1" stroke-miterlimit="10" d="M 64.901777 22.603275 L 60.105097 25.00357 L 64.901777 27.403864 Z M 64.901777 22.603275 " transform="matrix(0.999226, 0, 0, -0.999226, -0.000000000000001388, 251.628756)" />
<g fill="rgb(18.03894%, 54.508972%, 34.117126%)" fill-opacity="1">
<use xlink:href="#f10_backprop-glyph-0-0" x="124.593528" y="32.893721" />
</g>
<g fill="rgb(18.03894%, 54.508972%, 34.117126%)" fill-opacity="1">
<use xlink:href="#f10_backprop-glyph-0-1" x="132.649302" y="32.893721" />
</g>
<g fill="rgb(18.03894%, 54.508972%, 34.117126%)" fill-opacity="1">
<use xlink:href="#f10_backprop-glyph-0-2" x="141.112964" y="32.893721" />
</g>
<g fill="rgb(18.03894%, 54.508972%, 34.117126%)" fill-opacity="1">
<use xlink:href="#f10_backprop-glyph-0-0" x="150.456803" y="32.893721" />
</g>
<g fill="rgb(18.03894%, 54.508972%, 34.117126%)" fill-opacity="1">
<use xlink:href="#f10_backprop-glyph-0-3" x="158.512577" y="32.893721" />
</g>
<g fill="rgb(18.03894%, 54.508972%, 34.117126%)" fill-opacity="1">
<use xlink:href="#f10_backprop-glyph-0-4" x="167.019174" y="32.893721" />
</g>
<g fill="rgb(18.03894%, 54.508972%, 34.117126%)" fill-opacity="1">
<use xlink:href="#f10_backprop-glyph-0-3" x="176.040997" y="32.893721" />
</g>
<g fill="rgb(18.03894%, 54.508972%, 34.117126%)" fill-opacity="1">
<use xlink:href="#f10_backprop-glyph-0-5" x="184.547594" y="32.893721" />
</g>
<g fill="rgb(18.03894%, 54.508972%, 34.117126%)" fill-opacity="1">
<use xlink:href="#f10_backprop-glyph-0-6" x="192.045207" y="32.893721" />
</g>
<g fill="rgb(18.03894%, 54.508972%, 34.117126%)" fill-opacity="1">
<use xlink:href="#f10_backprop-glyph-0-2" x="196.134814" y="32.893721" />
</g>
<g fill="rgb(18.03894%, 54.508972%, 34.117126%)" fill-opacity="1">
<use xlink:href="#f10_backprop-glyph-0-7" x="205.478653" y="32.893721" />
</g>
<g fill="rgb(18.03894%, 54.508972%, 34.117126%)" fill-opacity="1">
<use xlink:href="#f10_backprop-glyph-0-8" x="214.677585" y="32.893721" />
</g>
<g fill="rgb(18.03894%, 54.508972%, 34.117126%)" fill-opacity="1">
<use xlink:href="#f10_backprop-glyph-0-3" x="218.504212" y="32.893721" />
</g>
<g fill="rgb(18.03894%, 54.508972%, 34.117126%)" fill-opacity="1">
<use xlink:href="#f10_backprop-glyph-0-9" x="227.010809" y="32.893721" />
</g>
<g fill="rgb(18.03894%, 54.508972%, 34.117126%)" fill-opacity="1">
<use xlink:href="#f10_backprop-glyph-0-3" x="235.517406" y="32.893721" />
</g>
<g fill="rgb(18.03894%, 54.508972%, 34.117126%)" fill-opacity="1">
<use xlink:href="#f10_backprop-glyph-0-7" x="244.024003" y="32.893721" />
</g>
<g fill="rgb(18.03894%, 54.508972%, 34.117126%)" fill-opacity="1">
<use xlink:href="#f10_backprop-glyph-0-5" x="253.222935" y="32.893721" />
</g>
<g fill="rgb(18.03894%, 54.508972%, 34.117126%)" fill-opacity="1">
<use xlink:href="#f10_backprop-glyph-0-8" x="260.720548" y="32.893721" />
</g>
<g fill="rgb(18.03894%, 54.508972%, 34.117126%)" fill-opacity="1">
<use xlink:href="#f10_backprop-glyph-0-8" x="264.547175" y="32.893721" />
</g>
<g fill="rgb(18.03894%, 54.508972%, 34.117126%)" fill-opacity="1">
<use xlink:href="#f10_backprop-glyph-0-8" x="277.583467" y="32.893721" />
</g>
<g fill="rgb(18.03894%, 54.508972%, 34.117126%)" fill-opacity="1">
<use xlink:href="#f10_backprop-glyph-0-8" x="281.410094" y="32.893721" />
</g>
<g fill="rgb(18.03894%, 54.508972%, 34.117126%)" fill-opacity="1">
<use xlink:href="#f10_backprop-glyph-0-10" x="285.236721" y="32.893721" />
</g>
<g fill="rgb(18.03894%, 54.508972%, 34.117126%)" fill-opacity="1">
<use xlink:href="#f10_backprop-glyph-0-11" x="293.104653" y="32.893721" />
</g>
<g fill="rgb(18.03894%, 54.508972%, 34.117126%)" fill-opacity="1">
<use xlink:href="#f10_backprop-glyph-0-12" x="298.52526" y="32.893721" />
</g>
<g fill="rgb(18.03894%, 54.508972%, 34.117126%)" fill-opacity="1">
<use xlink:href="#f10_backprop-glyph-0-13" x="305.979937" y="32.893721" />
</g>
<g fill="rgb(18.03894%, 54.508972%, 34.117126%)" fill-opacity="1">
<use xlink:href="#f10_backprop-glyph-0-14" x="313.847869" y="32.893721" />
</g>
<g fill="rgb(18.03894%, 54.508972%, 34.117126%)" fill-opacity="1">
<use xlink:href="#f10_backprop-glyph-0-11" x="317.615459" y="32.893721" />
</g>
<g fill="rgb(18.03894%, 54.508972%, 34.117126%)" fill-opacity="1">
<use xlink:href="#f10_backprop-glyph-0-15" x="323.036067" y="32.893721" />
</g>
<g fill="rgb(18.03894%, 54.508972%, 34.117126%)" fill-opacity="1">
<use xlink:href="#f10_backprop-glyph-0-8" x="330.490744" y="32.893721" />
</g>
<g fill="rgb(18.03894%, 54.508972%, 34.117126%)" fill-opacity="1">
<use xlink:href="#f10_backprop-glyph-1-0" x="334.317371" y="32.893721" />
</g>
<path fill-rule="nonzero" fill="rgb(18.03894%, 54.508972%, 34.117126%)" fill-opacity="1" d="M 277.046875 29.070312 L 277.046875 29.828125 L 274.9375 31.9375 L 274.15625 31.15625 L 275.222656 30.089844 L 269 30.089844 L 269 28.804688 L 275.222656 28.804688 L 274.15625 27.738281 L 274.9375 26.957031 Z M 277.046875 29.070312 " />
<path fill-rule="nonzero" fill="rgb(18.03894%, 54.508972%, 34.117126%)" fill-opacity="1" d="M 338.375 22.867188 L 339.164062 22.867188 L 340.484375 24.890625 L 339.738281 24.890625 L 338.769531 23.570312 L 337.804688 24.890625 L 337.054688 24.890625 Z M 338.769531 25.503906 Z M 338.769531 25.503906 " />
<g fill="rgb(75.292969%, 22.3526%, 16.862488%)" fill-opacity="1">
<use xlink:href="#f10_backprop-glyph-0-8" x="103.326792" y="241.358583" />
</g>
<g fill="rgb(75.292969%, 22.3526%, 16.862488%)" fill-opacity="1">
<use xlink:href="#f10_backprop-glyph-0-8" x="107.153419" y="241.358583" />
</g>
<g fill="rgb(75.292969%, 22.3526%, 16.862488%)" fill-opacity="1">
<use xlink:href="#f10_backprop-glyph-0-1" x="110.980045" y="241.358583" />
</g>
<g fill="rgb(75.292969%, 22.3526%, 16.862488%)" fill-opacity="1">
<use xlink:href="#f10_backprop-glyph-0-16" x="119.443707" y="241.358583" />
</g>
<g fill="rgb(75.292969%, 22.3526%, 16.862488%)" fill-opacity="1">
<use xlink:href="#f10_backprop-glyph-0-5" x="126.952053" y="241.358583" />
</g>
<g fill="rgb(75.292969%, 22.3526%, 16.862488%)" fill-opacity="1">
<use xlink:href="#f10_backprop-glyph-0-1" x="134.449666" y="241.358583" />
</g>
<g fill="rgb(75.292969%, 22.3526%, 16.862488%)" fill-opacity="1">
<use xlink:href="#f10_backprop-glyph-0-2" x="142.913328" y="241.358583" />
</g>
<g fill="rgb(75.292969%, 22.3526%, 16.862488%)" fill-opacity="1">
<use xlink:href="#f10_backprop-glyph-0-0" x="152.257167" y="241.358583" />
</g>
<g fill="rgb(75.292969%, 22.3526%, 16.862488%)" fill-opacity="1">
<use xlink:href="#f10_backprop-glyph-0-1" x="160.312941" y="241.358583" />
</g>
<g fill="rgb(75.292969%, 22.3526%, 16.862488%)" fill-opacity="1">
<use xlink:href="#f10_backprop-glyph-0-2" x="168.776603" y="241.358583" />
</g>
<g fill="rgb(75.292969%, 22.3526%, 16.862488%)" fill-opacity="1">
<use xlink:href="#f10_backprop-glyph-0-0" x="178.120442" y="241.358583" />
</g>
<g fill="rgb(75.292969%, 22.3526%, 16.862488%)" fill-opacity="1">
<use xlink:href="#f10_backprop-glyph-0-3" x="186.176216" y="241.358583" />
</g>
<g fill="rgb(75.292969%, 22.3526%, 16.862488%)" fill-opacity="1">
<use xlink:href="#f10_backprop-glyph-0-4" x="194.682813" y="241.358583" />
</g>
<g fill="rgb(75.292969%, 22.3526%, 16.862488%)" fill-opacity="1">
<use xlink:href="#f10_backprop-glyph-0-3" x="203.704636" y="241.358583" />
</g>
<g fill="rgb(75.292969%, 22.3526%, 16.862488%)" fill-opacity="1">
<use xlink:href="#f10_backprop-glyph-0-5" x="212.211233" y="241.358583" />
</g>
<g fill="rgb(75.292969%, 22.3526%, 16.862488%)" fill-opacity="1">
<use xlink:href="#f10_backprop-glyph-0-6" x="219.708846" y="241.358583" />
</g>
<g fill="rgb(75.292969%, 22.3526%, 16.862488%)" fill-opacity="1">
<use xlink:href="#f10_backprop-glyph-0-2" x="223.798453" y="241.358583" />
</g>
<g fill="rgb(75.292969%, 22.3526%, 16.862488%)" fill-opacity="1">
<use xlink:href="#f10_backprop-glyph-0-7" x="233.142292" y="241.358583" />
</g>
<g fill="rgb(75.292969%, 22.3526%, 16.862488%)" fill-opacity="1">
<use xlink:href="#f10_backprop-glyph-0-8" x="242.341224" y="241.358583" />
</g>
<g fill="rgb(75.292969%, 22.3526%, 16.862488%)" fill-opacity="1">
<use xlink:href="#f10_backprop-glyph-0-8" x="246.167851" y="241.358583" />
</g>
<g fill="rgb(75.292969%, 22.3526%, 16.862488%)" fill-opacity="1">
<use xlink:href="#f10_backprop-glyph-0-17" x="249.994478" y="241.358583" />
</g>
<g fill="rgb(75.292969%, 22.3526%, 16.862488%)" fill-opacity="1">
<use xlink:href="#f10_backprop-glyph-0-8" x="254.39" y="241.358583" />
</g>
<g fill="rgb(75.292969%, 22.3526%, 16.862488%)" fill-opacity="1">
<use xlink:href="#f10_backprop-glyph-0-18" x="258.216627" y="241.358583" />
</g>
<g fill="rgb(75.292969%, 22.3526%, 16.862488%)" fill-opacity="1">
<use xlink:href="#f10_backprop-glyph-0-19" x="261.984218" y="241.358583" />
</g>
<g fill="rgb(75.292969%, 22.3526%, 16.862488%)" fill-opacity="1">
<use xlink:href="#f10_backprop-glyph-0-15" x="265.349288" y="241.358583" />
</g>
<g fill="rgb(75.292969%, 22.3526%, 16.862488%)" fill-opacity="1">
<use xlink:href="#f10_backprop-glyph-0-11" x="272.803965" y="241.358583" />
</g>
<g fill="rgb(75.292969%, 22.3526%, 16.862488%)" fill-opacity="1">
<use xlink:href="#f10_backprop-glyph-0-11" x="278.224573" y="241.358583" />
</g>
<g fill="rgb(75.292969%, 22.3526%, 16.862488%)" fill-opacity="1">
<use xlink:href="#f10_backprop-glyph-0-15" x="283.64518" y="241.358583" />
</g>
<g fill="rgb(75.292969%, 22.3526%, 16.862488%)" fill-opacity="1">
<use xlink:href="#f10_backprop-glyph-0-20" x="291.099857" y="241.358583" />
</g>
<g fill="rgb(75.292969%, 22.3526%, 16.862488%)" fill-opacity="1">
<use xlink:href="#f10_backprop-glyph-0-11" x="298.924853" y="241.358583" />
</g>
<g fill="rgb(75.292969%, 22.3526%, 16.862488%)" fill-opacity="1">
<use xlink:href="#f10_backprop-glyph-0-8" x="304.345461" y="241.358583" />
</g>
<g fill="rgb(75.292969%, 22.3526%, 16.862488%)" fill-opacity="1">
<use xlink:href="#f10_backprop-glyph-0-8" x="314.896861" y="241.358583" />
</g>
<g fill="rgb(75.292969%, 22.3526%, 16.862488%)" fill-opacity="1">
<use xlink:href="#f10_backprop-glyph-0-11" x="318.723488" y="241.358583" />
</g>
<g fill="rgb(75.292969%, 22.3526%, 16.862488%)" fill-opacity="1">
<use xlink:href="#f10_backprop-glyph-0-15" x="324.144095" y="241.358583" />
</g>
<g fill="rgb(75.292969%, 22.3526%, 16.862488%)" fill-opacity="1">
<use xlink:href="#f10_backprop-glyph-0-21" x="331.598773" y="241.358583" />
</g>
<g fill="rgb(75.292969%, 22.3526%, 16.862488%)" fill-opacity="1">
<use xlink:href="#f10_backprop-glyph-0-22" x="343.051819" y="241.358583" />
</g>
<g fill="rgb(75.292969%, 22.3526%, 16.862488%)" fill-opacity="1">
<use xlink:href="#f10_backprop-glyph-0-23" x="350.603101" y="241.358583" />
</g>
<g fill="rgb(75.292969%, 22.3526%, 16.862488%)" fill-opacity="1">
<use xlink:href="#f10_backprop-glyph-0-24" x="358.428096" y="241.358583" />
</g>
<g fill="rgb(75.292969%, 22.3526%, 16.862488%)" fill-opacity="1">
<use xlink:href="#f10_backprop-glyph-0-15" x="363.682329" y="241.358583" />
</g>
<path fill-rule="nonzero" fill="rgb(75.292969%, 22.3526%, 16.862488%)" fill-opacity="1" d="M 94.65625 238.292969 L 94.65625 237.535156 L 96.765625 235.421875 L 97.546875 236.203125 L 96.480469 237.269531 L 102.703125 237.269531 L 102.703125 238.554688 L 96.480469 238.554688 L 97.546875 239.621094 L 96.765625 240.402344 Z M 94.65625 238.292969 " />
<path fill-rule="nonzero" fill="rgb(75.292969%, 22.3526%, 16.862488%)" fill-opacity="1" d="M 314.128906 234.402344 C 313.820312 234.160156 313.238281 234.027344 312.382812 234.027344 C 311.46875 234.027344 310.976562 234.234375 310.898438 234.652344 C 310.832031 234.984375 311.25 235.234375 312.171875 235.402344 C 312.875 235.53125 313.402344 235.808594 313.753906 236.203125 C 314.171875 236.6875 314.285156 237.421875 314.097656 238.414062 C 313.898438 239.359375 313.515625 240.117188 312.921875 240.667969 C 312.316406 241.226562 311.589844 241.5 310.734375 241.5 C 309.875 241.5 309.25 241.226562 308.863281 240.667969 C 308.480469 240.117188 308.390625 239.347656 308.589844 238.359375 C 308.722656 237.632812 309.09375 236.972656 309.699219 236.378906 C 309.929688 236.160156 310.195312 235.972656 310.492188 235.839844 C 309.984375 235.554688 309.789062 235.171875 309.886719 234.664062 C 310.074219 233.699219 310.953125 233.203125 312.535156 233.203125 C 313.328125 233.203125 313.910156 233.335938 314.292969 233.578125 Z M 311.183594 236.105469 C 310.921875 236.214844 310.65625 236.402344 310.414062 236.652344 C 310.019531 237.0625 309.753906 237.632812 309.621094 238.359375 C 309.480469 239.082031 309.523438 239.65625 309.753906 240.0625 C 309.976562 240.480469 310.359375 240.675781 310.898438 240.675781 C 311.414062 240.675781 311.863281 240.480469 312.261719 240.0625 C 312.644531 239.644531 312.910156 239.09375 313.042969 238.414062 C 313.171875 237.710938 313.117188 237.183594 312.867188 236.832031 C 312.578125 236.46875 312.226562 236.257812 311.789062 236.214844 C 311.558594 236.191406 311.359375 236.160156 311.183594 236.105469 Z M 311.183594 236.105469 " />
<g fill="rgb(12.156677%, 22.744751%, 37.254333%)" fill-opacity="1">
<use xlink:href="#f10_backprop-glyph-0-25" x="53.378669" y="66.116372" />
</g>
<g fill="rgb(12.156677%, 22.744751%, 37.254333%)" fill-opacity="1">
<use xlink:href="#f10_backprop-glyph-2-0" x="392.655969" y="110.562083" />
</g>
<g fill="rgb(12.156677%, 22.744751%, 37.254333%)" fill-opacity="1">
<use xlink:href="#f10_backprop-glyph-3-0" x="398.932359" y="110.562083" />
</g>
<g fill="rgb(12.156677%, 22.744751%, 37.254333%)" fill-opacity="1">
<use xlink:href="#f10_backprop-glyph-4-0" x="414.132797" y="106.73692" />
</g>
<g fill="rgb(12.156677%, 22.744751%, 37.254333%)" fill-opacity="1">
<use xlink:href="#f10_backprop-glyph-4-1" x="416.861641" y="106.73692" />
</g>
<g fill="rgb(12.156677%, 22.744751%, 37.254333%)" fill-opacity="1">
<use xlink:href="#f10_backprop-glyph-4-2" x="421.311808" y="106.73692" />
</g>
<path fill-rule="nonzero" fill="rgb(12.156677%, 22.744751%, 37.254333%)" fill-opacity="1" d="M 396.4375 101.445312 L 397.15625 101.445312 L 398.355469 103.28125 L 397.675781 103.28125 L 396.796875 102.082031 L 395.917969 103.28125 L 395.238281 103.28125 Z M 396.796875 103.84375 Z M 396.796875 103.84375 " />
<path fill-rule="nonzero" fill="rgb(12.156677%, 22.744751%, 37.254333%)" fill-opacity="1" d="M 412.714844 104.238281 C 412.4375 104.015625 411.90625 103.898438 411.125 103.898438 C 410.296875 103.898438 409.847656 104.085938 409.777344 104.46875 C 409.71875 104.765625 410.097656 104.996094 410.9375 105.144531 C 411.578125 105.265625 412.054688 105.515625 412.375 105.875 C 412.753906 106.316406 412.855469 106.984375 412.6875 107.882812 C 412.503906 108.742188 412.15625 109.433594 411.617188 109.933594 C 411.066406 110.441406 410.40625 110.691406 409.628906 110.691406 C 408.847656 110.691406 408.277344 110.441406 407.929688 109.933594 C 407.578125 109.433594 407.5 108.734375 407.679688 107.835938 C 407.800781 107.175781 408.140625 106.574219 408.6875 106.035156 C 408.898438 105.835938 409.136719 105.664062 409.410156 105.546875 C 408.949219 105.285156 408.769531 104.9375 408.859375 104.476562 C 409.027344 103.597656 409.828125 103.148438 411.265625 103.148438 C 411.984375 103.148438 412.515625 103.269531 412.867188 103.488281 Z M 410.039062 105.785156 C 409.796875 105.886719 409.558594 106.054688 409.339844 106.285156 C 408.980469 106.65625 408.738281 107.175781 408.617188 107.835938 C 408.488281 108.492188 408.527344 109.011719 408.738281 109.382812 C 408.9375 109.761719 409.289062 109.941406 409.777344 109.941406 C 410.246094 109.941406 410.65625 109.761719 411.015625 109.382812 C 411.367188 109.003906 411.605469 108.503906 411.726562 107.882812 C 411.847656 107.246094 411.796875 106.765625 411.566406 106.445312 C 411.308594 106.117188 410.988281 105.925781 410.585938 105.886719 C 410.378906 105.867188 410.199219 105.835938 410.039062 105.785156 Z M 410.039062 105.785156 " />
<g fill="rgb(12.156677%, 22.744751%, 37.254333%)" fill-opacity="1">
<use xlink:href="#f10_backprop-glyph-4-0" x="230.849471" y="49.123929" />
</g>
<g fill="rgb(12.156677%, 22.744751%, 37.254333%)" fill-opacity="1">
<use xlink:href="#f10_backprop-glyph-4-3" x="233.578315" y="49.123929" />
</g>
<g fill="rgb(12.156677%, 22.744751%, 37.254333%)" fill-opacity="1">
<use xlink:href="#f10_backprop-glyph-4-2" x="238.028483" y="49.123929" />
</g>
<path fill-rule="nonzero" fill="rgb(12.156677%, 22.744751%, 37.254333%)" fill-opacity="1" d="M 229.433594 46.625 C 229.152344 46.402344 228.621094 46.285156 227.84375 46.285156 C 227.015625 46.285156 226.566406 46.472656 226.496094 46.855469 C 226.433594 47.152344 226.8125 47.382812 227.652344 47.535156 C 228.292969 47.652344 228.773438 47.902344 229.09375 48.261719 C 229.472656 48.703125 229.570312 49.371094 229.402344 50.269531 C 229.222656 51.128906 228.871094 51.820312 228.332031 52.320312 C 227.785156 52.828125 227.125 53.078125 226.34375 53.078125 C 225.566406 53.078125 224.996094 52.828125 224.644531 52.320312 C 224.296875 51.820312 224.214844 51.121094 224.394531 50.222656 C 224.515625 49.5625 224.855469 48.960938 225.40625 48.421875 C 225.617188 48.222656 225.855469 48.054688 226.125 47.933594 C 225.664062 47.671875 225.484375 47.324219 225.574219 46.863281 C 225.746094 45.984375 226.542969 45.535156 227.984375 45.535156 C 228.703125 45.535156 229.234375 45.65625 229.582031 45.875 Z M 226.753906 48.171875 C 226.515625 48.273438 226.273438 48.441406 226.054688 48.671875 C 225.695312 49.042969 225.457031 49.5625 225.335938 50.222656 C 225.207031 50.878906 225.246094 51.398438 225.457031 51.769531 C 225.65625 52.148438 226.003906 52.328125 226.496094 52.328125 C 226.964844 52.328125 227.375 52.148438 227.734375 51.769531 C 228.082031 51.390625 228.324219 50.890625 228.441406 50.269531 C 228.5625 49.632812 228.511719 49.152344 228.285156 48.832031 C 228.023438 48.503906 227.703125 48.3125 227.304688 48.273438 C 227.09375 48.253906 226.914062 48.222656 226.753906 48.171875 Z M 226.753906 48.171875 " />
<g fill="rgb(12.156677%, 22.744751%, 37.254333%)" fill-opacity="1">
<use xlink:href="#f10_backprop-glyph-5-0" x="58.426636" y="16.786942" />
<use xlink:href="#f10_backprop-glyph-5-1" x="66.064722" y="16.786942" />
<use xlink:href="#f10_backprop-glyph-5-2" x="74.194427" y="16.786942" />
<use xlink:href="#f10_backprop-glyph-5-3" x="81.328903" y="16.786942" />
<use xlink:href="#f10_backprop-glyph-5-4" x="85.501672" y="16.786942" />
<use xlink:href="#f10_backprop-glyph-5-1" x="94.087024" y="16.786942" />
<use xlink:href="#f10_backprop-glyph-5-5" x="102.216729" y="16.786942" />
<use xlink:href="#f10_backprop-glyph-5-6" x="110.754119" y="16.786942" />
<use xlink:href="#f10_backprop-glyph-5-3" x="118.48813" y="16.786942" />
<use xlink:href="#f10_backprop-glyph-5-7" x="122.660899" y="16.786942" />
<use xlink:href="#f10_backprop-glyph-5-8" x="131.246252" y="16.786942" />
<use xlink:href="#f10_backprop-glyph-5-2" x="139.339985" y="16.786942" />
<use xlink:href="#f10_backprop-glyph-5-2" x="146.474461" y="16.786942" />
<use xlink:href="#f10_backprop-glyph-5-1" x="153.608937" y="16.786942" />
<use xlink:href="#f10_backprop-glyph-5-2" x="161.738642" y="16.786942" />
<use xlink:href="#f10_backprop-glyph-5-3" x="168.873118" y="16.786942" />
<use xlink:href="#f10_backprop-glyph-5-9" x="173.045887" y="16.786942" />
<use xlink:href="#f10_backprop-glyph-5-3" x="177.842173" y="16.786942" />
<use xlink:href="#f10_backprop-glyph-5-8" x="182.014942" y="16.786942" />
<use xlink:href="#f10_backprop-glyph-5-10" x="190.108675" y="16.786942" />
<use xlink:href="#f10_backprop-glyph-5-8" x="197.926622" y="16.786942" />
<use xlink:href="#f10_backprop-glyph-5-11" x="206.020355" y="16.786942" />
<use xlink:href="#f10_backprop-glyph-5-12" x="214.557744" y="16.786942" />
<use xlink:href="#f10_backprop-glyph-5-3" x="220.289306" y="16.786942" />
<use xlink:href="#f10_backprop-glyph-5-7" x="224.462075" y="16.786942" />
<use xlink:href="#f10_backprop-glyph-5-13" x="233.047428" y="16.786942" />
<use xlink:href="#f10_backprop-glyph-5-5" x="241.28505" y="16.786942" />
<use xlink:href="#f10_backprop-glyph-5-14" x="249.822439" y="16.786942" />
<use xlink:href="#f10_backprop-glyph-5-3" x="255.733862" y="16.786942" />
<use xlink:href="#f10_backprop-glyph-5-7" x="259.906631" y="16.786942" />
<use xlink:href="#f10_backprop-glyph-5-14" x="268.491983" y="16.786942" />
<use xlink:href="#f10_backprop-glyph-5-15" x="274.403406" y="16.786942" />
<use xlink:href="#f10_backprop-glyph-5-4" x="282.533111" y="16.786942" />
<use xlink:href="#f10_backprop-glyph-5-16" x="291.118464" y="16.786942" />
<use xlink:href="#f10_backprop-glyph-5-14" x="295.231279" y="16.786942" />
<use xlink:href="#f10_backprop-glyph-5-1" x="301.142702" y="16.786942" />
<use xlink:href="#f10_backprop-glyph-5-17" x="309.272407" y="16.786942" />
<use xlink:href="#f10_backprop-glyph-5-3" x="313.828879" y="16.786942" />
<use xlink:href="#f10_backprop-glyph-5-8" x="318.001648" y="16.786942" />
<use xlink:href="#f10_backprop-glyph-5-14" x="326.095381" y="16.786942" />
<use xlink:href="#f10_backprop-glyph-5-14" x="332.006804" y="16.786942" />
<use xlink:href="#f10_backprop-glyph-5-16" x="337.918227" y="16.786942" />
<use xlink:href="#f10_backprop-glyph-5-18" x="342.031043" y="16.786942" />
<use xlink:href="#f10_backprop-glyph-5-14" x="350.160748" y="16.786942" />
<use xlink:href="#f10_backprop-glyph-5-1" x="356.072171" y="16.786942" />
<use xlink:href="#f10_backprop-glyph-5-3" x="364.201876" y="16.786942" />
<use xlink:href="#f10_backprop-glyph-5-7" x="368.374645" y="16.786942" />
<use xlink:href="#f10_backprop-glyph-5-13" x="376.959997" y="16.786942" />
<use xlink:href="#f10_backprop-glyph-5-5" x="385.197619" y="16.786942" />
<use xlink:href="#f10_backprop-glyph-5-14" x="393.735009" y="16.786942" />
<use xlink:href="#f10_backprop-glyph-5-3" x="399.646431" y="16.786942" />
<use xlink:href="#f10_backprop-glyph-5-19" x="403.8192" y="16.786942" />
<use xlink:href="#f10_backprop-glyph-5-13" x="410.929695" y="16.786942" />
<use xlink:href="#f10_backprop-glyph-5-14" x="419.167316" y="16.786942" />
<use xlink:href="#f10_backprop-glyph-5-14" x="425.078739" y="16.786942" />
<use xlink:href="#f10_backprop-glyph-5-16" x="430.990162" y="16.786942" />
<use xlink:href="#f10_backprop-glyph-5-20" x="435.102978" y="16.786942" />
<use xlink:href="#f10_backprop-glyph-5-1" x="443.68833" y="16.786942" />
<use xlink:href="#f10_backprop-glyph-5-14" x="451.818035" y="16.786942" />
</g>
<path fill-rule="nonzero" fill="rgb(23.136902%, 43.528748%, 69.018555%)" fill-opacity="1" stroke-width="1" stroke-linecap="butt" stroke-linejoin="miter" stroke="rgb(23.136902%, 43.528748%, 69.018555%)" stroke-opacity="1" stroke-miterlimit="10" d="M 57.419425 153.626522 C 62.747766 153.626522 67.857188 154.560839 71.625729 156.22228 C 75.39036 157.887631 77.509187 160.143283 77.509187 162.496666 C 77.509187 164.850049 75.39036 167.105701 71.625729 168.767142 C 67.857188 170.432493 62.747766 171.36681 57.419425 171.36681 C 52.091084 171.36681 46.981662 170.432493 43.217031 168.767142 C 39.44849 167.105701 37.333572 164.850049 37.333572 162.496666 C 37.333572 160.143283 39.44849 157.887631 43.217031 156.22228 C 46.981662 154.560839 52.091084 153.626522 57.419425 153.626522 Z M 57.419425 153.626522 " transform="matrix(0.999226, 0, 0, -0.999226, -0.000000000000001388, 251.628756)" />
<path fill-rule="nonzero" fill="rgb(23.136902%, 43.528748%, 69.018555%)" fill-opacity="1" stroke-width="1" stroke-linecap="butt" stroke-linejoin="miter" stroke="rgb(23.136902%, 43.528748%, 69.018555%)" stroke-opacity="1" stroke-miterlimit="10" d="M 57.419425 64.921172 C 62.747766 64.921172 67.857188 65.855489 71.625729 67.52084 C 75.39036 69.182282 77.509187 71.437933 77.509187 73.791316 C 77.509187 76.1447 75.39036 78.400351 71.625729 80.065702 C 67.857188 81.727144 62.747766 82.66146 57.419425 82.66146 C 52.091084 82.66146 46.981662 81.727144 43.217031 80.065702 C 39.44849 78.400351 37.333572 76.1447 37.333572 73.791316 C 37.333572 71.437933 39.44849 69.182282 43.217031 67.52084 C 46.981662 65.855489 52.091084 64.921172 57.419425 64.921172 Z M 57.419425 64.921172 " transform="matrix(0.999226, 0, 0, -0.999226, -0.000000000000001388, 251.628756)" />
<path fill-rule="nonzero" fill="rgb(87.841797%, 48.234558%, 22.3526%)" fill-opacity="1" stroke-width="1" stroke-linecap="butt" stroke-linejoin="miter" stroke="rgb(87.841797%, 48.234558%, 22.3526%)" stroke-opacity="1" stroke-miterlimit="10" d="M 233.188229 164.713225 C 238.51657 164.713225 243.625992 165.647541 247.394533 167.312892 C 251.163073 168.974334 253.277991 171.229985 253.277991 173.583369 C 253.277991 175.936752 251.163073 178.192403 247.394533 179.857754 C 243.625992 181.519196 238.51657 182.453513 233.188229 182.453513 C 227.863797 182.453513 222.754375 181.519196 218.985834 179.857754 C 215.217294 178.192403 213.102376 175.936752 213.102376 173.583369 C 213.102376 171.229985 215.217294 168.974334 218.985834 167.312892 C 222.754375 165.647541 227.863797 164.713225 233.188229 164.713225 Z M 233.188229 164.713225 " transform="matrix(0.999226, 0, 0, -0.999226, -0.000000000000001388, 251.628756)" />
<path fill-rule="nonzero" fill="rgb(87.841797%, 48.234558%, 22.3526%)" fill-opacity="1" stroke-width="1" stroke-linecap="butt" stroke-linejoin="miter" stroke="rgb(87.841797%, 48.234558%, 22.3526%)" stroke-opacity="1" stroke-miterlimit="10" d="M 233.188229 53.83447 C 238.51657 53.83447 243.625992 54.768786 247.394533 56.430228 C 251.163073 58.095579 253.277991 60.35123 253.277991 62.704614 C 253.277991 65.057997 251.163073 67.313648 247.394533 68.97509 C 243.625992 70.640441 238.51657 71.574758 233.188229 71.574758 C 227.863797 71.574758 222.754375 70.640441 218.985834 68.97509 C 215.217294 67.313648 213.102376 65.057997 213.102376 62.704614 C 213.102376 60.35123 215.217294 58.095579 218.985834 56.430228 C 222.754375 54.768786 227.863797 53.83447 233.188229 53.83447 Z M 233.188229 53.83447 " transform="matrix(0.999226, 0, 0, -0.999226, -0.000000000000001388, 251.628756)" />
<path fill-rule="nonzero" fill="rgb(18.03894%, 54.508972%, 34.117126%)" fill-opacity="1" stroke-width="1" stroke-linecap="butt" stroke-linejoin="miter" stroke="rgb(18.03894%, 54.508972%, 34.117126%)" stroke-opacity="1" stroke-miterlimit="10" d="M 408.960942 108.165568 C 414.95386 108.165568 420.700494 109.217163 424.938147 111.085796 C 429.17971 112.958339 431.560458 115.495458 431.560458 118.142037 C 431.560458 120.788616 429.17971 123.329644 424.938147 125.198277 C 420.700494 127.07082 414.95386 128.122415 408.960942 128.122415 C 402.968024 128.122415 397.217481 127.07082 392.979828 125.198277 C 388.742174 123.329644 386.361426 120.788616 386.361426 118.142037 C 386.361426 115.495458 388.742174 112.958339 392.979828 111.085796 C 397.217481 109.217163 402.968024 108.165568 408.960942 108.165568 Z M 408.960942 108.165568 " transform="matrix(0.999226, 0, 0, -0.999226, -0.000000000000001388, 251.628756)" />
</svg>
