<svg xmlns="http://www.w3.org/2000/svg" xmlns:xlink="http://www.w3.org/1999/xlink" width="433.640625pt" height="249.974125pt" viewBox="0 0 433.640625 249.974125">
<defs>
<g>
<g id="f5_poly_bend-glyph-0-0">
<path d="M 3.496094 -7.296875 C 2.933594 -7.296875 2.515625 -7.023438 2.230469 -6.472656 C 1.945312 -5.925781 1.8125 -5.101562 1.8125 -4 C 1.8125 -2.902344 1.945312 -2.078125 2.230469 -1.527344 C 2.515625 -0.976562 2.933594 -0.703125 3.496094 -0.703125 C 4.054688 -0.703125 4.472656 -0.976562 4.757812 -1.527344 C 5.035156 -2.078125 5.175781 -2.902344 5.175781 -4 C 5.175781 -5.101562 5.035156 -5.925781 4.757812 -6.472656 C 4.472656 -7.023438 4.054688 -7.296875 3.496094 -7.296875 Z M 3.496094 -8.15625 C 4.386719 -8.15625 5.066406 -7.792969 5.550781 -7.089844 C 6.023438 -6.375 6.265625 -5.339844 6.265625 -4 C 6.265625 -2.648438 6.023438 -1.617188 5.550781 -0.914062 C 5.066406 -0.207031 4.386719 0.144531 3.484375 0.144531 C 2.582031 0.144531 1.902344 -0.207031 1.429688 -0.914062 C 0.957031 -1.617188 0.726562 -2.648438 0.726562 -4 C 0.726562 -5.339844 0.957031 -6.375 1.429688 -7.089844 C 1.902344 -7.792969 2.59375 -8.15625 3.496094 -8.15625 Z M 3.496094 -8.15625 " />
</g>
<g id="f5_poly_bend-glyph-0-1">
<path d="M 1.363281 -0.914062 L 3.132812 -0.914062 L 3.132812 -7.023438 L 1.210938 -6.636719 L 1.210938 -7.628906 L 3.121094 -8.011719 L 4.210938 -8.011719 L 4.210938 -0.914062 L 5.980469 -0.914062 L 5.980469 0 L 1.363281 0 Z M 1.363281 -0.914062 " />
</g>
<g id="f5_poly_bend-glyph-0-2">
<path d="M 2.109375 -0.914062 L 5.890625 -0.914062 L 5.890625 0 L 0.800781 0 L 0.800781 -0.914062 C 1.210938 -1.328125 1.769531 -1.902344 2.484375 -2.625 C 3.1875 -3.339844 3.636719 -3.804688 3.824219 -4.011719 C 4.175781 -4.394531 4.417969 -4.726562 4.550781 -5 C 4.683594 -5.265625 4.757812 -5.539062 4.757812 -5.804688 C 4.757812 -6.222656 4.605469 -6.574219 4.308594 -6.835938 C 4.011719 -7.101562 3.628906 -7.242188 3.144531 -7.242188 C 2.800781 -7.242188 2.441406 -7.175781 2.066406 -7.066406 C 1.691406 -6.945312 1.285156 -6.769531 0.855469 -6.527344 L 0.855469 -7.628906 C 1.296875 -7.804688 1.703125 -7.933594 2.078125 -8.023438 C 2.449219 -8.109375 2.800781 -8.15625 3.121094 -8.15625 C 3.945312 -8.15625 4.605469 -7.945312 5.101562 -7.527344 C 5.59375 -7.109375 5.847656 -6.5625 5.847656 -5.867188 C 5.847656 -5.539062 5.78125 -5.21875 5.660156 -4.933594 C 5.539062 -4.636719 5.320312 -4.285156 4.988281 -3.890625 C 4.902344 -3.78125 4.617188 -3.484375 4.132812 -2.988281 C 3.648438 -2.496094 2.980469 -1.800781 2.109375 -0.914062 Z M 2.109375 -0.914062 " />
</g>
<g id="f5_poly_bend-glyph-0-3">
<path d="M 4.460938 -4.320312 C 4.980469 -4.210938 5.386719 -3.980469 5.671875 -3.628906 C 5.957031 -3.273438 6.109375 -2.835938 6.109375 -2.328125 C 6.109375 -1.539062 5.835938 -0.921875 5.296875 -0.496094 C 4.75 -0.0664062 3.980469 0.144531 2.980469 0.144531 C 2.636719 0.144531 2.285156 0.109375 1.933594 0.0429688 C 1.582031 -0.0117188 1.210938 -0.109375 0.835938 -0.242188 L 0.835938 -1.285156 C 1.132812 -1.109375 1.460938 -0.976562 1.824219 -0.890625 C 2.175781 -0.800781 2.550781 -0.757812 2.945312 -0.757812 C 3.628906 -0.757812 4.144531 -0.890625 4.496094 -1.152344 C 4.847656 -1.417969 5.035156 -1.8125 5.035156 -2.328125 C 5.035156 -2.792969 4.867188 -3.164062 4.539062 -3.429688 C 4.210938 -3.691406 3.746094 -3.835938 3.15625 -3.835938 L 2.21875 -3.835938 L 2.21875 -4.726562 L 3.199219 -4.726562 C 3.726562 -4.726562 4.132812 -4.824219 4.417969 -5.042969 C 4.703125 -5.253906 4.847656 -5.5625 4.847656 -5.96875 C 4.847656 -6.375 4.691406 -6.695312 4.40625 -6.914062 C 4.109375 -7.132812 3.691406 -7.242188 3.15625 -7.242188 C 2.859375 -7.242188 2.539062 -7.210938 2.199219 -7.144531 C 1.859375 -7.078125 1.484375 -6.980469 1.078125 -6.847656 L 1.078125 -7.816406 C 1.484375 -7.925781 1.867188 -8.011719 2.230469 -8.066406 C 2.582031 -8.121094 2.921875 -8.15625 3.253906 -8.15625 C 4.066406 -8.15625 4.714844 -7.96875 5.199219 -7.59375 C 5.683594 -7.222656 5.925781 -6.714844 5.925781 -6.078125 C 5.925781 -5.636719 5.792969 -5.265625 5.539062 -4.957031 C 5.285156 -4.648438 4.925781 -4.429688 4.460938 -4.320312 Z M 4.460938 -4.320312 " />
</g>
<g id="f5_poly_bend-glyph-0-4">
<path d="M 4.15625 -7.066406 L 1.417969 -2.792969 L 4.15625 -2.792969 Z M 3.867188 -8.011719 L 5.230469 -8.011719 L 5.230469 -2.792969 L 6.375 -2.792969 L 6.375 -1.890625 L 5.230469 -1.890625 L 5.230469 0 L 4.15625 0 L 4.15625 -1.890625 L 0.539062 -1.890625 L 0.539062 -2.933594 Z M 3.867188 -8.011719 " />
</g>
<g id="f5_poly_bend-glyph-0-5">
<path d="M 1.1875 -8.011719 L 5.441406 -8.011719 L 5.441406 -7.101562 L 2.175781 -7.101562 L 2.175781 -5.132812 C 2.328125 -5.1875 2.496094 -5.230469 2.648438 -5.253906 C 2.800781 -5.277344 2.96875 -5.296875 3.121094 -5.296875 C 4.011719 -5.296875 4.714844 -5.042969 5.242188 -4.5625 C 5.769531 -4.066406 6.035156 -3.40625 6.035156 -2.570312 C 6.035156 -1.703125 5.757812 -1.03125 5.21875 -0.558594 C 4.683594 -0.0898438 3.921875 0.144531 2.957031 0.144531 C 2.617188 0.144531 2.273438 0.109375 1.921875 0.0664062 C 1.570312 0.0117188 1.21875 -0.0664062 0.847656 -0.1875 L 0.847656 -1.273438 C 1.164062 -1.097656 1.496094 -0.96875 1.847656 -0.878906 C 2.1875 -0.792969 2.550781 -0.757812 2.933594 -0.757812 C 3.550781 -0.757812 4.042969 -0.914062 4.40625 -1.242188 C 4.757812 -1.570312 4.945312 -2.011719 4.945312 -2.570312 C 4.945312 -3.121094 4.757812 -3.5625 4.40625 -3.890625 C 4.042969 -4.21875 3.550781 -4.386719 2.933594 -4.386719 C 2.648438 -4.386719 2.351562 -4.351562 2.066406 -4.285156 C 1.78125 -4.21875 1.484375 -4.121094 1.1875 -3.988281 Z M 1.1875 -8.011719 " />
</g>
<g id="f5_poly_bend-glyph-0-6">
<path d="M 3.628906 -4.441406 C 3.144531 -4.441406 2.757812 -4.265625 2.472656 -3.933594 C 2.1875 -3.605469 2.042969 -3.144531 2.042969 -2.570312 C 2.042969 -1.988281 2.1875 -1.527344 2.472656 -1.199219 C 2.757812 -0.867188 3.144531 -0.703125 3.628906 -0.703125 C 4.109375 -0.703125 4.496094 -0.867188 4.78125 -1.199219 C 5.066406 -1.527344 5.210938 -1.988281 5.210938 -2.570312 C 5.210938 -3.144531 5.066406 -3.605469 4.78125 -3.933594 C 4.496094 -4.265625 4.109375 -4.441406 3.628906 -4.441406 Z M 5.78125 -7.835938 L 5.78125 -6.847656 C 5.507812 -6.980469 5.230469 -7.078125 4.957031 -7.144531 C 4.671875 -7.210938 4.394531 -7.242188 4.132812 -7.242188 C 3.40625 -7.242188 2.859375 -7 2.484375 -6.519531 C 2.109375 -6.035156 1.890625 -5.296875 1.847656 -4.332031 C 2.054688 -4.636719 2.320312 -4.878906 2.636719 -5.042969 C 2.957031 -5.210938 3.308594 -5.296875 3.691406 -5.296875 C 4.496094 -5.296875 5.132812 -5.042969 5.59375 -4.5625 C 6.054688 -4.078125 6.296875 -3.40625 6.296875 -2.570312 C 6.296875 -1.746094 6.046875 -1.089844 5.5625 -0.59375 C 5.078125 -0.0976562 4.429688 0.144531 3.628906 0.144531 C 2.703125 0.144531 1.988281 -0.207031 1.503906 -0.914062 C 1.011719 -1.617188 0.769531 -2.648438 0.769531 -4 C 0.769531 -5.265625 1.066406 -6.277344 1.671875 -7.023438 C 2.265625 -7.769531 3.078125 -8.15625 4.089844 -8.15625 C 4.351562 -8.15625 4.628906 -8.121094 4.914062 -8.078125 C 5.1875 -8.023438 5.472656 -7.945312 5.78125 -7.835938 Z M 5.78125 -7.835938 " />
</g>
<g id="f5_poly_bend-glyph-0-7">
<path d="M 6.035156 -6.011719 L 3.859375 -3.089844 L 6.144531 0 L 4.980469 0 L 3.230469 -2.363281 L 1.484375 0 L 0.320312 0 L 2.648438 -3.144531 L 0.515625 -6.011719 L 1.679688 -6.011719 L 3.273438 -3.867188 L 4.867188 -6.011719 Z M 6.035156 -6.011719 " />
</g>
<g id="f5_poly_bend-glyph-1-0">
<path d="M 0.550781 -3.539062 C 1.253906 -3.253906 1.726562 -2.980469 1.945312 -2.714844 C 2.164062 -2.449219 2.273438 -2.097656 2.273438 -1.660156 L 2.273438 -0.867188 L 1.449219 -0.867188 L 1.449219 -1.449219 C 1.449219 -1.714844 1.386719 -1.921875 1.253906 -2.078125 C 1.121094 -2.230469 0.824219 -2.394531 0.339844 -2.582031 L -0.0976562 -2.757812 L -6.011719 -0.328125 L -6.011719 -1.375 L -1.308594 -3.253906 L -6.011719 -5.132812 L -6.011719 -6.175781 Z M 0.550781 -3.539062 " />
</g>
<g id="f5_poly_bend-glyph-2-0">
<path d="M 0.964844 -7.648438 L 2.9375 -7.648438 L 2.9375 -3.0625 C 2.9375 -2.433594 3.03125 -1.984375 3.242188 -1.710938 C 3.453125 -1.4375 3.789062 -1.300781 4.257812 -1.300781 C 4.722656 -1.300781 5.058594 -1.4375 5.265625 -1.710938 C 5.476562 -1.984375 5.582031 -2.433594 5.582031 -3.0625 L 5.582031 -7.648438 L 7.554688 -7.648438 L 7.554688 -3.0625 C 7.554688 -1.972656 7.28125 -1.175781 6.734375 -0.652344 C 6.191406 -0.125 5.371094 0.136719 4.257812 0.136719 C 3.148438 0.136719 2.320312 -0.125 1.773438 -0.652344 C 1.226562 -1.175781 0.964844 -1.972656 0.964844 -3.0625 Z M 0.964844 -7.648438 " />
</g>
<g id="f5_poly_bend-glyph-2-1">
<path d="M 6.652344 -3.492188 L 6.652344 0 L 4.804688 0 L 4.804688 -2.675781 C 4.804688 -3.167969 4.792969 -3.503906 4.773438 -3.691406 C 4.753906 -3.882812 4.710938 -4.019531 4.65625 -4.113281 C 4.585938 -4.226562 4.492188 -4.324219 4.363281 -4.386719 C 4.238281 -4.449219 4.089844 -4.492188 3.945312 -4.492188 C 3.554688 -4.492188 3.253906 -4.34375 3.042969 -4.050781 C 2.820312 -3.757812 2.71875 -3.347656 2.71875 -2.820312 L 2.71875 0 L 0.882812 0 L 0.882812 -5.738281 L 2.71875 -5.738281 L 2.71875 -4.898438 C 2.988281 -5.234375 3.273438 -5.476562 3.589844 -5.632812 C 3.902344 -5.792969 4.25 -5.875 4.625 -5.875 C 5.289062 -5.875 5.792969 -5.664062 6.136719 -5.265625 C 6.472656 -4.859375 6.652344 -4.269531 6.652344 -3.492188 Z M 6.652344 -3.492188 " />
</g>
<g id="f5_poly_bend-glyph-2-2">
<path d="M 6.609375 -2.886719 L 6.609375 -2.359375 L 2.320312 -2.359375 C 2.359375 -1.929688 2.519531 -1.605469 2.789062 -1.394531 C 3.054688 -1.175781 3.421875 -1.070312 3.902344 -1.070312 C 4.28125 -1.070312 4.679688 -1.121094 5.089844 -1.238281 C 5.488281 -1.351562 5.90625 -1.53125 6.335938 -1.761719 L 6.335938 -0.347656 C 5.894531 -0.179688 5.464844 -0.0625 5.035156 0.0117188 C 4.59375 0.09375 4.164062 0.136719 3.734375 0.136719 C 2.695312 0.136719 1.886719 -0.125 1.3125 -0.652344 C 0.734375 -1.175781 0.449219 -1.910156 0.449219 -2.863281 C 0.449219 -3.796875 0.734375 -4.53125 1.300781 -5.066406 C 1.867188 -5.601562 2.644531 -5.875 3.628906 -5.875 C 4.53125 -5.875 5.246094 -5.601562 5.792969 -5.058594 C 6.335938 -4.511719 6.609375 -3.789062 6.609375 -2.886719 Z M 4.722656 -3.492188 C 4.722656 -3.839844 4.617188 -4.125 4.417969 -4.332031 C 4.207031 -4.542969 3.945312 -4.65625 3.621094 -4.65625 C 3.261719 -4.65625 2.96875 -4.554688 2.75 -4.355469 C 2.527344 -4.15625 2.390625 -3.871094 2.339844 -3.492188 Z M 4.722656 -3.492188 " />
</g>
<g id="f5_poly_bend-glyph-2-3">
</g>
<g id="f5_poly_bend-glyph-2-4">
<path d="M 4.785156 -4.898438 L 4.785156 -7.972656 L 6.628906 -7.972656 L 6.628906 0 L 4.785156 0 L 4.785156 -0.828125 C 4.53125 -0.492188 4.25 -0.242188 3.945312 -0.09375 C 3.640625 0.0507812 3.292969 0.136719 2.894531 0.136719 C 2.183594 0.136719 1.605469 -0.136719 1.152344 -0.691406 C 0.691406 -1.25 0.472656 -1.972656 0.472656 -2.855469 C 0.472656 -3.734375 0.691406 -4.457031 1.152344 -5.023438 C 1.605469 -5.59375 2.183594 -5.875 2.894531 -5.875 C 3.292969 -5.875 3.640625 -5.792969 3.945312 -5.632812 C 4.25 -5.476562 4.53125 -5.234375 4.785156 -4.898438 Z M 3.578125 -1.183594 C 3.964844 -1.183594 4.257812 -1.320312 4.46875 -1.617188 C 4.679688 -1.898438 4.785156 -2.320312 4.785156 -2.863281 C 4.785156 -3.410156 4.679688 -3.820312 4.46875 -4.113281 C 4.257812 -4.394531 3.964844 -4.542969 3.578125 -4.542969 C 3.179688 -4.542969 2.886719 -4.394531 2.675781 -4.113281 C 2.464844 -3.820312 2.371094 -3.410156 2.371094 -2.863281 C 2.371094 -2.320312 2.464844 -1.898438 2.675781 -1.617188 C 2.886719 -1.320312 3.179688 -1.183594 3.578125 -1.183594 Z M 3.578125 -1.183594 " />
</g>
<g id="f5_poly_bend-glyph-2-5">
<path d="M 5.140625 -4.175781 C 4.972656 -4.25 4.816406 -4.300781 4.65625 -4.34375 C 4.5 -4.375 4.34375 -4.394531 4.1875 -4.394531 C 3.714844 -4.394531 3.347656 -4.238281 3.09375 -3.945312 C 2.84375 -3.640625 2.71875 -3.210938 2.71875 -2.644531 L 2.71875 0 L 0.882812 0 L 0.882812 -5.738281 L 2.71875 -5.738281 L 2.71875 -4.792969 C 2.949219 -5.171875 3.210938 -5.445312 3.523438 -5.613281 C 3.828125 -5.78125 4.195312 -5.875 4.625 -5.875 C 4.691406 -5.875 4.753906 -5.863281 4.824219 -5.863281 C 4.890625 -5.863281 4.992188 -5.855469 5.140625 -5.832031 Z M 5.140625 -4.175781 " />
</g>
<g id="f5_poly_bend-glyph-2-6">
<path d="M 3.609375 -4.5625 C 3.199219 -4.5625 2.886719 -4.417969 2.675781 -4.125 C 2.464844 -3.828125 2.359375 -3.410156 2.359375 -2.863281 C 2.359375 -2.308594 2.464844 -1.886719 2.675781 -1.59375 C 2.886719 -1.300781 3.199219 -1.164062 3.609375 -1.164062 C 4.007812 -1.164062 4.3125 -1.300781 4.523438 -1.59375 C 4.730469 -1.886719 4.847656 -2.308594 4.847656 -2.863281 C 4.847656 -3.410156 4.730469 -3.828125 4.523438 -4.125 C 4.3125 -4.417969 4.007812 -4.5625 3.609375 -4.5625 Z M 3.609375 -5.875 C 4.59375 -5.875 5.359375 -5.601562 5.917969 -5.078125 C 6.472656 -4.542969 6.757812 -3.808594 6.757812 -2.863281 C 6.757812 -1.917969 6.472656 -1.175781 5.917969 -0.652344 C 5.359375 -0.125 4.59375 0.136719 3.609375 0.136719 C 2.621094 0.136719 1.847656 -0.125 1.289062 -0.652344 C 0.722656 -1.175781 0.449219 -1.917969 0.449219 -2.863281 C 0.449219 -3.808594 0.722656 -4.542969 1.289062 -5.078125 C 1.847656 -5.601562 2.621094 -5.875 3.609375 -5.875 Z M 3.609375 -5.875 " />
</g>
<g id="f5_poly_bend-glyph-2-7">
<path d="M 0.882812 -5.738281 L 2.71875 -5.738281 L 2.71875 0 L 0.882812 0 Z M 0.882812 -7.972656 L 2.71875 -7.972656 L 2.71875 -6.472656 L 0.882812 -6.472656 Z M 0.882812 -7.972656 " />
</g>
<g id="f5_poly_bend-glyph-2-8">
<path d="M 2.886719 -7.363281 L 2.886719 -5.738281 L 4.773438 -5.738281 L 4.773438 -4.425781 L 2.886719 -4.425781 L 2.886719 -1.992188 C 2.886719 -1.71875 2.9375 -1.542969 3.042969 -1.449219 C 3.148438 -1.351562 3.355469 -1.3125 3.671875 -1.3125 L 4.617188 -1.3125 L 4.617188 0 L 3.042969 0 C 2.320312 0 1.804688 -0.148438 1.5 -0.449219 C 1.195312 -0.746094 1.050781 -1.257812 1.050781 -1.992188 L 1.050781 -4.425781 L 0.136719 -4.425781 L 0.136719 -5.738281 L 1.050781 -5.738281 L 1.050781 -7.363281 Z M 2.886719 -7.363281 " />
</g>
<g id="f5_poly_bend-glyph-2-9">
<path d="M 5.359375 -5.558594 L 5.359375 -4.164062 C 4.960938 -4.324219 4.585938 -4.449219 4.226562 -4.53125 C 3.859375 -4.617188 3.515625 -4.65625 3.1875 -4.65625 C 2.832031 -4.65625 2.582031 -4.605469 2.414062 -4.523438 C 2.246094 -4.4375 2.160156 -4.300781 2.160156 -4.125 C 2.160156 -3.976562 2.222656 -3.859375 2.351562 -3.789062 C 2.476562 -3.703125 2.707031 -3.652344 3.042969 -3.609375 L 3.367188 -3.566406 C 4.300781 -3.441406 4.929688 -3.253906 5.257812 -2.980469 C 5.582031 -2.707031 5.75 -2.277344 5.75 -1.6875 C 5.75 -1.082031 5.519531 -0.617188 5.066406 -0.316406 C 4.617188 -0.0117188 3.945312 0.136719 3.054688 0.136719 C 2.675781 0.136719 2.277344 0.105469 1.878906 0.0507812 C 1.46875 0 1.050781 -0.0820312 0.628906 -0.210938 L 0.628906 -1.605469 C 0.984375 -1.417969 1.363281 -1.28125 1.753906 -1.195312 C 2.128906 -1.113281 2.527344 -1.070312 2.925781 -1.070312 C 3.285156 -1.070312 3.546875 -1.113281 3.734375 -1.21875 C 3.914062 -1.3125 4.007812 -1.457031 4.007812 -1.65625 C 4.007812 -1.824219 3.945312 -1.941406 3.820312 -2.023438 C 3.691406 -2.109375 3.441406 -2.171875 3.074219 -2.214844 L 2.75 -2.253906 C 1.929688 -2.351562 1.363281 -2.539062 1.039062 -2.820312 C 0.703125 -3.09375 0.546875 -3.515625 0.546875 -4.082031 C 0.546875 -4.691406 0.746094 -5.140625 1.164062 -5.433594 C 1.585938 -5.726562 2.222656 -5.875 3.085938 -5.875 C 3.421875 -5.875 3.765625 -5.84375 4.144531 -5.792969 C 4.523438 -5.738281 4.921875 -5.664062 5.359375 -5.558594 Z M 5.359375 -5.558594 " />
</g>
<g id="f5_poly_bend-glyph-2-10">
<path d="M 0.816406 -2.234375 L 0.816406 -5.738281 L 2.664062 -5.738281 L 2.664062 -5.160156 C 2.664062 -4.847656 2.65625 -4.457031 2.65625 -3.988281 C 2.65625 -3.515625 2.65625 -3.199219 2.65625 -3.054688 C 2.65625 -2.589844 2.664062 -2.253906 2.6875 -2.054688 C 2.707031 -1.847656 2.75 -1.699219 2.8125 -1.617188 C 2.886719 -1.488281 2.980469 -1.394531 3.105469 -1.332031 C 3.222656 -1.269531 3.355469 -1.238281 3.523438 -1.238281 C 3.902344 -1.238281 4.207031 -1.386719 4.425781 -1.679688 C 4.636719 -1.972656 4.753906 -2.382812 4.753906 -2.90625 L 4.753906 -5.738281 L 6.589844 -5.738281 L 6.589844 0 L 4.753906 0 L 4.753906 -0.828125 C 4.480469 -0.492188 4.1875 -0.242188 3.871094 -0.09375 C 3.554688 0.0507812 3.222656 0.136719 2.855469 0.136719 C 2.183594 0.136719 1.679688 -0.0625 1.332031 -0.460938 C 0.984375 -0.859375 0.816406 -1.457031 0.816406 -2.234375 Z M 0.816406 -2.234375 " />
</g>
<g id="f5_poly_bend-glyph-2-11">
<path d="M 2.71875 -0.828125 L 2.71875 2.171875 L 0.882812 2.171875 L 0.882812 -5.738281 L 2.71875 -5.738281 L 2.71875 -4.898438 C 2.96875 -5.234375 3.242188 -5.476562 3.554688 -5.632812 C 3.859375 -5.792969 4.21875 -5.875 4.617188 -5.875 C 5.320312 -5.875 5.894531 -5.59375 6.359375 -5.023438 C 6.808594 -4.457031 7.039062 -3.734375 7.039062 -2.855469 C 7.039062 -1.972656 6.808594 -1.25 6.359375 -0.691406 C 5.894531 -0.136719 5.320312 0.136719 4.617188 0.136719 C 4.21875 0.136719 3.859375 0.0507812 3.554688 -0.09375 C 3.242188 -0.242188 2.96875 -0.492188 2.71875 -0.828125 Z M 3.933594 -4.542969 C 3.535156 -4.542969 3.242188 -4.394531 3.03125 -4.113281 C 2.820312 -3.820312 2.71875 -3.410156 2.71875 -2.863281 C 2.71875 -2.320312 2.820312 -1.898438 3.03125 -1.617188 C 3.242188 -1.320312 3.535156 -1.183594 3.933594 -1.183594 C 4.324219 -1.183594 4.617188 -1.320312 4.824219 -1.617188 C 5.035156 -1.898438 5.140625 -2.320312 5.140625 -2.863281 C 5.140625 -3.410156 5.035156 -3.820312 4.824219 -4.113281 C 4.617188 -4.394531 4.324219 -4.542969 3.933594 -4.542969 Z M 3.933594 -4.542969 " />
</g>
<g id="f5_poly_bend-glyph-2-12">
<path d="M 3.453125 -2.582031 C 3.0625 -2.582031 2.769531 -2.507812 2.582031 -2.382812 C 2.390625 -2.253906 2.296875 -2.066406 2.296875 -1.816406 C 2.296875 -1.585938 2.371094 -1.394531 2.527344 -1.269531 C 2.6875 -1.132812 2.90625 -1.070312 3.179688 -1.070312 C 3.523438 -1.070312 3.820312 -1.183594 4.050781 -1.4375 C 4.28125 -1.6875 4.40625 -1.992188 4.40625 -2.371094 L 4.40625 -2.582031 Z M 6.253906 -3.273438 L 6.253906 0 L 4.40625 0 L 4.40625 -0.851562 C 4.15625 -0.492188 3.882812 -0.242188 3.578125 -0.09375 C 3.261719 0.0507812 2.894531 0.136719 2.453125 0.136719 C 1.855469 0.136719 1.375 -0.03125 1.007812 -0.378906 C 0.628906 -0.714844 0.449219 -1.164062 0.449219 -1.71875 C 0.449219 -2.390625 0.683594 -2.886719 1.144531 -3.199219 C 1.605469 -3.515625 2.328125 -3.671875 3.324219 -3.671875 L 4.40625 -3.671875 L 4.40625 -3.820312 C 4.40625 -4.101562 4.289062 -4.3125 4.058594 -4.449219 C 3.828125 -4.585938 3.472656 -4.65625 2.988281 -4.65625 C 2.589844 -4.65625 2.222656 -4.617188 1.886719 -4.53125 C 1.550781 -4.449219 1.238281 -4.332031 0.953125 -4.1875 L 0.953125 -5.582031 C 1.34375 -5.675781 1.730469 -5.75 2.128906 -5.800781 C 2.527344 -5.84375 2.925781 -5.875 3.324219 -5.875 C 4.355469 -5.875 5.097656 -5.664062 5.558594 -5.257812 C 6.023438 -4.847656 6.253906 -4.1875 6.253906 -3.273438 Z M 6.253906 -3.273438 " />
</g>
<g id="f5_poly_bend-glyph-2-13">
<path d="M 0.882812 -7.972656 L 2.71875 -7.972656 L 2.71875 0 L 0.882812 0 Z M 0.882812 -7.972656 " />
</g>
<g id="f5_poly_bend-glyph-2-14">
<path d="M 5.519531 -5.558594 L 5.519531 -4.058594 C 5.265625 -4.226562 5.015625 -4.355469 4.761719 -4.4375 C 4.511719 -4.523438 4.25 -4.5625 3.988281 -4.5625 C 3.472656 -4.5625 3.074219 -4.40625 2.789062 -4.113281 C 2.496094 -3.820312 2.359375 -3.398438 2.359375 -2.863281 C 2.359375 -2.320312 2.496094 -1.898438 2.789062 -1.605469 C 3.074219 -1.3125 3.472656 -1.164062 3.988281 -1.164062 C 4.269531 -1.164062 4.542969 -1.207031 4.804688 -1.289062 C 5.058594 -1.375 5.296875 -1.5 5.519531 -1.667969 L 5.519531 -0.167969 C 5.226562 -0.0625 4.929688 0.0117188 4.636719 0.0625 C 4.34375 0.105469 4.050781 0.136719 3.757812 0.136719 C 2.71875 0.136719 1.910156 -0.125 1.320312 -0.652344 C 0.734375 -1.175781 0.449219 -1.917969 0.449219 -2.863281 C 0.449219 -3.808594 0.734375 -4.542969 1.320312 -5.078125 C 1.910156 -5.601562 2.71875 -5.875 3.757812 -5.875 C 4.050781 -5.875 4.34375 -5.84375 4.636719 -5.792969 C 4.929688 -5.738281 5.226562 -5.664062 5.519531 -5.558594 Z M 5.519531 -5.558594 " />
</g>
<g id="f5_poly_bend-glyph-2-15">
<path d="M 3.933594 -1.183594 C 4.324219 -1.183594 4.617188 -1.320312 4.824219 -1.617188 C 5.035156 -1.898438 5.140625 -2.320312 5.140625 -2.863281 C 5.140625 -3.410156 5.035156 -3.820312 4.824219 -4.113281 C 4.617188 -4.394531 4.324219 -4.542969 3.933594 -4.542969 C 3.535156 -4.542969 3.242188 -4.394531 3.03125 -4.113281 C 2.820312 -3.820312 2.71875 -3.410156 2.71875 -2.863281 C 2.71875 -2.320312 2.820312 -1.898438 3.03125 -1.617188 C 3.242188 -1.320312 3.535156 -1.183594 3.933594 -1.183594 Z M 2.71875 -4.898438 C 2.96875 -5.234375 3.242188 -5.476562 3.554688 -5.632812 C 3.859375 -5.792969 4.21875 -5.875 4.617188 -5.875 C 5.320312 -5.875 5.894531 -5.59375 6.359375 -5.023438 C 6.808594 -4.457031 7.039062 -3.734375 7.039062 -2.855469 C 7.039062 -1.972656 6.808594 -1.25 6.359375 -0.691406 C 5.894531 -0.136719 5.320312 0.136719 4.617188 0.136719 C 4.21875 0.136719 3.859375 0.0507812 3.554688 -0.09375 C 3.242188 -0.242188 2.96875 -0.492188 2.71875 -0.828125 L 2.71875 0 L 0.882812 0 L 0.882812 -7.972656 L 2.71875 -7.972656 Z M 2.71875 -4.898438 " />
</g>
<g id="f5_poly_bend-glyph-2-16">
<path d="M 1.175781 -1.984375 L 3.023438 -1.984375 L 3.023438 -0.417969 L 1.753906 1.480469 L 0.660156 1.480469 L 1.175781 -0.417969 Z M 1.175781 -5.738281 L 3.023438 -5.738281 L 3.023438 -3.757812 L 1.175781 -3.757812 Z M 1.175781 -5.738281 " />
</g>
<g id="f5_poly_bend-glyph-2-17">
<path d="M 2.214844 -7.648438 L 2.214844 -4.804688 L 0.996094 -4.804688 L 0.996094 -7.648438 Z M 2.214844 -7.648438 " />
</g>
<g id="f5_poly_bend-glyph-2-18">
<path d="M 3.453125 -2.582031 C 3.0625 -2.582031 2.769531 -2.507812 2.582031 -2.382812 C 2.390625 -2.253906 2.296875 -2.066406 2.296875 -1.816406 C 2.296875 -1.585938 2.371094 -1.394531 2.527344 -1.269531 C 2.6875 -1.132812 2.90625 -1.070312 3.179688 -1.070312 C 3.523438 -1.070312 3.820312 -1.183594 4.050781 -1.4375 C 4.28125 -1.6875 4.40625 -1.992188 4.40625 -2.371094 L 4.40625 -2.582031 Z M 6.253906 -3.273438 L 6.253906 0 L 4.40625 0 L 4.40625 -0.851562 C 4.15625 -0.492188 3.882812 -0.242188 3.578125 -0.09375 C 3.261719 0.0507812 2.894531 0.136719 2.453125 0.136719 C 1.855469 0.136719 1.375 -0.03125 1.007812 -0.378906 C 0.628906 -0.714844 0.449219 -1.164062 0.449219 -1.71875 C 0.449219 -2.390625 0.683594 -2.886719 1.144531 -3.199219 C 1.605469 -3.515625 2.328125 -3.671875 3.324219 -3.671875 L 4.40625 -3.671875 L 4.40625 -3.820312 C 4.40625 -4.101562 4.289062 -4.3125 4.058594 -4.449219 C 3.828125 -4.585938 3.472656 -4.65625 2.988281 -4.65625 C 2.589844 -4.65625 2.222656 -4.617188 1.886719 -4.53125 C 1.550781 -4.449219 1.238281 -4.332031 0.953125 -4.1875 L 0.953125 -5.582031 C 1.34375 -5.675781 1.730469 -5.75 2.128906 -5.800781 C 2.527344 -5.84375 2.925781 -5.875 3.324219 -5.875 C 4.355469 -5.875 5.097656 -5.664062 5.558594 -5.257812 C 6.023438 -4.847656 6.253906 -4.1875 6.253906 -3.273438 Z M 2.886719 -8.394531 L 4.332031 -6.460938 L 3.324219 -6.460938 L 1.4375 -8.394531 Z M 2.886719 -8.394531 " />
</g>
<g id="f5_poly_bend-glyph-3-0">
<path d="M 4.082031 -4.171875 L 4.082031 -6.835938 L 4.890625 -6.835938 L 4.890625 0 L 4.082031 0 L 4.082031 -0.738281 C 3.910156 -0.441406 3.695312 -0.226562 3.433594 -0.0898438 C 3.175781 0.046875 2.867188 0.117188 2.507812 0.117188 C 1.914062 0.117188 1.429688 -0.117188 1.050781 -0.585938 C 0.675781 -1.050781 0.496094 -1.679688 0.496094 -2.453125 C 0.496094 -3.226562 0.675781 -3.847656 1.050781 -4.324219 C 1.429688 -4.792969 1.914062 -5.035156 2.507812 -5.035156 C 2.867188 -5.035156 3.175781 -4.964844 3.433594 -4.820312 C 3.695312 -4.675781 3.910156 -4.460938 4.082031 -4.171875 Z M 1.332031 -2.453125 C 1.332031 -1.863281 1.449219 -1.394531 1.691406 -1.050781 C 1.933594 -0.710938 2.265625 -0.546875 2.699219 -0.546875 C 3.128906 -0.546875 3.460938 -0.710938 3.714844 -1.050781 C 3.957031 -1.394531 4.082031 -1.863281 4.082031 -2.453125 C 4.082031 -3.046875 3.957031 -3.507812 3.714844 -3.847656 C 3.460938 -4.191406 3.128906 -4.363281 2.699219 -4.363281 C 2.265625 -4.363281 1.933594 -4.191406 1.691406 -3.847656 C 1.449219 -3.507812 1.332031 -3.046875 1.332031 -2.453125 Z M 1.332031 -2.453125 " />
</g>
<g id="f5_poly_bend-glyph-3-1">
<path d="M 2.75 -4.351562 C 2.320312 -4.351562 1.976562 -4.179688 1.726562 -3.839844 C 1.476562 -3.5 1.347656 -3.039062 1.347656 -2.453125 C 1.347656 -1.863281 1.464844 -1.402344 1.71875 -1.0625 C 1.96875 -0.71875 2.3125 -0.558594 2.75 -0.558594 C 3.183594 -0.558594 3.523438 -0.71875 3.777344 -1.0625 C 4.027344 -1.402344 4.15625 -1.863281 4.15625 -2.453125 C 4.15625 -3.03125 4.027344 -3.5 3.777344 -3.839844 C 3.523438 -4.179688 3.183594 -4.351562 2.75 -4.351562 Z M 2.75 -5.035156 C 3.453125 -5.035156 4 -4.800781 4.40625 -4.351562 C 4.800781 -3.894531 5.007812 -3.265625 5.007812 -2.453125 C 5.007812 -1.644531 4.800781 -1.015625 4.40625 -0.566406 C 4 -0.109375 3.453125 0.117188 2.75 0.117188 C 2.042969 0.117188 1.484375 -0.109375 1.089844 -0.566406 C 0.691406 -1.015625 0.496094 -1.644531 0.496094 -2.453125 C 0.496094 -3.265625 0.691406 -3.894531 1.089844 -4.351562 C 1.484375 -4.800781 2.042969 -5.035156 2.75 -5.035156 Z M 2.75 -5.035156 " />
</g>
<g id="f5_poly_bend-glyph-3-2">
<path d="M 4.9375 -2.96875 L 4.9375 0 L 4.128906 0 L 4.128906 -2.941406 C 4.128906 -3.40625 4.027344 -3.75 3.847656 -3.984375 C 3.667969 -4.21875 3.398438 -4.335938 3.039062 -4.335938 C 2.597656 -4.335938 2.257812 -4.191406 2.003906 -3.910156 C 1.753906 -3.632812 1.628906 -3.253906 1.628906 -2.777344 L 1.628906 0 L 0.816406 0 L 0.816406 -4.917969 L 1.628906 -4.917969 L 1.628906 -4.15625 C 1.816406 -4.441406 2.042969 -4.667969 2.3125 -4.8125 C 2.570312 -4.953125 2.878906 -5.035156 3.21875 -5.035156 C 3.777344 -5.035156 4.207031 -4.855469 4.496094 -4.503906 C 4.785156 -4.15625 4.9375 -3.640625 4.9375 -2.96875 Z M 4.9375 -2.96875 " />
</g>
<g id="f5_poly_bend-glyph-3-3">
<path d="M 5.054688 -2.660156 L 5.054688 -2.265625 L 1.339844 -2.265625 C 1.375 -1.707031 1.539062 -1.277344 1.84375 -0.988281 C 2.140625 -0.703125 2.554688 -0.558594 3.09375 -0.558594 C 3.398438 -0.558594 3.703125 -0.59375 3.992188 -0.664062 C 4.28125 -0.738281 4.578125 -0.855469 4.863281 -1.015625 L 4.863281 -0.25 C 4.578125 -0.125 4.28125 -0.0273438 3.976562 0.0273438 C 3.667969 0.0820312 3.355469 0.117188 3.046875 0.117188 C 2.257812 0.117188 1.636719 -0.109375 1.179688 -0.558594 C 0.71875 -1.007812 0.496094 -1.628906 0.496094 -2.410156 C 0.496094 -3.210938 0.710938 -3.847656 1.140625 -4.324219 C 1.574219 -4.792969 2.167969 -5.035156 2.90625 -5.035156 C 3.570312 -5.035156 4.089844 -4.820312 4.476562 -4.398438 C 4.855469 -3.964844 5.054688 -3.390625 5.054688 -2.660156 Z M 4.246094 -2.894531 C 4.234375 -3.335938 4.109375 -3.6875 3.875 -3.957031 C 3.632812 -4.21875 3.308594 -4.351562 2.914062 -4.351562 C 2.464844 -4.351562 2.105469 -4.21875 1.835938 -3.964844 C 1.566406 -3.714844 1.402344 -3.355469 1.367188 -2.894531 Z M 3.472656 -7.195312 L 4.34375 -7.195312 L 2.914062 -5.539062 L 2.238281 -5.539062 Z M 3.472656 -7.195312 " />
</g>
<g id="f5_poly_bend-glyph-3-4">
<path d="M 5.054688 -2.660156 L 5.054688 -2.265625 L 1.339844 -2.265625 C 1.375 -1.707031 1.539062 -1.277344 1.84375 -0.988281 C 2.140625 -0.703125 2.554688 -0.558594 3.09375 -0.558594 C 3.398438 -0.558594 3.703125 -0.59375 3.992188 -0.664062 C 4.28125 -0.738281 4.578125 -0.855469 4.863281 -1.015625 L 4.863281 -0.25 C 4.578125 -0.125 4.28125 -0.0273438 3.976562 0.0273438 C 3.667969 0.0820312 3.355469 0.117188 3.046875 0.117188 C 2.257812 0.117188 1.636719 -0.109375 1.179688 -0.558594 C 0.71875 -1.007812 0.496094 -1.628906 0.496094 -2.410156 C 0.496094 -3.210938 0.710938 -3.847656 1.140625 -4.324219 C 1.574219 -4.792969 2.167969 -5.035156 2.90625 -5.035156 C 3.570312 -5.035156 4.089844 -4.820312 4.476562 -4.398438 C 4.855469 -3.964844 5.054688 -3.390625 5.054688 -2.660156 Z M 4.246094 -2.894531 C 4.234375 -3.335938 4.109375 -3.6875 3.875 -3.957031 C 3.632812 -4.21875 3.308594 -4.351562 2.914062 -4.351562 C 2.464844 -4.351562 2.105469 -4.21875 1.835938 -3.964844 C 1.566406 -3.714844 1.402344 -3.355469 1.367188 -2.894531 Z M 4.246094 -2.894531 " />
</g>
<g id="f5_poly_bend-glyph-3-5">
<path d="M 3.984375 -4.773438 L 3.984375 -4.011719 C 3.75 -4.117188 3.515625 -4.207031 3.273438 -4.269531 C 3.023438 -4.324219 2.769531 -4.363281 2.507812 -4.363281 C 2.105469 -4.363281 1.796875 -4.296875 1.601562 -4.171875 C 1.402344 -4.046875 1.304688 -3.867188 1.304688 -3.625 C 1.304688 -3.433594 1.375 -3.292969 1.519531 -3.183594 C 1.664062 -3.074219 1.953125 -2.96875 2.382812 -2.878906 L 2.660156 -2.816406 C 3.238281 -2.6875 3.640625 -2.507812 3.886719 -2.292969 C 4.117188 -2.066406 4.246094 -1.753906 4.246094 -1.359375 C 4.246094 -0.898438 4.066406 -0.539062 3.703125 -0.277344 C 3.34375 -0.0078125 2.839844 0.117188 2.210938 0.117188 C 1.941406 0.117188 1.671875 0.0898438 1.386719 0.046875 C 1.097656 0 0.800781 -0.0703125 0.484375 -0.179688 L 0.484375 -1.015625 C 0.78125 -0.855469 1.078125 -0.738281 1.367188 -0.664062 C 1.65625 -0.585938 1.941406 -0.546875 2.230469 -0.546875 C 2.609375 -0.546875 2.90625 -0.613281 3.113281 -0.738281 C 3.308594 -0.863281 3.417969 -1.050781 3.417969 -1.296875 C 3.417969 -1.511719 3.335938 -1.679688 3.191406 -1.796875 C 3.046875 -1.914062 2.726562 -2.03125 2.222656 -2.140625 L 1.941406 -2.203125 C 1.4375 -2.3125 1.070312 -2.472656 0.855469 -2.6875 C 0.628906 -2.90625 0.523438 -3.203125 0.523438 -3.589844 C 0.523438 -4.046875 0.683594 -4.40625 1.007812 -4.65625 C 1.332031 -4.910156 1.796875 -5.035156 2.410156 -5.035156 C 2.707031 -5.035156 2.984375 -5.007812 3.253906 -4.964844 C 3.515625 -4.917969 3.757812 -4.855469 3.984375 -4.773438 Z M 3.984375 -4.773438 " />
</g>
<g id="f5_poly_bend-glyph-3-6">
<path d="M 3.695312 -4.164062 C 3.605469 -4.21875 3.507812 -4.253906 3.398438 -4.28125 C 3.292969 -4.296875 3.175781 -4.316406 3.046875 -4.316406 C 2.589844 -4.316406 2.238281 -4.164062 1.996094 -3.867188 C 1.746094 -3.570312 1.628906 -3.148438 1.628906 -2.589844 L 1.628906 0 L 0.816406 0 L 0.816406 -4.917969 L 1.628906 -4.917969 L 1.628906 -4.15625 C 1.789062 -4.453125 2.015625 -4.675781 2.285156 -4.820312 C 2.554688 -4.964844 2.886719 -5.035156 3.28125 -5.035156 C 3.335938 -5.035156 3.398438 -5.027344 3.472656 -5.027344 C 3.535156 -5.019531 3.605469 -5.007812 3.695312 -4.992188 Z M 3.695312 -4.164062 " />
</g>
<g id="f5_poly_bend-glyph-3-7">
<path d="M 0.84375 -4.917969 L 1.65625 -4.917969 L 1.65625 0 L 0.84375 0 Z M 0.84375 -6.835938 L 1.65625 -6.835938 L 1.65625 -5.808594 L 0.84375 -5.808594 Z M 0.84375 -6.835938 " />
</g>
<g id="f5_poly_bend-glyph-3-8">
<path d="M 1.644531 -6.3125 L 1.644531 -4.917969 L 3.308594 -4.917969 L 3.308594 -4.289062 L 1.644531 -4.289062 L 1.644531 -1.617188 C 1.644531 -1.214844 1.699219 -0.953125 1.808594 -0.84375 C 1.914062 -0.726562 2.140625 -0.675781 2.480469 -0.675781 L 3.308594 -0.675781 L 3.308594 0 L 2.480469 0 C 1.851562 0 1.421875 -0.117188 1.1875 -0.351562 C 0.953125 -0.585938 0.835938 -1.007812 0.835938 -1.617188 L 0.835938 -4.289062 L 0.242188 -4.289062 L 0.242188 -4.917969 L 0.835938 -4.917969 L 0.835938 -6.3125 Z M 1.644531 -6.3125 " />
</g>
<g id="f5_poly_bend-glyph-3-9">
</g>
<g id="f5_poly_bend-glyph-3-10">
<path d="M 4.082031 -2.519531 C 4.082031 -3.09375 3.957031 -3.550781 3.722656 -3.875 C 3.480469 -4.199219 3.136719 -4.363281 2.707031 -4.363281 C 2.273438 -4.363281 1.933594 -4.199219 1.691406 -3.875 C 1.449219 -3.550781 1.332031 -3.09375 1.332031 -2.519531 C 1.332031 -1.933594 1.449219 -1.484375 1.691406 -1.160156 C 1.933594 -0.835938 2.273438 -0.675781 2.707031 -0.675781 C 3.136719 -0.675781 3.480469 -0.835938 3.722656 -1.160156 C 3.957031 -1.484375 4.082031 -1.933594 4.082031 -2.519531 Z M 4.890625 -0.613281 C 4.890625 0.214844 4.703125 0.835938 4.335938 1.25 C 3.957031 1.65625 3.390625 1.863281 2.625 1.863281 C 2.339844 1.863281 2.078125 1.835938 1.824219 1.796875 C 1.574219 1.753906 1.320312 1.691406 1.089844 1.601562 L 1.089844 0.816406 C 1.320312 0.945312 1.554688 1.035156 1.789062 1.097656 C 2.023438 1.160156 2.257812 1.195312 2.5 1.195312 C 3.023438 1.195312 3.417969 1.050781 3.6875 0.78125 C 3.949219 0.503906 4.082031 0.0898438 4.082031 -0.46875 L 4.082031 -0.863281 C 3.910156 -0.574219 3.695312 -0.359375 3.433594 -0.214844 C 3.175781 -0.0703125 2.867188 0 2.507812 0 C 1.898438 0 1.410156 -0.226562 1.042969 -0.683594 C 0.675781 -1.140625 0.496094 -1.753906 0.496094 -2.519531 C 0.496094 -3.273438 0.675781 -3.886719 1.042969 -4.34375 C 1.410156 -4.800781 1.898438 -5.035156 2.507812 -5.035156 C 2.867188 -5.035156 3.175781 -4.964844 3.433594 -4.820312 C 3.695312 -4.675781 3.910156 -4.460938 4.082031 -4.171875 L 4.082031 -4.917969 L 4.890625 -4.917969 Z M 4.890625 -0.613281 " />
</g>
<g id="f5_poly_bend-glyph-3-11">
<path d="M 2.789062 -6.824219 C 2.390625 -6.140625 2.105469 -5.476562 1.914062 -4.820312 C 1.71875 -4.164062 1.628906 -3.5 1.628906 -2.824219 C 1.628906 -2.140625 1.71875 -1.476562 1.914062 -0.816406 C 2.105469 -0.152344 2.390625 0.503906 2.789062 1.179688 L 2.085938 1.179688 C 1.644531 0.484375 1.3125 -0.179688 1.097656 -0.84375 C 0.882812 -1.511719 0.773438 -2.167969 0.773438 -2.824219 C 0.773438 -3.472656 0.882812 -4.128906 1.097656 -4.792969 C 1.3125 -5.457031 1.636719 -6.132812 2.085938 -6.824219 Z M 2.789062 -6.824219 " />
</g>
<g id="f5_poly_bend-glyph-3-12">
<path d="M 1.113281 -0.746094 L 2.5625 -0.746094 L 2.5625 -5.746094 L 0.988281 -5.429688 L 0.988281 -6.242188 L 2.554688 -6.554688 L 3.445312 -6.554688 L 3.445312 -0.746094 L 4.890625 -0.746094 L 4.890625 0 L 1.113281 0 Z M 1.113281 -0.746094 " />
</g>
<g id="f5_poly_bend-glyph-3-13">
<path d="M 0.71875 -6.824219 L 1.421875 -6.824219 C 1.851562 -6.132812 2.183594 -5.457031 2.402344 -4.792969 C 2.617188 -4.128906 2.734375 -3.472656 2.734375 -2.824219 C 2.734375 -2.167969 2.617188 -1.511719 2.402344 -0.84375 C 2.183594 -0.179688 1.851562 0.484375 1.421875 1.179688 L 0.71875 1.179688 C 1.105469 0.503906 1.394531 -0.152344 1.589844 -0.816406 C 1.78125 -1.476562 1.878906 -2.140625 1.878906 -2.824219 C 1.878906 -3.5 1.78125 -4.164062 1.589844 -4.820312 C 1.394531 -5.476562 1.105469 -6.140625 0.71875 -6.824219 Z M 0.71875 -6.824219 " />
</g>
<g id="f5_poly_bend-glyph-3-14">
<path d="M 0.765625 -1.941406 L 0.765625 -4.917969 L 1.574219 -4.917969 L 1.574219 -1.96875 C 1.574219 -1.5 1.664062 -1.160156 1.84375 -0.925781 C 2.023438 -0.691406 2.292969 -0.574219 2.660156 -0.574219 C 3.09375 -0.574219 3.445312 -0.710938 3.695312 -0.988281 C 3.949219 -1.269531 4.074219 -1.644531 4.074219 -2.132812 L 4.074219 -4.917969 L 4.882812 -4.917969 L 4.882812 0 L 4.074219 0 L 4.074219 -0.753906 C 3.875 -0.449219 3.640625 -0.234375 3.390625 -0.0898438 C 3.128906 0.046875 2.832031 0.117188 2.492188 0.117188 C 1.925781 0.117188 1.492188 -0.0546875 1.203125 -0.40625 C 0.910156 -0.746094 0.765625 -1.257812 0.765625 -1.941406 Z M 2.796875 -5.035156 Z M 2.796875 -5.035156 " />
</g>
<g id="f5_poly_bend-glyph-3-15">
<path d="M 1.628906 -0.738281 L 1.628906 1.863281 L 0.816406 1.863281 L 0.816406 -4.917969 L 1.628906 -4.917969 L 1.628906 -4.171875 C 1.789062 -4.460938 2.003906 -4.675781 2.265625 -4.820312 C 2.527344 -4.964844 2.839844 -5.035156 3.203125 -5.035156 C 3.792969 -5.035156 4.28125 -4.792969 4.65625 -4.324219 C 5.027344 -3.847656 5.214844 -3.226562 5.214844 -2.453125 C 5.214844 -1.679688 5.027344 -1.050781 4.65625 -0.585938 C 4.28125 -0.117188 3.792969 0.117188 3.203125 0.117188 C 2.839844 0.117188 2.527344 0.046875 2.265625 -0.0898438 C 2.003906 -0.226562 1.789062 -0.441406 1.628906 -0.738281 Z M 4.378906 -2.453125 C 4.378906 -3.046875 4.253906 -3.507812 4.011719 -3.847656 C 3.757812 -4.191406 3.425781 -4.363281 3.003906 -4.363281 C 2.570312 -4.363281 2.238281 -4.191406 1.996094 -3.847656 C 1.746094 -3.507812 1.628906 -3.046875 1.628906 -2.453125 C 1.628906 -1.863281 1.746094 -1.394531 1.996094 -1.050781 C 2.238281 -0.710938 2.570312 -0.546875 3.003906 -0.546875 C 3.425781 -0.546875 3.757812 -0.710938 4.011719 -1.050781 C 4.253906 -1.394531 4.378906 -1.863281 4.378906 -2.453125 Z M 4.378906 -2.453125 " />
</g>
<g id="f5_poly_bend-glyph-3-16">
<path d="M 0.84375 -6.835938 L 1.65625 -6.835938 L 1.65625 0 L 0.84375 0 Z M 0.84375 -6.835938 " />
</g>
<g id="f5_poly_bend-glyph-3-17">
<path d="M 3.652344 -3.535156 C 4.074219 -3.445312 4.40625 -3.253906 4.640625 -2.96875 C 4.875 -2.679688 5 -2.320312 5 -1.90625 C 5 -1.257812 4.773438 -0.753906 4.335938 -0.40625 C 3.886719 -0.0546875 3.253906 0.117188 2.4375 0.117188 C 2.160156 0.117188 1.871094 0.0898438 1.582031 0.0351562 C 1.296875 -0.0078125 0.988281 -0.0898438 0.683594 -0.199219 L 0.683594 -1.050781 C 0.925781 -0.910156 1.195312 -0.800781 1.492188 -0.726562 C 1.78125 -0.65625 2.085938 -0.621094 2.410156 -0.621094 C 2.96875 -0.621094 3.390625 -0.726562 3.679688 -0.945312 C 3.964844 -1.160156 4.117188 -1.484375 4.117188 -1.90625 C 4.117188 -2.285156 3.984375 -2.589844 3.714844 -2.804688 C 3.445312 -3.023438 3.066406 -3.136719 2.582031 -3.136719 L 1.816406 -3.136719 L 1.816406 -3.867188 L 2.617188 -3.867188 C 3.046875 -3.867188 3.382812 -3.949219 3.613281 -4.128906 C 3.847656 -4.296875 3.964844 -4.550781 3.964844 -4.882812 C 3.964844 -5.214844 3.839844 -5.476562 3.605469 -5.65625 C 3.363281 -5.835938 3.023438 -5.925781 2.582031 -5.925781 C 2.339844 -5.925781 2.078125 -5.898438 1.796875 -5.84375 C 1.519531 -5.792969 1.214844 -5.710938 0.882812 -5.601562 L 0.882812 -6.394531 C 1.214844 -6.484375 1.527344 -6.554688 1.824219 -6.601562 C 2.113281 -6.644531 2.390625 -6.671875 2.660156 -6.671875 C 3.328125 -6.671875 3.859375 -6.519531 4.253906 -6.214844 C 4.648438 -5.90625 4.847656 -5.496094 4.847656 -4.972656 C 4.847656 -4.613281 4.738281 -4.308594 4.53125 -4.054688 C 4.324219 -3.804688 4.027344 -3.625 3.652344 -3.535156 Z M 3.652344 -3.535156 " />
</g>
</g>
<clipPath id="f5_poly_bend-clip-0">
<path clip-rule="nonzero" d="M 0 0.0898438 L 433.28125 0.0898438 L 433.28125 249.859375 L 0 249.859375 Z M 0 0.0898438 " />
</clipPath>
<clipPath id="f5_poly_bend-clip-1">
<path clip-rule="nonzero" d="M 52 22.070312 L 55 22.070312 L 55 210.410156 L 52 210.410156 Z M 52 22.070312 " />
</clipPath>
<clipPath id="f5_poly_bend-clip-2">
<path clip-rule="nonzero" d="M 112 22.070312 L 114 22.070312 L 114 210.410156 L 112 210.410156 Z M 112 22.070312 " />
</clipPath>
<clipPath id="f5_poly_bend-clip-3">
<path clip-rule="nonzero" d="M 171 22.070312 L 173 22.070312 L 173 210.410156 L 171 210.410156 Z M 171 22.070312 " />
</clipPath>
<clipPath id="f5_poly_bend-clip-4">
<path clip-rule="nonzero" d="M 230 22.070312 L 232 22.070312 L 232 210.410156 L 230 210.410156 Z M 230 22.070312 " />
</clipPath>
<clipPath id="f5_poly_bend-clip-5">
<path clip-rule="nonzero" d="M 289 22.070312 L 291 22.070312 L 291 210.410156 L 289 210.410156 Z M 289 22.070312 " />
</clipPath>
<clipPath id="f5_poly_bend-clip-6">
<path clip-rule="nonzero" d="M 348 22.070312 L 350 22.070312 L 350 210.410156 L 348 210.410156 Z M 348 22.070312 " />
</clipPath>
<clipPath id="f5_poly_bend-clip-7">
<path clip-rule="nonzero" d="M 407 22.070312 L 409 22.070312 L 409 210.410156 L 407 210.410156 Z M 407 22.070312 " />
</clipPath>
<clipPath id="f5_poly_bend-clip-8">
<path clip-rule="nonzero" d="M 35.8125 169 L 426.085938 169 L 426.085938 171 L 35.8125 171 Z M 35.8125 169 " />
</clipPath>
<clipPath id="f5_poly_bend-clip-9">
<path clip-rule="nonzero" d="M 35.8125 124 L 426.085938 124 L 426.085938 126 L 35.8125 126 Z M 35.8125 124 " />
</clipPath>
<clipPath id="f5_poly_bend-clip-10">
<path clip-rule="nonzero" d="M 35.8125 79 L 426.085938 79 L 426.085938 81 L 35.8125 81 Z M 35.8125 79 " />
</clipPath>
<clipPath id="f5_poly_bend-clip-11">
<path clip-rule="nonzero" d="M 35.8125 33 L 426.085938 33 L 426.085938 35 L 35.8125 35 Z M 35.8125 33 " />
</clipPath>
<clipPath id="f5_poly_bend-clip-12">
<path clip-rule="nonzero" d="M 275 12 L 433.28125 12 L 433.28125 84 L 275 84 Z M 275 12 " />
</clipPath>
</defs>
<g clip-path="url(#f5_poly_bend-clip-0)">
<path fill-rule="nonzero" fill="rgb(100%, 100%, 100%)" fill-opacity="1" d="M 0 249.859375 L 433.28125 249.859375 L 433.28125 0.0898438 L 0 0.0898438 Z M 0 249.859375 " />
</g>
<path fill-rule="nonzero" fill="rgb(100%, 100%, 100%)" fill-opacity="1" d="M 35.8125 210.410156 L 426.085938 210.410156 L 426.085938 22.070312 L 35.8125 22.070312 Z M 35.8125 210.410156 " />
<g clip-path="url(#f5_poly_bend-clip-1)">
<path fill="none" stroke-width="0.8" stroke-linecap="square" stroke-linejoin="round" stroke="rgb(69.018555%, 69.018555%, 69.018555%)" stroke-opacity="0.25" stroke-miterlimit="10" d="M 53.595161 39.480238 L 53.595161 227.976166 " transform="matrix(0.999172, 0, 0, -0.999172, -0.000000000000000777, 249.857702)" />
</g>
<path fill="none" stroke-width="0.8" stroke-linecap="butt" stroke-linejoin="round" stroke="rgb(0%, 0%, 0%)" stroke-opacity="1" stroke-miterlimit="10" d="M 53.595161 39.480238 L 53.595161 35.981247 " transform="matrix(0.999172, 0, 0, -0.999172, -0.000000000000000777, 249.857702)" />
<g fill="rgb(0%, 0%, 0%)" fill-opacity="1">
<use xlink:href="#f5_poly_bend-glyph-0-0" x="50.053689" y="225.755801" />
</g>
<g clip-path="url(#f5_poly_bend-clip-2)">
<path fill="none" stroke-width="0.8" stroke-linecap="square" stroke-linejoin="round" stroke="rgb(69.018555%, 69.018555%, 69.018555%)" stroke-opacity="0.25" stroke-miterlimit="10" d="M 112.776979 39.480238 L 112.776979 227.976166 " transform="matrix(0.999172, 0, 0, -0.999172, -0.000000000000000777, 249.857702)" />
</g>
<path fill="none" stroke-width="0.8" stroke-linecap="butt" stroke-linejoin="round" stroke="rgb(0%, 0%, 0%)" stroke-opacity="1" stroke-miterlimit="10" d="M 112.776979 39.480238 L 112.776979 35.981247 " transform="matrix(0.999172, 0, 0, -0.999172, -0.000000000000000777, 249.857702)" />
<g fill="rgb(0%, 0%, 0%)" fill-opacity="1">
<use xlink:href="#f5_poly_bend-glyph-0-1" x="109.186501" y="225.755801" />
</g>
<g clip-path="url(#f5_poly_bend-clip-3)">
<path fill="none" stroke-width="0.8" stroke-linecap="square" stroke-linejoin="round" stroke="rgb(69.018555%, 69.018555%, 69.018555%)" stroke-opacity="0.25" stroke-miterlimit="10" d="M 171.958797 39.480238 L 171.958797 227.976166 " transform="matrix(0.999172, 0, 0, -0.999172, -0.000000000000000777, 249.857702)" />
</g>
<path fill="none" stroke-width="0.8" stroke-linecap="butt" stroke-linejoin="round" stroke="rgb(0%, 0%, 0%)" stroke-opacity="1" stroke-miterlimit="10" d="M 171.958797 39.480238 L 171.958797 35.981247 " transform="matrix(0.999172, 0, 0, -0.999172, -0.000000000000000777, 249.857702)" />
<g fill="rgb(0%, 0%, 0%)" fill-opacity="1">
<use xlink:href="#f5_poly_bend-glyph-0-2" x="168.319314" y="225.755801" />
</g>
<g clip-path="url(#f5_poly_bend-clip-4)">
<path fill="none" stroke-width="0.8" stroke-linecap="square" stroke-linejoin="round" stroke="rgb(69.018555%, 69.018555%, 69.018555%)" stroke-opacity="0.25" stroke-miterlimit="10" d="M 231.140615 39.480238 L 231.140615 227.976166 " transform="matrix(0.999172, 0, 0, -0.999172, -0.000000000000000777, 249.857702)" />
</g>
<path fill="none" stroke-width="0.8" stroke-linecap="butt" stroke-linejoin="round" stroke="rgb(0%, 0%, 0%)" stroke-opacity="1" stroke-miterlimit="10" d="M 231.140615 39.480238 L 231.140615 35.981247 " transform="matrix(0.999172, 0, 0, -0.999172, -0.000000000000000777, 249.857702)" />
<g fill="rgb(0%, 0%, 0%)" fill-opacity="1">
<use xlink:href="#f5_poly_bend-glyph-0-3" x="227.452126" y="225.755801" />
</g>
<g clip-path="url(#f5_poly_bend-clip-5)">
<path fill="none" stroke-width="0.8" stroke-linecap="square" stroke-linejoin="round" stroke="rgb(69.018555%, 69.018555%, 69.018555%)" stroke-opacity="0.25" stroke-miterlimit="10" d="M 290.322434 39.480238 L 290.322434 227.976166 " transform="matrix(0.999172, 0, 0, -0.999172, -0.000000000000000777, 249.857702)" />
</g>
<path fill="none" stroke-width="0.8" stroke-linecap="butt" stroke-linejoin="round" stroke="rgb(0%, 0%, 0%)" stroke-opacity="1" stroke-miterlimit="10" d="M 290.322434 39.480238 L 290.322434 35.981247 " transform="matrix(0.999172, 0, 0, -0.999172, -0.000000000000000777, 249.857702)" />
<g fill="rgb(0%, 0%, 0%)" fill-opacity="1">
<use xlink:href="#f5_poly_bend-glyph-0-4" x="286.584939" y="225.755801" />
</g>
<g clip-path="url(#f5_poly_bend-clip-6)">
<path fill="none" stroke-width="0.8" stroke-linecap="square" stroke-linejoin="round" stroke="rgb(69.018555%, 69.018555%, 69.018555%)" stroke-opacity="0.25" stroke-miterlimit="10" d="M 349.504252 39.480238 L 349.504252 227.976166 " transform="matrix(0.999172, 0, 0, -0.999172, -0.000000000000000777, 249.857702)" />
</g>
<path fill="none" stroke-width="0.8" stroke-linecap="butt" stroke-linejoin="round" stroke="rgb(0%, 0%, 0%)" stroke-opacity="1" stroke-miterlimit="10" d="M 349.504252 39.480238 L 349.504252 35.981247 " transform="matrix(0.999172, 0, 0, -0.999172, -0.000000000000000777, 249.857702)" />
<g fill="rgb(0%, 0%, 0%)" fill-opacity="1">
<use xlink:href="#f5_poly_bend-glyph-0-5" x="345.717751" y="225.755801" />
</g>
<g clip-path="url(#f5_poly_bend-clip-7)">
<path fill="none" stroke-width="0.8" stroke-linecap="square" stroke-linejoin="round" stroke="rgb(69.018555%, 69.018555%, 69.018555%)" stroke-opacity="0.25" stroke-miterlimit="10" d="M 408.68607 39.480238 L 408.68607 227.976166 " transform="matrix(0.999172, 0, 0, -0.999172, -0.000000000000000777, 249.857702)" />
</g>
<path fill="none" stroke-width="0.8" stroke-linecap="butt" stroke-linejoin="round" stroke="rgb(0%, 0%, 0%)" stroke-opacity="1" stroke-miterlimit="10" d="M 408.68607 39.480238 L 408.68607 35.981247 " transform="matrix(0.999172, 0, 0, -0.999172, -0.000000000000000777, 249.857702)" />
<g fill="rgb(0%, 0%, 0%)" fill-opacity="1">
<use xlink:href="#f5_poly_bend-glyph-0-6" x="404.850564" y="225.755801" />
</g>
<g fill="rgb(0%, 0%, 0%)" fill-opacity="1">
<use xlink:href="#f5_poly_bend-glyph-0-7" x="227.694113" y="240.384303" />
</g>
<g clip-path="url(#f5_poly_bend-clip-8)">
<path fill="none" stroke-width="0.8" stroke-linecap="square" stroke-linejoin="round" stroke="rgb(69.018555%, 69.018555%, 69.018555%)" stroke-opacity="0.25" stroke-miterlimit="10" d="M 35.842179 79.505568 L 426.439052 79.505568 " transform="matrix(0.999172, 0, 0, -0.999172, -0.000000000000000777, 249.857702)" />
</g>
<path fill="none" stroke-width="0.8" stroke-linecap="butt" stroke-linejoin="round" stroke="rgb(0%, 0%, 0%)" stroke-opacity="1" stroke-miterlimit="10" d="M 35.842179 79.505568 L 32.339279 79.505568 " transform="matrix(0.999172, 0, 0, -0.999172, -0.000000000000000777, 249.857702)" />
<g fill="rgb(0%, 0%, 0%)" fill-opacity="1">
<use xlink:href="#f5_poly_bend-glyph-0-1" x="21.82254" y="174.59318" />
</g>
<g clip-path="url(#f5_poly_bend-clip-9)">
<path fill="none" stroke-width="0.8" stroke-linecap="square" stroke-linejoin="round" stroke="rgb(69.018555%, 69.018555%, 69.018555%)" stroke-opacity="0.25" stroke-miterlimit="10" d="M 35.842179 124.968996 L 426.439052 124.968996 " transform="matrix(0.999172, 0, 0, -0.999172, -0.000000000000000777, 249.857702)" />
</g>
<path fill="none" stroke-width="0.8" stroke-linecap="butt" stroke-linejoin="round" stroke="rgb(0%, 0%, 0%)" stroke-opacity="1" stroke-miterlimit="10" d="M 35.842179 124.968996 L 32.339279 124.968996 " transform="matrix(0.999172, 0, 0, -0.999172, -0.000000000000000777, 249.857702)" />
<g fill="rgb(0%, 0%, 0%)" fill-opacity="1">
<use xlink:href="#f5_poly_bend-glyph-0-2" x="21.82254" y="129.16993" />
</g>
<g clip-path="url(#f5_poly_bend-clip-10)">
<path fill="none" stroke-width="0.8" stroke-linecap="square" stroke-linejoin="round" stroke="rgb(69.018555%, 69.018555%, 69.018555%)" stroke-opacity="0.25" stroke-miterlimit="10" d="M 35.842179 170.428514 L 426.439052 170.428514 " transform="matrix(0.999172, 0, 0, -0.999172, -0.000000000000000777, 249.857702)" />
</g>
<path fill="none" stroke-width="0.8" stroke-linecap="butt" stroke-linejoin="round" stroke="rgb(0%, 0%, 0%)" stroke-opacity="1" stroke-miterlimit="10" d="M 35.842179 170.428514 L 32.339279 170.428514 " transform="matrix(0.999172, 0, 0, -0.999172, -0.000000000000000777, 249.857702)" />
<g fill="rgb(0%, 0%, 0%)" fill-opacity="1">
<use xlink:href="#f5_poly_bend-glyph-0-3" x="21.82254" y="83.746681" />
</g>
<g clip-path="url(#f5_poly_bend-clip-11)">
<path fill="none" stroke-width="0.8" stroke-linecap="square" stroke-linejoin="round" stroke="rgb(69.018555%, 69.018555%, 69.018555%)" stroke-opacity="0.25" stroke-miterlimit="10" d="M 35.842179 215.888032 L 426.439052 215.888032 " transform="matrix(0.999172, 0, 0, -0.999172, -0.000000000000000777, 249.857702)" />
</g>
<path fill="none" stroke-width="0.8" stroke-linecap="butt" stroke-linejoin="round" stroke="rgb(0%, 0%, 0%)" stroke-opacity="1" stroke-miterlimit="10" d="M 35.842179 215.888032 L 32.339279 215.888032 " transform="matrix(0.999172, 0, 0, -0.999172, -0.000000000000000777, 249.857702)" />
<g fill="rgb(0%, 0%, 0%)" fill-opacity="1">
<use xlink:href="#f5_poly_bend-glyph-0-4" x="21.82254" y="38.323431" />
</g>
<g fill="rgb(0%, 0%, 0%)" fill-opacity="1">
<use xlink:href="#f5_poly_bend-glyph-1-0" x="15.546491" y="119.494302" />
</g>
<path fill="none" stroke-width="2.4" stroke-linecap="square" stroke-linejoin="round" stroke="rgb(75.292969%, 22.3526%, 16.862488%)" stroke-opacity="1" stroke-miterlimit="10" d="M 53.595161 198.830939 L 408.68607 74.30986 " transform="matrix(0.999172, 0, 0, -0.999172, -0.000000000000000777, 249.857702)" />
<path fill="none" stroke-width="2.4" stroke-linecap="square" stroke-linejoin="round" stroke="rgb(18.03894%, 54.508972%, 34.117126%)" stroke-opacity="1" stroke-miterlimit="10" d="M 53.595161 110.413975 L 57.164523 118.705997 L 60.733885 126.583614 L 64.303246 134.050735 L 67.868699 141.115178 L 71.438061 147.788673 L 75.007423 154.075128 L 78.576784 159.982364 L 82.146146 165.518198 L 85.715508 170.690449 L 89.280961 175.506938 L 92.850322 179.975482 L 96.419684 184.099991 L 99.989046 187.892193 L 103.558408 191.355999 L 107.12777 194.503136 L 110.697132 197.337514 L 114.262584 199.863043 L 117.831946 202.09536 L 121.401308 204.038376 L 124.97067 205.699908 L 128.540032 207.083866 L 132.109394 208.20198 L 135.674846 209.062067 L 139.244208 209.668037 L 142.81357 210.02771 L 146.382932 210.152814 L 149.952293 210.047258 L 153.521655 209.718861 L 157.087108 209.171532 L 160.65647 208.420911 L 164.225831 207.466996 L 167.795193 206.325426 L 171.364555 204.992291 L 174.933917 203.483228 L 178.503279 201.806058 L 183.855367 198.983409 L 189.207455 195.816724 L 194.559543 192.33728 L 199.915541 188.560716 L 205.267629 184.522215 L 210.619717 180.241327 L 217.758441 174.197259 L 224.897164 167.828705 L 233.818614 159.505406 L 244.52279 149.125718 L 264.152326 129.648652 L 276.643138 117.415866 L 285.564588 108.967464 L 292.703311 102.473806 L 299.838126 96.281178 L 306.976849 90.444314 L 312.328937 86.335443 L 317.681025 82.492417 L 323.037023 78.930874 L 328.389111 75.68209 L 333.741199 72.765612 L 339.097197 70.212717 L 342.662649 68.719293 L 346.232011 67.409615 L 349.801373 66.283682 L 353.370735 65.353224 L 356.940097 64.62215 L 360.509458 64.102189 L 364.074911 63.793339 L 367.644273 63.71124 L 371.213635 63.8598 L 374.782996 64.24684 L 378.352358 64.880177 L 381.92172 65.76763 L 385.491082 66.91311 L 389.056534 68.328344 L 392.625896 70.017243 L 396.195258 71.991534 L 399.76462 74.255127 L 403.333982 76.815841 L 406.903344 79.681495 L 408.68607 81.229652 " transform="matrix(0.999172, 0, 0, -0.999172, -0.000000000000000777, 249.857702)" />
<path fill="none" stroke-width="0.8" stroke-linecap="square" stroke-linejoin="miter" stroke="rgb(0%, 0%, 0%)" stroke-opacity="1" stroke-miterlimit="10" d="M 35.842179 39.480238 L 35.842179 227.976166 " transform="matrix(0.999172, 0, 0, -0.999172, -0.000000000000000777, 249.857702)" />
<path fill="none" stroke-width="0.8" stroke-linecap="square" stroke-linejoin="miter" stroke="rgb(0%, 0%, 0%)" stroke-opacity="1" stroke-miterlimit="10" d="M 426.439052 39.480238 L 426.439052 227.976166 " transform="matrix(0.999172, 0, 0, -0.999172, -0.000000000000000777, 249.857702)" />
<path fill="none" stroke-width="0.8" stroke-linecap="square" stroke-linejoin="miter" stroke="rgb(0%, 0%, 0%)" stroke-opacity="1" stroke-miterlimit="10" d="M 35.842179 39.480238 L 426.439052 39.480238 " transform="matrix(0.999172, 0, 0, -0.999172, -0.000000000000000777, 249.857702)" />
<path fill="none" stroke-width="0.8" stroke-linecap="square" stroke-linejoin="miter" stroke="rgb(0%, 0%, 0%)" stroke-opacity="1" stroke-miterlimit="10" d="M 35.842179 227.976166 L 426.439052 227.976166 " transform="matrix(0.999172, 0, 0, -0.999172, -0.000000000000000777, 249.857702)" />
<g fill="rgb(12.156677%, 22.744751%, 37.254333%)" fill-opacity="1">
<use xlink:href="#f5_poly_bend-glyph-2-0" x="54.681246" y="16.074198" />
<use xlink:href="#f5_poly_bend-glyph-2-1" x="63.200186" y="16.074198" />
<use xlink:href="#f5_poly_bend-glyph-2-2" x="70.669996" y="16.074198" />
<use xlink:href="#f5_poly_bend-glyph-2-3" x="77.783101" y="16.074198" />
<use xlink:href="#f5_poly_bend-glyph-2-4" x="81.434075" y="16.074198" />
<use xlink:href="#f5_poly_bend-glyph-2-5" x="88.94585" y="16.074198" />
<use xlink:href="#f5_poly_bend-glyph-2-6" x="94.118063" y="16.074198" />
<use xlink:href="#f5_poly_bend-glyph-2-7" x="101.32559" y="16.074198" />
<use xlink:href="#f5_poly_bend-glyph-2-8" x="104.924108" y="16.074198" />
<use xlink:href="#f5_poly_bend-glyph-2-2" x="109.938952" y="16.074198" />
<use xlink:href="#f5_poly_bend-glyph-2-3" x="117.052057" y="16.074198" />
<use xlink:href="#f5_poly_bend-glyph-2-1" x="120.703031" y="16.074198" />
<use xlink:href="#f5_poly_bend-glyph-2-2" x="128.172841" y="16.074198" />
<use xlink:href="#f5_poly_bend-glyph-2-3" x="135.285946" y="16.074198" />
<use xlink:href="#f5_poly_bend-glyph-2-9" x="138.93692" y="16.074198" />
<use xlink:href="#f5_poly_bend-glyph-2-10" x="145.179247" y="16.074198" />
<use xlink:href="#f5_poly_bend-glyph-2-7" x="152.649056" y="16.074198" />
<use xlink:href="#f5_poly_bend-glyph-2-8" x="156.247574" y="16.074198" />
<use xlink:href="#f5_poly_bend-glyph-2-3" x="161.262418" y="16.074198" />
<use xlink:href="#f5_poly_bend-glyph-2-11" x="164.913392" y="16.074198" />
<use xlink:href="#f5_poly_bend-glyph-2-12" x="172.425167" y="16.074198" />
<use xlink:href="#f5_poly_bend-glyph-2-9" x="179.506798" y="16.074198" />
<use xlink:href="#f5_poly_bend-glyph-2-3" x="185.749125" y="16.074198" />
<use xlink:href="#f5_poly_bend-glyph-2-13" x="189.400099" y="16.074198" />
<use xlink:href="#f5_poly_bend-glyph-2-12" x="192.998617" y="16.074198" />
<use xlink:href="#f5_poly_bend-glyph-2-3" x="200.080248" y="16.074198" />
<use xlink:href="#f5_poly_bend-glyph-2-14" x="203.731222" y="16.074198" />
<use xlink:href="#f5_poly_bend-glyph-2-6" x="209.952567" y="16.074198" />
<use xlink:href="#f5_poly_bend-glyph-2-10" x="217.160093" y="16.074198" />
<use xlink:href="#f5_poly_bend-glyph-2-5" x="224.629903" y="16.074198" />
<use xlink:href="#f5_poly_bend-glyph-2-15" x="229.802116" y="16.074198" />
<use xlink:href="#f5_poly_bend-glyph-2-2" x="237.313891" y="16.074198" />
<use xlink:href="#f5_poly_bend-glyph-2-3" x="244.426996" y="16.074198" />
<use xlink:href="#f5_poly_bend-glyph-2-16" x="248.077971" y="16.074198" />
<use xlink:href="#f5_poly_bend-glyph-2-3" x="252.274493" y="16.074198" />
<use xlink:href="#f5_poly_bend-glyph-2-6" x="255.925467" y="16.074198" />
<use xlink:href="#f5_poly_bend-glyph-2-1" x="263.132994" y="16.074198" />
<use xlink:href="#f5_poly_bend-glyph-2-3" x="270.602803" y="16.074198" />
<use xlink:href="#f5_poly_bend-glyph-2-13" x="274.253778" y="16.074198" />
<use xlink:href="#f5_poly_bend-glyph-2-17" x="277.852295" y="16.074198" />
<use xlink:href="#f5_poly_bend-glyph-2-12" x="281.062635" y="16.074198" />
<use xlink:href="#f5_poly_bend-glyph-2-10" x="288.144266" y="16.074198" />
<use xlink:href="#f5_poly_bend-glyph-2-8" x="295.614076" y="16.074198" />
<use xlink:href="#f5_poly_bend-glyph-2-6" x="300.62892" y="16.074198" />
<use xlink:href="#f5_poly_bend-glyph-2-5" x="307.836446" y="16.074198" />
<use xlink:href="#f5_poly_bend-glyph-2-7" x="313.00866" y="16.074198" />
<use xlink:href="#f5_poly_bend-glyph-2-9" x="316.607178" y="16.074198" />
<use xlink:href="#f5_poly_bend-glyph-2-2" x="322.849504" y="16.074198" />
<use xlink:href="#f5_poly_bend-glyph-2-3" x="329.96261" y="16.074198" />
<use xlink:href="#f5_poly_bend-glyph-2-18" x="333.613584" y="16.074198" />
<use xlink:href="#f5_poly_bend-glyph-2-3" x="340.695215" y="16.074198" />
<use xlink:href="#f5_poly_bend-glyph-2-9" x="344.346189" y="16.074198" />
<use xlink:href="#f5_poly_bend-glyph-2-2" x="350.588516" y="16.074198" />
<use xlink:href="#f5_poly_bend-glyph-2-3" x="357.701621" y="16.074198" />
<use xlink:href="#f5_poly_bend-glyph-2-14" x="361.352595" y="16.074198" />
<use xlink:href="#f5_poly_bend-glyph-2-6" x="367.57394" y="16.074198" />
<use xlink:href="#f5_poly_bend-glyph-2-10" x="374.781466" y="16.074198" />
<use xlink:href="#f5_poly_bend-glyph-2-5" x="382.251276" y="16.074198" />
<use xlink:href="#f5_poly_bend-glyph-2-15" x="387.423489" y="16.074198" />
<use xlink:href="#f5_poly_bend-glyph-2-2" x="394.935264" y="16.074198" />
<use xlink:href="#f5_poly_bend-glyph-2-5" x="402.048369" y="16.074198" />
</g>
<path fill-rule="nonzero" fill="rgb(54.116821%, 56.077576%, 59.606934%)" fill-opacity="1" stroke-width="1" stroke-linecap="butt" stroke-linejoin="round" stroke="rgb(54.116821%, 56.077576%, 59.606934%)" stroke-opacity="1" stroke-miterlimit="10" d="M -0.00000957099 -2.916466 C 0.774069 -2.916466 1.512962 -2.607617 2.06029 -2.060288 C 2.607618 -1.51296 2.916468 -0.774067 2.916468 0.0000114543 C 2.916468 0.77409 2.607618 1.512983 2.06029 2.060311 C 1.512962 2.607639 0.774069 2.916489 -0.00000957099 2.916489 C -0.774088 2.916489 -1.512981 2.607639 -2.060309 2.060311 C -2.607638 1.512983 -2.916487 0.77409 -2.916487 0.0000114543 C -2.916487 -0.774067 -2.607638 -1.51296 -2.060309 -2.060288 C -1.512981 -2.607617 -0.774088 -2.916466 -0.00000957099 -2.916466 Z M -0.00000957099 -2.916466 " transform="matrix(0.999172, 0, 0, -0.999172, 53.550791, 125.015636)" />
<path fill-rule="nonzero" fill="rgb(54.116821%, 56.077576%, 59.606934%)" fill-opacity="1" stroke-width="1" stroke-linecap="butt" stroke-linejoin="round" stroke="rgb(54.116821%, 56.077576%, 59.606934%)" stroke-opacity="1" stroke-miterlimit="10" d="M 0.000892618 -2.91373 C 0.774971 -2.91373 1.513864 -2.60879 2.061192 -2.061461 C 2.608521 -1.514133 2.91737 -0.771331 2.91737 -0.00116157 C 2.91737 0.772917 2.608521 1.515719 2.061192 2.063048 C 1.513864 2.606466 0.774971 2.915316 0.000892618 2.915316 C -0.773186 2.915316 -1.515988 2.606466 -2.063317 2.063048 C -2.606735 1.515719 -2.915585 0.772917 -2.915585 -0.00116157 C -2.915585 -0.771331 -2.606735 -1.514133 -2.063317 -2.061461 C -1.515988 -2.60879 -0.773186 -2.91373 0.000892618 -2.91373 Z M 0.000892618 -2.91373 " transform="matrix(0.999172, 0, 0, -0.999172, 80.842858, 101.619933)" />
<path fill-rule="nonzero" fill="rgb(54.116821%, 56.077576%, 59.606934%)" fill-opacity="1" stroke-width="1" stroke-linecap="butt" stroke-linejoin="round" stroke="rgb(54.116821%, 56.077576%, 59.606934%)" stroke-opacity="1" stroke-miterlimit="10" d="M 0.00179481 -2.914166 C 0.771964 -2.914166 1.514766 -2.609226 2.062095 -2.061898 C 2.609423 -1.51457 2.914363 -0.771767 2.914363 -0.00159841 C 2.914363 0.77248 2.609423 1.515283 2.062095 2.062611 C 1.514766 2.609939 0.771964 2.914879 0.00179481 2.914879 C -0.772284 2.914879 -1.515086 2.609939 -2.062414 2.062611 C -2.609743 1.515283 -2.914683 0.77248 -2.914683 -0.00159841 C -2.914683 -0.771767 -2.609743 -1.51457 -2.062414 -2.061898 C -1.515086 -2.609226 -0.772284 -2.914166 0.00179481 -2.914166 Z M 0.00179481 -2.914166 " transform="matrix(0.999172, 0, 0, -0.999172, 108.134925, 65.060903)" />
<path fill-rule="nonzero" fill="rgb(54.116821%, 56.077576%, 59.606934%)" fill-opacity="1" stroke-width="1" stroke-linecap="butt" stroke-linejoin="round" stroke="rgb(54.116821%, 56.077576%, 59.606934%)" stroke-opacity="1" stroke-miterlimit="10" d="M -0.00121249 -2.916721 C 0.772866 -2.916721 1.515669 -2.607871 2.062997 -2.060543 C 2.606416 -1.513215 2.915265 -0.774322 2.915265 -0.000243072 C 2.915265 0.773835 2.606416 1.516638 2.062997 2.060057 C 1.515669 2.607385 0.772866 2.916234 -0.00121249 2.916234 C -0.771381 2.916234 -1.514184 2.607385 -2.061512 2.060057 C -2.60884 1.516638 -2.913781 0.773835 -2.913781 -0.000243072 C -2.913781 -0.774322 -2.60884 -1.513215 -2.061512 -2.060543 C -1.514184 -2.607871 -0.771381 -2.916721 -0.00121249 -2.916721 Z M -0.00121249 -2.916721 " transform="matrix(0.999172, 0, 0, -0.999172, 135.426993, 42.253663)" />
<path fill-rule="nonzero" fill="rgb(54.116821%, 56.077576%, 59.606934%)" fill-opacity="1" stroke-width="1" stroke-linecap="butt" stroke-linejoin="round" stroke="rgb(54.116821%, 56.077576%, 59.606934%)" stroke-opacity="1" stroke-miterlimit="10" d="M -0.000310301 -2.915248 C 0.773768 -2.915248 1.516571 -2.606398 2.059989 -2.06298 C 2.607318 -1.515652 2.916167 -0.772849 2.916167 0.00122956 C 2.916167 0.771399 2.607318 1.514201 2.059989 2.061529 C 1.516571 2.608858 0.773768 2.913798 -0.000310301 2.913798 C -0.774389 2.913798 -1.513282 2.608858 -2.06061 2.061529 C -2.607938 1.514201 -2.916788 0.771399 -2.916788 0.00122956 C -2.916788 -0.772849 -2.607938 -1.515652 -2.06061 -2.06298 C -1.513282 -2.606398 -0.774389 -2.915248 -0.000310301 -2.915248 Z M -0.000310301 -2.915248 " transform="matrix(0.999172, 0, 0, -0.999172, 162.71906, 30.630135)" />
<path fill-rule="nonzero" fill="rgb(54.116821%, 56.077576%, 59.606934%)" fill-opacity="1" stroke-width="1" stroke-linecap="butt" stroke-linejoin="round" stroke="rgb(54.116821%, 56.077576%, 59.606934%)" stroke-opacity="1" stroke-miterlimit="10" d="M 0.000591889 -2.916456 C 0.77467 -2.916456 1.513563 -2.607607 2.060892 -2.060278 C 2.60822 -1.51295 2.917069 -0.774057 2.917069 0.0000213608 C 2.917069 0.7741 2.60822 1.512993 2.060892 2.060321 C 1.513563 2.607649 0.77467 2.916499 0.000591889 2.916499 C -0.773487 2.916499 -1.516289 2.607649 -2.059708 2.060321 C -2.607036 1.512993 -2.915886 0.7741 -2.915886 0.0000213608 C -2.915886 -0.774057 -2.607036 -1.51295 -2.059708 -2.060278 C -1.516289 -2.607607 -0.773487 -2.916456 0.000591889 -2.916456 Z M 0.000591889 -2.916456 " transform="matrix(0.999172, 0, 0, -0.999172, 190.011127, 51.097678)" />
<path fill-rule="nonzero" fill="rgb(54.116821%, 56.077576%, 59.606934%)" fill-opacity="1" stroke-width="1" stroke-linecap="butt" stroke-linejoin="round" stroke="rgb(54.116821%, 56.077576%, 59.606934%)" stroke-opacity="1" stroke-miterlimit="10" d="M 0.00149408 -2.915723 C 0.771663 -2.915723 1.514466 -2.606874 2.061794 -2.063455 C 2.609122 -1.516127 2.914062 -0.773324 2.914062 0.000754393 C 2.914062 0.774833 2.609122 1.513726 2.061794 2.061054 C 1.514466 2.608382 0.771663 2.917232 0.00149408 2.917232 C -0.772584 2.917232 -1.515387 2.608382 -2.062715 2.061054 C -2.610043 1.513726 -2.914983 0.774833 -2.914983 0.000754393 C -2.914983 -0.773324 -2.610043 -1.516127 -2.062715 -2.063455 C -1.515387 -2.606874 -0.772584 -2.915723 0.00149408 -2.915723 Z M 0.00149408 -2.915723 " transform="matrix(0.999172, 0, 0, -0.999172, 217.303195, 78.242941)" />
<path fill-rule="nonzero" fill="rgb(54.116821%, 56.077576%, 59.606934%)" fill-opacity="1" stroke-width="1" stroke-linecap="butt" stroke-linejoin="round" stroke="rgb(54.116821%, 56.077576%, 59.606934%)" stroke-opacity="1" stroke-miterlimit="10" d="M -0.00151322 -2.916811 C 0.772565 -2.916811 1.515368 -2.607961 2.062696 -2.060633 C 2.610024 -1.513305 2.914964 -0.774412 2.914964 -0.000333365 C 2.914964 0.773745 2.610024 1.516548 2.062696 2.059966 C 1.515368 2.607295 0.772565 2.916144 -0.00151322 2.916144 C -0.771682 2.916144 -1.514485 2.607295 -2.061813 2.059966 C -2.609141 1.516548 -2.914081 0.773745 -2.914081 -0.000333365 C -2.914081 -0.774412 -2.609141 -1.513305 -2.061813 -2.060633 C -1.514485 -2.607961 -0.771682 -2.916811 -0.00151322 -2.916811 Z M -0.00151322 -2.916811 " transform="matrix(0.999172, 0, 0, -0.999172, 244.595262, 107.976229)" />
<path fill-rule="nonzero" fill="rgb(54.116821%, 56.077576%, 59.606934%)" fill-opacity="1" stroke-width="1" stroke-linecap="butt" stroke-linejoin="round" stroke="rgb(54.116821%, 56.077576%, 59.606934%)" stroke-opacity="1" stroke-miterlimit="10" d="M -0.000611031 -2.915994 C 0.773467 -2.915994 1.51627 -2.607145 2.059689 -2.059816 C 2.607017 -1.516398 2.915866 -0.773595 2.915866 0.000483377 C 2.915866 0.774562 2.607017 1.513455 2.059689 2.060783 C 1.51627 2.608111 0.773467 2.916961 -0.000611031 2.916961 C -0.77469 2.916961 -1.513583 2.608111 -2.060911 2.060783 C -2.608239 1.513455 -2.917089 0.774562 -2.917089 0.000483377 C -2.917089 -0.773595 -2.608239 -1.516398 -2.060911 -2.059816 C -1.513583 -2.607145 -0.77469 -2.915994 -0.000611031 -2.915994 Z M -0.000611031 -2.915994 " transform="matrix(0.999172, 0, 0, -0.999172, 271.887329, 120.52392)" />
<path fill-rule="nonzero" fill="rgb(54.116821%, 56.077576%, 59.606934%)" fill-opacity="1" stroke-width="1" stroke-linecap="butt" stroke-linejoin="round" stroke="rgb(54.116821%, 56.077576%, 59.606934%)" stroke-opacity="1" stroke-miterlimit="10" d="M 0.000291159 -2.914499 C 0.77437 -2.914499 1.513263 -2.609559 2.060591 -2.062231 C 2.607919 -1.514903 2.916769 -0.7721 2.916769 -0.00193123 C 2.916769 0.772147 2.607919 1.51495 2.060591 2.062278 C 1.513263 2.609606 0.77437 2.914546 0.000291159 2.914546 C -0.773787 2.914546 -1.51659 2.609606 -2.060009 2.062278 C -2.607337 1.51495 -2.916186 0.772147 -2.916186 -0.00193123 C -2.916186 -0.7721 -2.607337 -1.514903 -2.060009 -2.062231 C -1.51659 -2.609559 -0.773787 -2.914499 0.000291159 -2.914499 Z M 0.000291159 -2.914499 " transform="matrix(0.999172, 0, 0, -0.999172, 299.179397, 138.193383)" />
<path fill-rule="nonzero" fill="rgb(54.116821%, 56.077576%, 59.606934%)" fill-opacity="1" stroke-width="1" stroke-linecap="butt" stroke-linejoin="round" stroke="rgb(54.116821%, 56.077576%, 59.606934%)" stroke-opacity="1" stroke-miterlimit="10" d="M 0.00119335 -2.914022 C 0.771362 -2.914022 1.514165 -2.609082 2.061493 -2.061753 C 2.608821 -1.514425 2.913761 -0.771623 2.913761 -0.00145363 C 2.913761 0.772625 2.608821 1.515427 2.061493 2.062756 C 1.514165 2.610084 0.771362 2.915024 0.00119335 2.915024 C -0.772885 2.915024 -1.515688 2.610084 -2.063016 2.062756 C -2.606435 1.515427 -2.915284 0.772625 -2.915284 -0.00145363 C -2.915284 -0.771623 -2.606435 -1.514425 -2.063016 -2.061753 C -1.515688 -2.609082 -0.772885 -2.914022 0.00119335 -2.914022 Z M 0.00119335 -2.914022 " transform="matrix(0.999172, 0, 0, -0.999172, 326.471464, 174.44386)" />
<path fill-rule="nonzero" fill="rgb(54.116821%, 56.077576%, 59.606934%)" fill-opacity="1" stroke-width="1" stroke-linecap="butt" stroke-linejoin="round" stroke="rgb(54.116821%, 56.077576%, 59.606934%)" stroke-opacity="1" stroke-miterlimit="10" d="M -0.00181395 -2.915894 C 0.772265 -2.915894 1.515067 -2.607044 2.062395 -2.059716 C 2.609724 -1.516297 2.914664 -0.773495 2.914664 0.00058386 C 2.914664 0.774662 2.609724 1.513555 2.062395 2.060884 C 1.515067 2.608212 0.772265 2.917061 -0.00181395 2.917061 C -0.771983 2.917061 -1.514786 2.608212 -2.062114 2.060884 C -2.609442 1.513555 -2.914382 0.774662 -2.914382 0.00058386 C -2.914382 -0.773495 -2.609442 -1.516297 -2.062114 -2.059716 C -1.514786 -2.607044 -0.771983 -2.915894 -0.00181395 -2.915894 Z M -0.00181395 -2.915894 " transform="matrix(0.999172, 0, 0, -0.999172, 353.763531, 201.84824)" />
<path fill-rule="nonzero" fill="rgb(54.116821%, 56.077576%, 59.606934%)" fill-opacity="1" stroke-width="1" stroke-linecap="butt" stroke-linejoin="round" stroke="rgb(54.116821%, 56.077576%, 59.606934%)" stroke-opacity="1" stroke-miterlimit="10" d="M -0.000911761 -2.913768 C 0.773167 -2.913768 1.515969 -2.608828 2.063298 -2.0615 C 2.606716 -1.514171 2.915566 -0.771369 2.915566 -0.00119983 C 2.915566 0.772879 2.606716 1.515681 2.063298 2.063009 C 1.515969 2.606428 0.773167 2.915278 -0.000911761 2.915278 C -0.77499 2.915278 -1.513883 2.606428 -2.061212 2.063009 C -2.60854 1.515681 -2.917389 0.772879 -2.917389 -0.00119983 C -2.917389 -0.771369 -2.60854 -1.514171 -2.061212 -2.0615 C -1.513883 -2.608828 -0.77499 -2.913768 -0.000911761 -2.913768 Z M -0.000911761 -2.913768 " transform="matrix(0.999172, 0, 0, -0.999172, 381.055599, 196.79177)" />
<path fill-rule="nonzero" fill="rgb(54.116821%, 56.077576%, 59.606934%)" fill-opacity="1" stroke-width="1" stroke-linecap="butt" stroke-linejoin="round" stroke="rgb(54.116821%, 56.077576%, 59.606934%)" stroke-opacity="1" stroke-miterlimit="10" d="M -0.00000957118 -2.916926 C 0.774069 -2.916926 1.512962 -2.608076 2.06029 -2.060748 C 2.607618 -1.51342 2.916468 -0.774527 2.916468 -0.000448436 C 2.916468 0.77363 2.607618 1.516433 2.06029 2.059851 C 1.512962 2.60718 0.774069 2.916029 -0.00000957118 2.916029 C -0.774088 2.916029 -1.512981 2.60718 -2.060309 2.059851 C -2.607638 1.516433 -2.916487 0.77363 -2.916487 -0.000448436 C -2.916487 -0.774527 -2.607638 -1.51342 -2.060309 -2.060748 C -1.512981 -2.608076 -0.774088 -2.916926 -0.00000957118 -2.916926 Z M -0.00000957118 -2.916926 " transform="matrix(0.999172, 0, 0, -0.999172, 408.347666, 153.901896)" />
<path fill-rule="nonzero" fill="rgb(100%, 100%, 100%)" fill-opacity="0.8" d="M 291.894531 69.605469 L 419.792969 69.605469 C 420.992188 69.605469 421.589844 69.003906 421.589844 67.804688 L 421.589844 28.363281 C 421.589844 27.164062 420.992188 26.566406 419.792969 26.566406 L 291.894531 26.566406 C 290.695312 26.566406 290.097656 27.164062 290.097656 28.363281 L 290.097656 67.804688 C 290.097656 69.003906 290.695312 69.605469 291.894531 69.605469 Z M 291.894531 69.605469 " />
<g clip-path="url(#f5_poly_bend-clip-12)">
<path fill="none" stroke-width="1" stroke-linecap="butt" stroke-linejoin="miter" stroke="rgb(79.998779%, 79.998779%, 79.998779%)" stroke-opacity="0.8" stroke-miterlimit="10" d="M 292.136436 180.401616 L 420.140868 180.401616 C 421.34108 180.401616 421.939232 181.003677 421.939232 182.203889 L 421.939232 221.677982 C 421.939232 222.878195 421.34108 223.476346 420.140868 223.476346 L 292.136436 223.476346 C 290.936223 223.476346 290.338072 222.878195 290.338072 221.677982 L 290.338072 182.203889 C 290.338072 181.003677 290.936223 180.401616 292.136436 180.401616 Z M 292.136436 180.401616 " transform="matrix(0.999172, 0, 0, -0.999172, -0.000000000000000777, 249.857702)" />
</g>
<path fill-rule="nonzero" fill="rgb(54.116821%, 56.077576%, 59.606934%)" fill-opacity="1" stroke-width="1" stroke-linecap="butt" stroke-linejoin="round" stroke="rgb(54.116821%, 56.077576%, 59.606934%)" stroke-opacity="1" stroke-miterlimit="10" d="M 302.938349 212.478959 C 303.712427 212.478959 304.451321 212.787808 304.998649 213.335136 C 305.545977 213.882465 305.854827 214.621358 305.854827 215.395436 C 305.854827 216.169515 305.545977 216.912317 304.998649 217.455736 C 304.451321 218.003064 303.712427 218.311914 302.938349 218.311914 C 302.164271 218.311914 301.421468 218.003064 300.87414 217.455736 C 300.330721 216.912317 300.021872 216.169515 300.021872 215.395436 C 300.021872 214.621358 300.330721 213.882465 300.87414 213.335136 C 301.421468 212.787808 302.164271 212.478959 302.938349 212.478959 Z M 302.938349 212.478959 " transform="matrix(0.999172, 0, 0, -0.999172, -0.000000000000000777, 249.857702)" />
<g fill="rgb(0%, 0%, 0%)" fill-opacity="1">
<use xlink:href="#f5_poly_bend-glyph-3-0" x="318.873237" y="37.000605" />
<use xlink:href="#f5_poly_bend-glyph-3-1" x="324.583505" y="37.000605" />
<use xlink:href="#f5_poly_bend-glyph-3-2" x="330.086944" y="37.000605" />
<use xlink:href="#f5_poly_bend-glyph-3-2" x="335.788219" y="37.000605" />
<use xlink:href="#f5_poly_bend-glyph-3-3" x="341.489494" y="37.000605" />
<use xlink:href="#f5_poly_bend-glyph-3-4" x="347.019911" y="37.000605" />
<use xlink:href="#f5_poly_bend-glyph-3-5" x="352.550328" y="37.000605" />
</g>
<path fill="none" stroke-width="2.4" stroke-linecap="square" stroke-linejoin="round" stroke="rgb(75.292969%, 22.3526%, 16.862488%)" stroke-opacity="1" stroke-miterlimit="10" d="M 293.938709 202.603594 L 311.937989 202.603594 " transform="matrix(0.999172, 0, 0, -0.999172, -0.000000000000000777, 249.857702)" />
<g fill="rgb(0%, 0%, 0%)" fill-opacity="1">
<use xlink:href="#f5_poly_bend-glyph-3-0" x="318.873237" y="50.567487" />
<use xlink:href="#f5_poly_bend-glyph-3-6" x="324.583505" y="50.567487" />
</g>
<g fill="rgb(0%, 0%, 0%)" fill-opacity="1">
<use xlink:href="#f5_poly_bend-glyph-3-1" x="328.092097" y="50.567487" />
<use xlink:href="#f5_poly_bend-glyph-3-7" x="333.595536" y="50.567487" />
<use xlink:href="#f5_poly_bend-glyph-3-8" x="336.095465" y="50.567487" />
<use xlink:href="#f5_poly_bend-glyph-3-4" x="339.620543" y="50.567487" />
<use xlink:href="#f5_poly_bend-glyph-3-9" x="345.15096" y="50.567487" />
<use xlink:href="#f5_poly_bend-glyph-3-6" x="348.01059" y="50.567487" />
<use xlink:href="#f5_poly_bend-glyph-3-7" x="351.706527" y="50.567487" />
<use xlink:href="#f5_poly_bend-glyph-3-10" x="354.206455" y="50.567487" />
<use xlink:href="#f5_poly_bend-glyph-3-7" x="359.916723" y="50.567487" />
<use xlink:href="#f5_poly_bend-glyph-3-0" x="362.416651" y="50.567487" />
<use xlink:href="#f5_poly_bend-glyph-3-4" x="368.126919" y="50.567487" />
<use xlink:href="#f5_poly_bend-glyph-3-9" x="373.657336" y="50.567487" />
<use xlink:href="#f5_poly_bend-glyph-3-11" x="376.516966" y="50.567487" />
<use xlink:href="#f5_poly_bend-glyph-3-0" x="380.024059" y="50.567487" />
<use xlink:href="#f5_poly_bend-glyph-3-4" x="385.734327" y="50.567487" />
<use xlink:href="#f5_poly_bend-glyph-3-10" x="391.264744" y="50.567487" />
<use xlink:href="#f5_poly_bend-glyph-3-6" x="396.975011" y="50.567487" />
</g>
<g fill="rgb(0%, 0%, 0%)" fill-opacity="1">
<use xlink:href="#f5_poly_bend-glyph-3-3" x="400.483604" y="50.567487" />
<use xlink:href="#f5_poly_bend-glyph-3-9" x="406.01402" y="50.567487" />
<use xlink:href="#f5_poly_bend-glyph-3-12" x="408.87365" y="50.567487" />
<use xlink:href="#f5_poly_bend-glyph-3-13" x="414.592911" y="50.567487" />
</g>
<path fill="none" stroke-width="2.4" stroke-linecap="square" stroke-linejoin="round" stroke="rgb(18.03894%, 54.508972%, 34.117126%)" stroke-opacity="1" stroke-miterlimit="10" d="M 293.938709 189.025945 L 311.937989 189.025945 " transform="matrix(0.999172, 0, 0, -0.999172, -0.000000000000000777, 249.857702)" />
<g fill="rgb(0%, 0%, 0%)" fill-opacity="1">
<use xlink:href="#f5_poly_bend-glyph-3-8" x="318.873237" y="64.134369" />
<use xlink:href="#f5_poly_bend-glyph-3-7" x="322.398316" y="64.134369" />
<use xlink:href="#f5_poly_bend-glyph-3-10" x="324.898244" y="64.134369" />
<use xlink:href="#f5_poly_bend-glyph-3-4" x="330.608512" y="64.134369" />
<use xlink:href="#f5_poly_bend-glyph-3-9" x="336.138928" y="64.134369" />
<use xlink:href="#f5_poly_bend-glyph-3-5" x="338.998559" y="64.134369" />
<use xlink:href="#f5_poly_bend-glyph-3-1" x="343.683676" y="64.134369" />
<use xlink:href="#f5_poly_bend-glyph-3-14" x="349.187115" y="64.134369" />
<use xlink:href="#f5_poly_bend-glyph-3-15" x="354.88839" y="64.134369" />
<use xlink:href="#f5_poly_bend-glyph-3-16" x="360.598658" y="64.134369" />
<use xlink:href="#f5_poly_bend-glyph-3-4" x="363.098586" y="64.134369" />
<use xlink:href="#f5_poly_bend-glyph-3-9" x="368.629003" y="64.134369" />
<use xlink:href="#f5_poly_bend-glyph-3-11" x="371.488633" y="64.134369" />
<use xlink:href="#f5_poly_bend-glyph-3-0" x="374.995726" y="64.134369" />
<use xlink:href="#f5_poly_bend-glyph-3-4" x="380.705994" y="64.134369" />
<use xlink:href="#f5_poly_bend-glyph-3-10" x="386.236411" y="64.134369" />
<use xlink:href="#f5_poly_bend-glyph-3-6" x="391.946678" y="64.134369" />
</g>
<g fill="rgb(0%, 0%, 0%)" fill-opacity="1">
<use xlink:href="#f5_poly_bend-glyph-3-3" x="395.455271" y="64.134369" />
<use xlink:href="#f5_poly_bend-glyph-3-9" x="400.985687" y="64.134369" />
<use xlink:href="#f5_poly_bend-glyph-3-17" x="403.845318" y="64.134369" />
<use xlink:href="#f5_poly_bend-glyph-3-13" x="409.564578" y="64.134369" />
</g>
</svg>
