<svg xmlns="http://www.w3.org/2000/svg" xmlns:xlink="http://www.w3.org/1999/xlink" width="550.08pt" height="230.374625pt" viewBox="0 0 550.08 230.374625">
<defs>
<g>
<g id="f8_bagging-glyph-0-0">
<path d="M 4.527344 -4.628906 L 4.527344 -7.578125 L 5.425781 -7.578125 L 5.425781 0 L 4.527344 0 L 4.527344 -0.816406 C 4.339844 -0.488281 4.097656 -0.25 3.808594 -0.101562 C 3.519531 0.0507812 3.179688 0.128906 2.78125 0.128906 C 2.125 0.128906 1.585938 -0.128906 1.167969 -0.648438 C 0.746094 -1.167969 0.546875 -1.863281 0.546875 -2.722656 C 0.546875 -3.582031 0.746094 -4.269531 1.167969 -4.796875 C 1.585938 -5.316406 2.125 -5.585938 2.78125 -5.585938 C 3.179688 -5.585938 3.519531 -5.503906 3.808594 -5.34375 C 4.097656 -5.1875 4.339844 -4.945312 4.527344 -4.628906 Z M 1.476562 -2.722656 C 1.476562 -2.0625 1.605469 -1.546875 1.875 -1.167969 C 2.144531 -0.789062 2.511719 -0.609375 2.992188 -0.609375 C 3.46875 -0.609375 3.839844 -0.789062 4.117188 -1.167969 C 4.386719 -1.546875 4.527344 -2.0625 4.527344 -2.722656 C 4.527344 -3.378906 4.386719 -3.890625 4.117188 -4.269531 C 3.839844 -4.648438 3.46875 -4.835938 2.992188 -4.835938 C 2.511719 -4.835938 2.144531 -4.648438 1.875 -4.269531 C 1.605469 -3.890625 1.476562 -3.378906 1.476562 -2.722656 Z M 1.476562 -2.722656 " />
</g>
<g id="f8_bagging-glyph-0-1">
<path d="M 3.050781 -4.828125 C 2.574219 -4.828125 2.195312 -4.636719 1.914062 -4.257812 C 1.636719 -3.878906 1.496094 -3.371094 1.496094 -2.722656 C 1.496094 -2.0625 1.625 -1.554688 1.90625 -1.175781 C 2.183594 -0.796875 2.5625 -0.617188 3.050781 -0.617188 C 3.53125 -0.617188 3.910156 -0.796875 4.1875 -1.175781 C 4.46875 -1.554688 4.609375 -2.0625 4.609375 -2.722656 C 4.609375 -3.359375 4.46875 -3.878906 4.1875 -4.257812 C 3.910156 -4.636719 3.53125 -4.828125 3.050781 -4.828125 Z M 3.050781 -5.585938 C 3.828125 -5.585938 4.4375 -5.324219 4.886719 -4.828125 C 5.324219 -4.316406 5.554688 -3.621094 5.554688 -2.722656 C 5.554688 -1.824219 5.324219 -1.125 4.886719 -0.628906 C 4.4375 -0.121094 3.828125 0.128906 3.050781 0.128906 C 2.265625 0.128906 1.644531 -0.121094 1.207031 -0.628906 C 0.769531 -1.125 0.546875 -1.824219 0.546875 -2.722656 C 0.546875 -3.621094 0.769531 -4.316406 1.207031 -4.828125 C 1.644531 -5.324219 2.265625 -5.585938 3.050781 -5.585938 Z M 3.050781 -5.585938 " />
</g>
<g id="f8_bagging-glyph-0-2">
<path d="M 5.476562 -3.292969 L 5.476562 0 L 4.578125 0 L 4.578125 -3.261719 C 4.578125 -3.78125 4.46875 -4.160156 4.269531 -4.417969 C 4.070312 -4.675781 3.769531 -4.808594 3.371094 -4.808594 C 2.882812 -4.808594 2.503906 -4.648438 2.222656 -4.339844 C 1.945312 -4.027344 1.804688 -3.609375 1.804688 -3.082031 L 1.804688 0 L 0.90625 0 L 0.90625 -5.457031 L 1.804688 -5.457031 L 1.804688 -4.609375 C 2.015625 -4.925781 2.265625 -5.175781 2.5625 -5.335938 C 2.851562 -5.496094 3.191406 -5.585938 3.570312 -5.585938 C 4.1875 -5.585938 4.667969 -5.386719 4.988281 -4.996094 C 5.304688 -4.609375 5.476562 -4.039062 5.476562 -3.292969 Z M 5.476562 -3.292969 " />
</g>
<g id="f8_bagging-glyph-0-3">
<path d="M 5.605469 -2.953125 L 5.605469 -2.511719 L 1.484375 -2.511719 C 1.527344 -1.894531 1.707031 -1.417969 2.042969 -1.097656 C 2.375 -0.777344 2.832031 -0.617188 3.429688 -0.617188 C 3.769531 -0.617188 4.109375 -0.660156 4.429688 -0.738281 C 4.746094 -0.816406 5.078125 -0.949219 5.394531 -1.125 L 5.394531 -0.277344 C 5.078125 -0.140625 4.746094 -0.03125 4.40625 0.03125 C 4.070312 0.0898438 3.71875 0.128906 3.378906 0.128906 C 2.503906 0.128906 1.816406 -0.121094 1.304688 -0.617188 C 0.796875 -1.117188 0.546875 -1.804688 0.546875 -2.671875 C 0.546875 -3.558594 0.789062 -4.269531 1.265625 -4.796875 C 1.746094 -5.316406 2.402344 -5.585938 3.222656 -5.585938 C 3.960938 -5.585938 4.539062 -5.34375 4.964844 -4.875 C 5.386719 -4.398438 5.605469 -3.761719 5.605469 -2.953125 Z M 4.707031 -3.210938 C 4.695312 -3.699219 4.558594 -4.089844 4.296875 -4.386719 C 4.027344 -4.675781 3.671875 -4.828125 3.230469 -4.828125 C 2.734375 -4.828125 2.332031 -4.675781 2.035156 -4.398438 C 1.734375 -4.117188 1.554688 -3.71875 1.515625 -3.210938 Z M 3.847656 -7.976562 L 4.816406 -7.976562 L 3.230469 -6.144531 L 2.484375 -6.144531 Z M 3.847656 -7.976562 " />
</g>
<g id="f8_bagging-glyph-0-4">
<path d="M 5.605469 -2.953125 L 5.605469 -2.511719 L 1.484375 -2.511719 C 1.527344 -1.894531 1.707031 -1.417969 2.042969 -1.097656 C 2.375 -0.777344 2.832031 -0.617188 3.429688 -0.617188 C 3.769531 -0.617188 4.109375 -0.660156 4.429688 -0.738281 C 4.746094 -0.816406 5.078125 -0.949219 5.394531 -1.125 L 5.394531 -0.277344 C 5.078125 -0.140625 4.746094 -0.03125 4.40625 0.03125 C 4.070312 0.0898438 3.71875 0.128906 3.378906 0.128906 C 2.503906 0.128906 1.816406 -0.121094 1.304688 -0.617188 C 0.796875 -1.117188 0.546875 -1.804688 0.546875 -2.671875 C 0.546875 -3.558594 0.789062 -4.269531 1.265625 -4.796875 C 1.746094 -5.316406 2.402344 -5.585938 3.222656 -5.585938 C 3.960938 -5.585938 4.539062 -5.34375 4.964844 -4.875 C 5.386719 -4.398438 5.605469 -3.761719 5.605469 -2.953125 Z M 4.707031 -3.210938 C 4.695312 -3.699219 4.558594 -4.089844 4.296875 -4.386719 C 4.027344 -4.675781 3.671875 -4.828125 3.230469 -4.828125 C 2.734375 -4.828125 2.332031 -4.675781 2.035156 -4.398438 C 1.734375 -4.117188 1.554688 -3.71875 1.515625 -3.210938 Z M 4.707031 -3.210938 " />
</g>
<g id="f8_bagging-glyph-0-5">
<path d="M 4.417969 -5.296875 L 4.417969 -4.449219 C 4.160156 -4.566406 3.898438 -4.667969 3.628906 -4.738281 C 3.351562 -4.796875 3.070312 -4.835938 2.78125 -4.835938 C 2.332031 -4.835938 1.996094 -4.765625 1.773438 -4.628906 C 1.554688 -4.488281 1.445312 -4.289062 1.445312 -4.019531 C 1.445312 -3.808594 1.527344 -3.648438 1.683594 -3.53125 C 1.84375 -3.410156 2.164062 -3.292969 2.644531 -3.191406 L 2.953125 -3.121094 C 3.589844 -2.980469 4.039062 -2.78125 4.308594 -2.542969 C 4.566406 -2.292969 4.707031 -1.945312 4.707031 -1.507812 C 4.707031 -0.996094 4.507812 -0.597656 4.109375 -0.308594 C 3.710938 -0.0117188 3.152344 0.128906 2.453125 0.128906 C 2.152344 0.128906 1.855469 0.101562 1.535156 0.0507812 C 1.214844 0 0.886719 -0.078125 0.539062 -0.199219 L 0.539062 -1.125 C 0.867188 -0.949219 1.195312 -0.816406 1.515625 -0.738281 C 1.835938 -0.648438 2.152344 -0.609375 2.472656 -0.609375 C 2.890625 -0.609375 3.222656 -0.679688 3.449219 -0.816406 C 3.671875 -0.957031 3.789062 -1.167969 3.789062 -1.4375 C 3.789062 -1.675781 3.699219 -1.863281 3.539062 -1.996094 C 3.378906 -2.125 3.023438 -2.253906 2.464844 -2.375 L 2.152344 -2.445312 C 1.59375 -2.5625 1.1875 -2.742188 0.949219 -2.980469 C 0.699219 -3.222656 0.578125 -3.550781 0.578125 -3.980469 C 0.578125 -4.488281 0.757812 -4.886719 1.117188 -5.164062 C 1.476562 -5.445312 1.996094 -5.585938 2.671875 -5.585938 C 3 -5.585938 3.3125 -5.554688 3.609375 -5.503906 C 3.898438 -5.457031 4.167969 -5.386719 4.417969 -5.296875 Z M 4.417969 -5.296875 " />
</g>
<g id="f8_bagging-glyph-0-6">
<path d="M 1.785156 -7.269531 L 1.785156 -4.566406 L 0.957031 -4.566406 L 0.957031 -7.269531 Z M 1.785156 -7.269531 " />
</g>
<g id="f8_bagging-glyph-0-7">
<path d="M 1.824219 -7 L 1.824219 -5.457031 L 3.671875 -5.457031 L 3.671875 -4.757812 L 1.824219 -4.757812 L 1.824219 -1.796875 C 1.824219 -1.347656 1.886719 -1.058594 2.003906 -0.9375 C 2.125 -0.808594 2.375 -0.746094 2.753906 -0.746094 L 3.671875 -0.746094 L 3.671875 0 L 2.753906 0 C 2.054688 0 1.574219 -0.128906 1.316406 -0.390625 C 1.058594 -0.648438 0.925781 -1.117188 0.925781 -1.796875 L 0.925781 -4.757812 L 0.269531 -4.757812 L 0.269531 -5.457031 L 0.925781 -5.457031 L 0.925781 -7 Z M 1.824219 -7 " />
</g>
<g id="f8_bagging-glyph-0-8">
<path d="M 4.097656 -4.617188 C 4 -4.675781 3.890625 -4.71875 3.769531 -4.746094 C 3.648438 -4.765625 3.519531 -4.785156 3.378906 -4.785156 C 2.871094 -4.785156 2.484375 -4.617188 2.214844 -4.289062 C 1.933594 -3.960938 1.804688 -3.492188 1.804688 -2.871094 L 1.804688 0 L 0.90625 0 L 0.90625 -5.457031 L 1.804688 -5.457031 L 1.804688 -4.609375 C 1.984375 -4.9375 2.234375 -5.1875 2.53125 -5.34375 C 2.832031 -5.503906 3.203125 -5.585938 3.640625 -5.585938 C 3.699219 -5.585938 3.769531 -5.574219 3.847656 -5.574219 C 3.917969 -5.566406 4 -5.554688 4.097656 -5.535156 Z M 4.097656 -4.617188 " />
</g>
<g id="f8_bagging-glyph-0-9">
<path d="M 3.421875 -2.742188 C 2.691406 -2.742188 2.195312 -2.652344 1.914062 -2.492188 C 1.636719 -2.324219 1.496094 -2.042969 1.496094 -1.644531 C 1.496094 -1.328125 1.59375 -1.066406 1.804688 -0.886719 C 2.015625 -0.699219 2.304688 -0.609375 2.664062 -0.609375 C 3.160156 -0.609375 3.558594 -0.777344 3.859375 -1.136719 C 4.160156 -1.484375 4.308594 -1.953125 4.308594 -2.542969 L 4.308594 -2.742188 Z M 5.207031 -3.113281 L 5.207031 0 L 4.308594 0 L 4.308594 -0.828125 C 4.097656 -0.488281 3.839844 -0.25 3.539062 -0.101562 C 3.242188 0.0507812 2.863281 0.128906 2.421875 0.128906 C 1.863281 0.128906 1.417969 -0.0195312 1.085938 -0.328125 C 0.757812 -0.636719 0.597656 -1.058594 0.597656 -1.585938 C 0.597656 -2.195312 0.796875 -2.652344 1.214844 -2.972656 C 1.625 -3.28125 2.234375 -3.441406 3.050781 -3.441406 L 4.308594 -3.441406 L 4.308594 -3.53125 C 4.308594 -3.9375 4.167969 -4.257812 3.898438 -4.488281 C 3.628906 -4.707031 3.25 -4.828125 2.761719 -4.828125 C 2.445312 -4.828125 2.144531 -4.785156 1.84375 -4.707031 C 1.546875 -4.628906 1.265625 -4.519531 0.996094 -4.378906 L 0.996094 -5.207031 C 1.316406 -5.324219 1.636719 -5.425781 1.945312 -5.484375 C 2.253906 -5.546875 2.554688 -5.585938 2.851562 -5.585938 C 3.640625 -5.585938 4.230469 -5.375 4.617188 -4.964844 C 5.007812 -4.558594 5.207031 -3.9375 5.207031 -3.113281 Z M 5.207031 -3.113281 " />
</g>
<g id="f8_bagging-glyph-0-10">
<path d="M 0.9375 -5.457031 L 1.835938 -5.457031 L 1.835938 0 L 0.9375 0 Z M 1.386719 -5.585938 Z M 1.027344 -7.976562 L 1.746094 -7.976562 L 2.941406 -6.144531 L 2.265625 -6.144531 L 1.386719 -7.339844 L 0.507812 -6.144531 L -0.160156 -6.144531 Z M 1.027344 -7.976562 " />
</g>
<g id="f8_bagging-glyph-0-11">
<path d="M 5.1875 -4.40625 C 5.40625 -4.808594 5.675781 -5.097656 5.984375 -5.296875 C 6.292969 -5.484375 6.660156 -5.585938 7.089844 -5.585938 C 7.648438 -5.585938 8.089844 -5.386719 8.398438 -4.988281 C 8.707031 -4.585938 8.867188 -4.019531 8.867188 -3.292969 L 8.867188 0 L 7.96875 0 L 7.96875 -3.261719 C 7.96875 -3.78125 7.867188 -4.167969 7.6875 -4.429688 C 7.5 -4.675781 7.21875 -4.808594 6.839844 -4.808594 C 6.371094 -4.808594 6.003906 -4.648438 5.734375 -4.339844 C 5.464844 -4.027344 5.335938 -3.609375 5.335938 -3.082031 L 5.335938 0 L 4.4375 0 L 4.4375 -3.261719 C 4.4375 -3.78125 4.339844 -4.167969 4.160156 -4.429688 C 3.96875 -4.675781 3.679688 -4.808594 3.300781 -4.808594 C 2.84375 -4.808594 2.472656 -4.648438 2.203125 -4.339844 C 1.933594 -4.027344 1.804688 -3.609375 1.804688 -3.082031 L 1.804688 0 L 0.90625 0 L 0.90625 -5.457031 L 1.804688 -5.457031 L 1.804688 -4.609375 C 2.003906 -4.9375 2.253906 -5.1875 2.542969 -5.34375 C 2.824219 -5.503906 3.160156 -5.585938 3.558594 -5.585938 C 3.960938 -5.585938 4.289062 -5.484375 4.566406 -5.285156 C 4.847656 -5.085938 5.046875 -4.785156 5.1875 -4.40625 Z M 5.1875 -4.40625 " />
</g>
<g id="f8_bagging-glyph-0-12">
<path d="M 0.300781 -5.457031 L 1.246094 -5.457031 L 2.953125 -0.878906 L 4.65625 -5.457031 L 5.605469 -5.457031 L 3.558594 0 L 2.34375 0 Z M 0.300781 -5.457031 " />
</g>
<g id="f8_bagging-glyph-0-13">
</g>
<g id="f8_bagging-glyph-0-14">
<path d="M 2.53125 -7.269531 L 3.359375 -7.269531 L 0.828125 0.917969 L 0 0.917969 Z M 2.53125 -7.269531 " />
</g>
<g id="f8_bagging-glyph-0-15">
<path d="M 3.210938 0.5 C 2.953125 1.136719 2.703125 1.566406 2.464844 1.765625 C 2.222656 1.964844 1.90625 2.0625 1.507812 2.0625 L 0.789062 2.0625 L 0.789062 1.316406 L 1.316406 1.316406 C 1.554688 1.316406 1.746094 1.257812 1.886719 1.136719 C 2.023438 1.015625 2.175781 0.746094 2.34375 0.308594 L 2.503906 -0.0898438 L 0.300781 -5.457031 L 1.246094 -5.457031 L 2.953125 -1.1875 L 4.65625 -5.457031 L 5.605469 -5.457031 Z M 3.210938 0.5 " />
</g>
<g id="f8_bagging-glyph-0-16">
<path d="M 1.058594 -4.527344 L 7.300781 -4.527344 L 7.300781 -3.710938 L 1.058594 -3.710938 Z M 1.058594 -2.542969 L 7.300781 -2.542969 L 7.300781 -1.714844 L 1.058594 -1.714844 Z M 1.058594 -2.542969 " />
</g>
<g id="f8_bagging-glyph-0-17">
<path d="M 1.804688 -0.816406 L 1.804688 2.0625 L 0.90625 2.0625 L 0.90625 -5.457031 L 1.804688 -5.457031 L 1.804688 -4.628906 C 1.984375 -4.945312 2.222656 -5.1875 2.511719 -5.34375 C 2.800781 -5.503906 3.152344 -5.585938 3.550781 -5.585938 C 4.207031 -5.585938 4.746094 -5.316406 5.164062 -4.796875 C 5.574219 -4.269531 5.785156 -3.582031 5.785156 -2.722656 C 5.785156 -1.863281 5.574219 -1.167969 5.164062 -0.648438 C 4.746094 -0.128906 4.207031 0.128906 3.550781 0.128906 C 3.152344 0.128906 2.800781 0.0507812 2.511719 -0.101562 C 2.222656 -0.25 1.984375 -0.488281 1.804688 -0.816406 Z M 4.855469 -2.722656 C 4.855469 -3.378906 4.71875 -3.890625 4.449219 -4.269531 C 4.167969 -4.648438 3.800781 -4.835938 3.332031 -4.835938 C 2.851562 -4.835938 2.484375 -4.648438 2.214844 -4.269531 C 1.933594 -3.890625 1.804688 -3.378906 1.804688 -2.722656 C 1.804688 -2.0625 1.933594 -1.546875 2.214844 -1.167969 C 2.484375 -0.789062 2.851562 -0.609375 3.332031 -0.609375 C 3.800781 -0.609375 4.167969 -0.789062 4.449219 -1.167969 C 4.71875 -1.546875 4.855469 -2.0625 4.855469 -2.722656 Z M 4.855469 -2.722656 " />
</g>
<g id="f8_bagging-glyph-0-18">
<path d="M 0.9375 -5.457031 L 1.835938 -5.457031 L 1.835938 0 L 0.9375 0 Z M 0.9375 -7.578125 L 1.835938 -7.578125 L 1.835938 -6.441406 L 0.9375 -6.441406 Z M 0.9375 -7.578125 " />
</g>
<g id="f8_bagging-glyph-0-19">
<path d="M 4.867188 -5.246094 L 4.867188 -4.40625 C 4.609375 -4.546875 4.359375 -4.648438 4.097656 -4.71875 C 3.839844 -4.785156 3.589844 -4.828125 3.332031 -4.828125 C 2.753906 -4.828125 2.292969 -4.636719 1.976562 -4.269531 C 1.65625 -3.898438 1.496094 -3.378906 1.496094 -2.722656 C 1.496094 -2.054688 1.65625 -1.535156 1.976562 -1.167969 C 2.292969 -0.796875 2.753906 -0.617188 3.332031 -0.617188 C 3.589844 -0.617188 3.839844 -0.648438 4.097656 -0.71875 C 4.359375 -0.789062 4.609375 -0.898438 4.867188 -1.039062 L 4.867188 -0.210938 C 4.609375 -0.0898438 4.347656 0 4.089844 0.0507812 C 3.820312 0.101562 3.53125 0.128906 3.230469 0.128906 C 2.414062 0.128906 1.753906 -0.121094 1.277344 -0.636719 C 0.789062 -1.148438 0.546875 -1.84375 0.546875 -2.722656 C 0.546875 -3.609375 0.789062 -4.308594 1.277344 -4.816406 C 1.765625 -5.324219 2.433594 -5.585938 3.292969 -5.585938 C 3.570312 -5.585938 3.839844 -5.554688 4.097656 -5.496094 C 4.359375 -5.433594 4.617188 -5.355469 4.867188 -5.246094 Z M 4.867188 -5.246094 " />
</g>
<g id="f8_bagging-glyph-1-0">
<path d="M 4.371094 -2.449219 C 4.371094 -3.042969 4.246094 -3.5 4.003906 -3.839844 C 3.75 -4.183594 3.417969 -4.351562 2.996094 -4.351562 C 2.566406 -4.351562 2.234375 -4.183594 1.992188 -3.839844 C 1.742188 -3.5 1.625 -3.042969 1.625 -2.449219 C 1.625 -1.859375 1.742188 -1.390625 1.992188 -1.050781 C 2.234375 -0.710938 2.566406 -0.546875 2.996094 -0.546875 C 3.417969 -0.546875 3.75 -0.710938 4.003906 -1.050781 C 4.246094 -1.390625 4.371094 -1.859375 4.371094 -2.449219 Z M 1.625 -4.164062 C 1.785156 -4.453125 2 -4.667969 2.261719 -4.8125 C 2.523438 -4.953125 2.835938 -5.027344 3.195312 -5.027344 C 3.789062 -5.027344 4.273438 -4.785156 4.648438 -4.316406 C 5.015625 -3.839844 5.207031 -3.222656 5.207031 -2.449219 C 5.207031 -1.679688 5.015625 -1.050781 4.648438 -0.582031 C 4.273438 -0.117188 3.789062 0.117188 3.195312 0.117188 C 2.835938 0.117188 2.523438 0.0429688 2.261719 -0.0898438 C 2 -0.222656 1.785156 -0.441406 1.625 -0.734375 L 1.625 0 L 0.816406 0 L 0.816406 -6.820312 L 1.625 -6.820312 Z M 1.625 -4.164062 " />
</g>
<g id="f8_bagging-glyph-1-1">
<path d="M 2.746094 -4.34375 C 2.316406 -4.34375 1.976562 -4.171875 1.722656 -3.832031 C 1.472656 -3.492188 1.347656 -3.035156 1.347656 -2.449219 C 1.347656 -1.859375 1.464844 -1.398438 1.714844 -1.058594 C 1.964844 -0.71875 2.308594 -0.554688 2.746094 -0.554688 C 3.175781 -0.554688 3.519531 -0.71875 3.769531 -1.058594 C 4.019531 -1.398438 4.148438 -1.859375 4.148438 -2.449219 C 4.148438 -3.023438 4.019531 -3.492188 3.769531 -3.832031 C 3.519531 -4.171875 3.175781 -4.34375 2.746094 -4.34375 Z M 2.746094 -5.027344 C 3.445312 -5.027344 3.996094 -4.792969 4.398438 -4.34375 C 4.792969 -3.886719 5 -3.257812 5 -2.449219 C 5 -1.640625 4.792969 -1.015625 4.398438 -0.566406 C 3.996094 -0.109375 3.445312 0.117188 2.746094 0.117188 C 2.039062 0.117188 1.480469 -0.109375 1.085938 -0.566406 C 0.691406 -1.015625 0.492188 -1.640625 0.492188 -2.449219 C 0.492188 -3.257812 0.691406 -3.886719 1.085938 -4.34375 C 1.480469 -4.792969 2.039062 -5.027344 2.746094 -5.027344 Z M 2.746094 -5.027344 " />
</g>
<g id="f8_bagging-glyph-1-2">
<path d="M 1.640625 -6.300781 L 1.640625 -4.910156 L 3.304688 -4.910156 L 3.304688 -4.28125 L 1.640625 -4.28125 L 1.640625 -1.617188 C 1.640625 -1.210938 1.695312 -0.953125 1.804688 -0.84375 C 1.910156 -0.726562 2.136719 -0.671875 2.476562 -0.671875 L 3.304688 -0.671875 L 3.304688 0 L 2.476562 0 C 1.847656 0 1.417969 -0.117188 1.183594 -0.351562 C 0.953125 -0.582031 0.835938 -1.003906 0.835938 -1.617188 L 0.835938 -4.28125 L 0.242188 -4.28125 L 0.242188 -4.910156 L 0.835938 -4.910156 L 0.835938 -6.300781 Z M 1.640625 -6.300781 " />
</g>
<g id="f8_bagging-glyph-1-3">
<path d="M 3.976562 -4.765625 L 3.976562 -4.003906 C 3.742188 -4.109375 3.507812 -4.199219 3.265625 -4.261719 C 3.015625 -4.316406 2.765625 -4.351562 2.503906 -4.351562 C 2.101562 -4.351562 1.796875 -4.289062 1.597656 -4.164062 C 1.398438 -4.039062 1.300781 -3.859375 1.300781 -3.617188 C 1.300781 -3.429688 1.375 -3.285156 1.515625 -3.175781 C 1.660156 -3.070312 1.949219 -2.960938 2.378906 -2.871094 L 2.65625 -2.808594 C 3.230469 -2.683594 3.636719 -2.503906 3.878906 -2.289062 C 4.109375 -2.0625 4.238281 -1.75 4.238281 -1.355469 C 4.238281 -0.898438 4.058594 -0.539062 3.699219 -0.277344 C 3.339844 -0.0078125 2.835938 0.117188 2.207031 0.117188 C 1.9375 0.117188 1.667969 0.0898438 1.382812 0.0429688 C 1.09375 0 0.800781 -0.0703125 0.484375 -0.179688 L 0.484375 -1.015625 C 0.78125 -0.851562 1.078125 -0.734375 1.363281 -0.664062 C 1.652344 -0.582031 1.9375 -0.546875 2.226562 -0.546875 C 2.601562 -0.546875 2.898438 -0.609375 3.105469 -0.734375 C 3.304688 -0.863281 3.410156 -1.050781 3.410156 -1.292969 C 3.410156 -1.507812 3.328125 -1.679688 3.1875 -1.796875 C 3.042969 -1.910156 2.71875 -2.027344 2.21875 -2.136719 L 1.9375 -2.199219 C 1.4375 -2.308594 1.066406 -2.46875 0.851562 -2.683594 C 0.628906 -2.898438 0.519531 -3.195312 0.519531 -3.582031 C 0.519531 -4.039062 0.683594 -4.398438 1.003906 -4.648438 C 1.328125 -4.902344 1.796875 -5.027344 2.40625 -5.027344 C 2.703125 -5.027344 2.980469 -5 3.25 -4.953125 C 3.507812 -4.910156 3.75 -4.847656 3.976562 -4.765625 Z M 3.976562 -4.765625 " />
</g>
<g id="f8_bagging-glyph-1-4">
<path d="M 3.6875 -4.15625 C 3.597656 -4.210938 3.5 -4.246094 3.394531 -4.273438 C 3.285156 -4.289062 3.167969 -4.308594 3.042969 -4.308594 C 2.585938 -4.308594 2.234375 -4.15625 1.992188 -3.859375 C 1.742188 -3.5625 1.625 -3.140625 1.625 -2.585938 L 1.625 0 L 0.816406 0 L 0.816406 -4.910156 L 1.625 -4.910156 L 1.625 -4.148438 C 1.785156 -4.441406 2.011719 -4.667969 2.28125 -4.8125 C 2.550781 -4.953125 2.882812 -5.027344 3.277344 -5.027344 C 3.328125 -5.027344 3.394531 -5.015625 3.464844 -5.015625 C 3.527344 -5.007812 3.597656 -5 3.6875 -4.980469 Z M 3.6875 -4.15625 " />
</g>
<g id="f8_bagging-glyph-1-5">
<path d="M 3.078125 -2.46875 C 2.421875 -2.46875 1.976562 -2.386719 1.722656 -2.242188 C 1.472656 -2.089844 1.347656 -1.839844 1.347656 -1.480469 C 1.347656 -1.195312 1.4375 -0.960938 1.625 -0.800781 C 1.8125 -0.628906 2.074219 -0.546875 2.398438 -0.546875 C 2.84375 -0.546875 3.203125 -0.699219 3.472656 -1.023438 C 3.742188 -1.335938 3.878906 -1.757812 3.878906 -2.289062 L 3.878906 -2.46875 Z M 4.683594 -2.800781 L 4.683594 0 L 3.878906 0 L 3.878906 -0.746094 C 3.6875 -0.441406 3.457031 -0.222656 3.1875 -0.0898438 C 2.917969 0.0429688 2.574219 0.117188 2.179688 0.117188 C 1.679688 0.117188 1.273438 -0.0195312 0.976562 -0.296875 C 0.683594 -0.574219 0.539062 -0.953125 0.539062 -1.425781 C 0.539062 -1.976562 0.71875 -2.386719 1.09375 -2.675781 C 1.464844 -2.953125 2.011719 -3.097656 2.746094 -3.097656 L 3.878906 -3.097656 L 3.878906 -3.175781 C 3.878906 -3.546875 3.75 -3.832031 3.507812 -4.039062 C 3.265625 -4.238281 2.925781 -4.34375 2.484375 -4.34375 C 2.199219 -4.34375 1.929688 -4.308594 1.660156 -4.238281 C 1.390625 -4.164062 1.140625 -4.066406 0.898438 -3.941406 L 0.898438 -4.683594 C 1.183594 -4.792969 1.472656 -4.882812 1.75 -4.9375 C 2.027344 -4.992188 2.296875 -5.027344 2.566406 -5.027344 C 3.277344 -5.027344 3.804688 -4.835938 4.15625 -4.46875 C 4.503906 -4.101562 4.683594 -3.546875 4.683594 -2.800781 Z M 4.683594 -2.800781 " />
</g>
<g id="f8_bagging-glyph-1-6">
<path d="M 1.625 -0.734375 L 1.625 1.859375 L 0.816406 1.859375 L 0.816406 -4.910156 L 1.625 -4.910156 L 1.625 -4.164062 C 1.785156 -4.453125 2 -4.667969 2.261719 -4.8125 C 2.523438 -4.953125 2.835938 -5.027344 3.195312 -5.027344 C 3.789062 -5.027344 4.273438 -4.785156 4.648438 -4.316406 C 5.015625 -3.839844 5.207031 -3.222656 5.207031 -2.449219 C 5.207031 -1.679688 5.015625 -1.050781 4.648438 -0.582031 C 4.273438 -0.117188 3.789062 0.117188 3.195312 0.117188 C 2.835938 0.117188 2.523438 0.0429688 2.261719 -0.0898438 C 2 -0.222656 1.785156 -0.441406 1.625 -0.734375 Z M 4.371094 -2.449219 C 4.371094 -3.042969 4.246094 -3.5 4.003906 -3.839844 C 3.75 -4.183594 3.417969 -4.351562 2.996094 -4.351562 C 2.566406 -4.351562 2.234375 -4.183594 1.992188 -3.839844 C 1.742188 -3.5 1.625 -3.042969 1.625 -2.449219 C 1.625 -1.859375 1.742188 -1.390625 1.992188 -1.050781 C 2.234375 -0.710938 2.566406 -0.546875 2.996094 -0.546875 C 3.417969 -0.546875 3.75 -0.710938 4.003906 -1.050781 C 4.246094 -1.390625 4.371094 -1.859375 4.371094 -2.449219 Z M 4.371094 -2.449219 " />
</g>
<g id="f8_bagging-glyph-1-7">
</g>
<g id="f8_bagging-glyph-1-8">
<path d="M 1.113281 -0.746094 L 2.558594 -0.746094 L 2.558594 -5.734375 L 0.988281 -5.421875 L 0.988281 -6.230469 L 2.550781 -6.542969 L 3.4375 -6.542969 L 3.4375 -0.746094 L 4.882812 -0.746094 L 4.882812 0 L 1.113281 0 Z M 1.113281 -0.746094 " />
</g>
<g id="f8_bagging-glyph-1-9">
<path d="M 5.042969 -2.65625 L 5.042969 -2.261719 L 1.335938 -2.261719 C 1.375 -1.707031 1.535156 -1.273438 1.839844 -0.988281 C 2.136719 -0.699219 2.550781 -0.554688 3.085938 -0.554688 C 3.394531 -0.554688 3.699219 -0.59375 3.984375 -0.664062 C 4.273438 -0.734375 4.570312 -0.851562 4.855469 -1.015625 L 4.855469 -0.25 C 4.570312 -0.125 4.273438 -0.0273438 3.96875 0.0273438 C 3.660156 0.0820312 3.347656 0.117188 3.042969 0.117188 C 2.253906 0.117188 1.632812 -0.109375 1.175781 -0.554688 C 0.71875 -1.003906 0.492188 -1.625 0.492188 -2.40625 C 0.492188 -3.203125 0.710938 -3.839844 1.140625 -4.316406 C 1.570312 -4.785156 2.164062 -5.027344 2.898438 -5.027344 C 3.5625 -5.027344 4.082031 -4.8125 4.46875 -4.390625 C 4.847656 -3.957031 5.042969 -3.382812 5.042969 -2.65625 Z M 4.238281 -2.890625 C 4.226562 -3.328125 4.101562 -3.679688 3.867188 -3.949219 C 3.625 -4.210938 3.304688 -4.34375 2.90625 -4.34375 C 2.460938 -4.34375 2.101562 -4.210938 1.832031 -3.957031 C 1.5625 -3.707031 1.398438 -3.347656 1.363281 -2.890625 Z M 4.238281 -2.890625 " />
</g>
<g id="f8_bagging-glyph-1-10">
<path d="M 1.722656 -0.746094 L 4.8125 -0.746094 L 4.8125 0 L 0.65625 0 L 0.65625 -0.746094 C 0.988281 -1.085938 1.445312 -1.554688 2.027344 -2.144531 C 2.601562 -2.730469 2.972656 -3.105469 3.125 -3.277344 C 3.410156 -3.589844 3.609375 -3.859375 3.714844 -4.082031 C 3.824219 -4.300781 3.886719 -4.523438 3.886719 -4.738281 C 3.886719 -5.082031 3.761719 -5.367188 3.519531 -5.582031 C 3.277344 -5.796875 2.960938 -5.914062 2.566406 -5.914062 C 2.289062 -5.914062 1.992188 -5.859375 1.6875 -5.769531 C 1.382812 -5.671875 1.050781 -5.527344 0.699219 -5.332031 L 0.699219 -6.230469 C 1.058594 -6.371094 1.390625 -6.480469 1.695312 -6.550781 C 2 -6.625 2.289062 -6.660156 2.550781 -6.660156 C 3.222656 -6.660156 3.761719 -6.488281 4.164062 -6.148438 C 4.570312 -5.808594 4.773438 -5.359375 4.773438 -4.792969 C 4.773438 -4.523438 4.722656 -4.261719 4.621094 -4.03125 C 4.523438 -3.789062 4.34375 -3.5 4.074219 -3.175781 C 4.003906 -3.085938 3.769531 -2.84375 3.375 -2.441406 C 2.980469 -2.039062 2.433594 -1.472656 1.722656 -0.746094 Z M 1.722656 -0.746094 " />
</g>
<g id="f8_bagging-glyph-1-11">
<path d="M 3.644531 -3.527344 C 4.066406 -3.4375 4.398438 -3.25 4.632812 -2.960938 C 4.863281 -2.675781 4.992188 -2.316406 4.992188 -1.902344 C 4.992188 -1.257812 4.765625 -0.753906 4.328125 -0.402344 C 3.878906 -0.0546875 3.25 0.117188 2.433594 0.117188 C 2.152344 0.117188 1.867188 0.0898438 1.578125 0.0351562 C 1.292969 -0.0078125 0.988281 -0.0898438 0.683594 -0.199219 L 0.683594 -1.050781 C 0.925781 -0.90625 1.195312 -0.800781 1.488281 -0.726562 C 1.777344 -0.65625 2.082031 -0.621094 2.40625 -0.621094 C 2.960938 -0.621094 3.382812 -0.726562 3.671875 -0.941406 C 3.957031 -1.15625 4.109375 -1.480469 4.109375 -1.902344 C 4.109375 -2.28125 3.976562 -2.585938 3.707031 -2.800781 C 3.4375 -3.015625 3.0625 -3.132812 2.574219 -3.132812 L 1.8125 -3.132812 L 1.8125 -3.859375 L 2.613281 -3.859375 C 3.042969 -3.859375 3.375 -3.941406 3.609375 -4.121094 C 3.839844 -4.289062 3.957031 -4.542969 3.957031 -4.875 C 3.957031 -5.207031 3.832031 -5.464844 3.597656 -5.644531 C 3.355469 -5.824219 3.015625 -5.914062 2.574219 -5.914062 C 2.332031 -5.914062 2.074219 -5.886719 1.796875 -5.835938 C 1.515625 -5.78125 1.210938 -5.699219 0.878906 -5.59375 L 0.878906 -6.382812 C 1.210938 -6.472656 1.527344 -6.542969 1.820312 -6.589844 C 2.109375 -6.632812 2.386719 -6.660156 2.65625 -6.660156 C 3.320312 -6.660156 3.851562 -6.507812 4.246094 -6.203125 C 4.640625 -5.898438 4.835938 -5.484375 4.835938 -4.964844 C 4.835938 -4.605469 4.730469 -4.300781 4.523438 -4.046875 C 4.316406 -3.796875 4.019531 -3.617188 3.644531 -3.527344 Z M 3.644531 -3.527344 " />
</g>
<g id="f8_bagging-glyph-2-0">
<path d="M 1.148438 -9.085938 L 3.492188 -9.085938 L 3.492188 -1.769531 L 7.605469 -1.769531 L 7.605469 0 L 1.148438 0 Z M 1.148438 -9.085938 " />
</g>
<g id="f8_bagging-glyph-2-1">
<path d="M 7.855469 -3.429688 L 7.855469 -2.804688 L 2.753906 -2.804688 C 2.804688 -2.292969 2.992188 -1.90625 3.316406 -1.65625 C 3.628906 -1.394531 4.0625 -1.273438 4.636719 -1.273438 C 5.085938 -1.273438 5.558594 -1.332031 6.046875 -1.472656 C 6.519531 -1.609375 7.019531 -1.820312 7.53125 -2.09375 L 7.53125 -0.410156 C 7.007812 -0.210938 6.496094 -0.0742188 5.984375 0.0117188 C 5.460938 0.113281 4.949219 0.160156 4.4375 0.160156 C 3.203125 0.160156 2.242188 -0.148438 1.558594 -0.773438 C 0.871094 -1.394531 0.535156 -2.269531 0.535156 -3.402344 C 0.535156 -4.511719 0.871094 -5.386719 1.546875 -6.019531 C 2.21875 -6.65625 3.140625 -6.980469 4.3125 -6.980469 C 5.386719 -6.980469 6.234375 -6.65625 6.882812 -6.007812 C 7.53125 -5.359375 7.855469 -4.5 7.855469 -3.429688 Z M 5.609375 -4.152344 C 5.609375 -4.5625 5.484375 -4.898438 5.25 -5.148438 C 5 -5.398438 4.6875 -5.535156 4.300781 -5.535156 C 3.878906 -5.535156 3.527344 -5.410156 3.265625 -5.171875 C 3.003906 -4.9375 2.84375 -4.601562 2.78125 -4.152344 Z M 5.609375 -4.152344 " />
</g>
<g id="f8_bagging-glyph-2-2">
</g>
<g id="f8_bagging-glyph-2-3">
<path d="M 4.675781 -1.410156 C 5.136719 -1.410156 5.484375 -1.570312 5.734375 -1.917969 C 5.984375 -2.257812 6.109375 -2.753906 6.109375 -3.402344 C 6.109375 -4.050781 5.984375 -4.539062 5.734375 -4.886719 C 5.484375 -5.222656 5.136719 -5.398438 4.675781 -5.398438 C 4.199219 -5.398438 3.851562 -5.222656 3.601562 -4.886719 C 3.351562 -4.539062 3.230469 -4.050781 3.230469 -3.402344 C 3.230469 -2.753906 3.351562 -2.257812 3.601562 -1.917969 C 3.851562 -1.570312 4.199219 -1.410156 4.675781 -1.410156 Z M 3.230469 -5.820312 C 3.527344 -6.21875 3.851562 -6.507812 4.226562 -6.695312 C 4.585938 -6.882812 5.011719 -6.980469 5.484375 -6.980469 C 6.320312 -6.980469 7.007812 -6.644531 7.554688 -5.972656 C 8.089844 -5.296875 8.363281 -4.4375 8.363281 -3.390625 C 8.363281 -2.34375 8.089844 -1.484375 7.554688 -0.824219 C 7.007812 -0.160156 6.320312 0.160156 5.484375 0.160156 C 5.011719 0.160156 4.585938 0.0625 4.226562 -0.113281 C 3.851562 -0.285156 3.527344 -0.585938 3.230469 -0.984375 L 3.230469 0 L 1.046875 0 L 1.046875 -9.472656 L 3.230469 -9.472656 Z M 3.230469 -5.820312 " />
</g>
<g id="f8_bagging-glyph-2-4">
<path d="M 4.101562 -3.066406 C 3.640625 -3.066406 3.292969 -2.980469 3.066406 -2.828125 C 2.84375 -2.679688 2.730469 -2.457031 2.730469 -2.15625 C 2.730469 -1.882812 2.816406 -1.65625 3.003906 -1.507812 C 3.191406 -1.347656 3.453125 -1.273438 3.777344 -1.273438 C 4.1875 -1.273438 4.539062 -1.410156 4.8125 -1.707031 C 5.085938 -2.007812 5.234375 -2.367188 5.234375 -2.816406 L 5.234375 -3.066406 Z M 7.429688 -3.890625 L 7.429688 0 L 5.234375 0 L 5.234375 -1.007812 C 4.9375 -0.585938 4.613281 -0.285156 4.25 -0.113281 C 3.878906 0.0625 3.441406 0.160156 2.917969 0.160156 C 2.207031 0.160156 1.632812 -0.0390625 1.195312 -0.449219 C 0.746094 -0.847656 0.535156 -1.382812 0.535156 -2.042969 C 0.535156 -2.84375 0.808594 -3.429688 1.359375 -3.800781 C 1.90625 -4.175781 2.765625 -4.363281 3.953125 -4.363281 L 5.234375 -4.363281 L 5.234375 -4.539062 C 5.234375 -4.875 5.097656 -5.125 4.824219 -5.285156 C 4.550781 -5.449219 4.125 -5.535156 3.554688 -5.535156 C 3.078125 -5.535156 2.644531 -5.484375 2.242188 -5.386719 C 1.84375 -5.285156 1.472656 -5.148438 1.132812 -4.972656 L 1.132812 -6.632812 C 1.59375 -6.746094 2.058594 -6.832031 2.53125 -6.894531 C 3.003906 -6.945312 3.476562 -6.980469 3.953125 -6.980469 C 5.171875 -6.980469 6.058594 -6.730469 6.605469 -6.246094 C 7.15625 -5.757812 7.429688 -4.972656 7.429688 -3.890625 Z M 7.429688 -3.890625 " />
</g>
<g id="f8_bagging-glyph-2-5">
<path d="M 5.683594 -1.160156 C 5.386719 -0.761719 5.046875 -0.460938 4.6875 -0.273438 C 4.324219 -0.0859375 3.914062 0 3.441406 0 C 2.605469 0 1.917969 -0.324219 1.371094 -0.984375 C 0.824219 -1.632812 0.5625 -2.46875 0.5625 -3.492188 C 0.5625 -4.5 0.824219 -5.335938 1.371094 -5.984375 C 1.917969 -6.632812 2.605469 -6.96875 3.441406 -6.96875 C 3.914062 -6.96875 4.324219 -6.867188 4.6875 -6.683594 C 5.046875 -6.496094 5.386719 -6.207031 5.683594 -5.808594 L 5.683594 -6.820312 L 7.878906 -6.820312 L 7.878906 -0.6875 C 7.878906 0.398438 7.53125 1.234375 6.832031 1.808594 C 6.132812 2.382812 5.136719 2.679688 3.828125 2.679688 C 3.402344 2.679688 2.992188 2.644531 2.59375 2.582031 C 2.195312 2.503906 1.796875 2.40625 1.394531 2.28125 L 1.394531 0.585938 C 1.769531 0.796875 2.144531 0.960938 2.519531 1.070312 C 2.878906 1.171875 3.242188 1.234375 3.613281 1.234375 C 4.324219 1.234375 4.847656 1.070312 5.1875 0.761719 C 5.511719 0.449219 5.683594 -0.0234375 5.683594 -0.6875 Z M 4.25 -5.398438 C 3.800781 -5.398438 3.441406 -5.222656 3.191406 -4.898438 C 2.941406 -4.5625 2.816406 -4.089844 2.816406 -3.492188 C 2.816406 -2.867188 2.929688 -2.394531 3.179688 -2.070312 C 3.429688 -1.746094 3.777344 -1.582031 4.25 -1.582031 C 4.699219 -1.582031 5.0625 -1.746094 5.3125 -2.082031 C 5.558594 -2.40625 5.683594 -2.878906 5.683594 -3.492188 C 5.683594 -4.089844 5.558594 -4.5625 5.3125 -4.898438 C 5.0625 -5.222656 4.699219 -5.398438 4.25 -5.398438 Z M 4.25 -5.398438 " />
</g>
<g id="f8_bagging-glyph-2-6">
<path d="M 1.046875 -6.820312 L 3.230469 -6.820312 L 3.230469 0 L 1.046875 0 Z M 1.046875 -9.472656 L 3.230469 -9.472656 L 3.230469 -7.691406 L 1.046875 -7.691406 Z M 1.046875 -9.472656 " />
</g>
<g id="f8_bagging-glyph-2-7">
<path d="M 7.902344 -4.152344 L 7.902344 0 L 5.710938 0 L 5.710938 -3.179688 C 5.710938 -3.765625 5.695312 -4.164062 5.671875 -4.386719 C 5.648438 -4.613281 5.597656 -4.773438 5.535156 -4.886719 C 5.449219 -5.023438 5.335938 -5.136719 5.1875 -5.210938 C 5.035156 -5.285156 4.863281 -5.335938 4.6875 -5.335938 C 4.226562 -5.335938 3.863281 -5.160156 3.613281 -4.8125 C 3.351562 -4.460938 3.230469 -3.976562 3.230469 -3.351562 L 3.230469 0 L 1.046875 0 L 1.046875 -6.820312 L 3.230469 -6.820312 L 3.230469 -5.820312 C 3.554688 -6.21875 3.890625 -6.507812 4.261719 -6.695312 C 4.636719 -6.882812 5.046875 -6.980469 5.496094 -6.980469 C 6.28125 -6.980469 6.882812 -6.730469 7.292969 -6.257812 C 7.691406 -5.773438 7.902344 -5.074219 7.902344 -4.152344 Z M 7.902344 -4.152344 " />
</g>
<g id="f8_bagging-glyph-2-8">
<path d="M 1.394531 -6.820312 L 3.589844 -6.820312 L 3.589844 -4.460938 L 1.394531 -4.460938 Z M 1.394531 -2.355469 L 3.589844 -2.355469 L 3.589844 0 L 1.394531 0 Z M 1.394531 -2.355469 " />
</g>
<g id="f8_bagging-glyph-2-9">
<path d="M 5.683594 -5.820312 L 5.683594 -9.472656 L 7.878906 -9.472656 L 7.878906 0 L 5.683594 0 L 5.683594 -0.984375 C 5.386719 -0.585938 5.046875 -0.285156 4.6875 -0.113281 C 4.324219 0.0625 3.914062 0.160156 3.441406 0.160156 C 2.59375 0.160156 1.90625 -0.160156 1.371094 -0.824219 C 0.824219 -1.484375 0.5625 -2.34375 0.5625 -3.390625 C 0.5625 -4.4375 0.824219 -5.296875 1.371094 -5.972656 C 1.90625 -6.644531 2.59375 -6.980469 3.441406 -6.980469 C 3.914062 -6.980469 4.324219 -6.882812 4.6875 -6.695312 C 5.046875 -6.507812 5.386719 -6.21875 5.683594 -5.820312 Z M 4.25 -1.410156 C 4.710938 -1.410156 5.0625 -1.570312 5.3125 -1.917969 C 5.558594 -2.257812 5.683594 -2.753906 5.683594 -3.402344 C 5.683594 -4.050781 5.558594 -4.539062 5.3125 -4.886719 C 5.0625 -5.222656 4.710938 -5.398438 4.25 -5.398438 C 3.777344 -5.398438 3.429688 -5.222656 3.179688 -4.886719 C 2.929688 -4.539062 2.816406 -4.050781 2.816406 -3.402344 C 2.816406 -2.753906 2.929688 -2.257812 3.179688 -1.917969 C 3.429688 -1.570312 3.777344 -1.410156 4.25 -1.410156 Z M 4.25 -1.410156 " />
</g>
<g id="f8_bagging-glyph-2-10">
<path d="M 6.371094 -6.605469 L 6.371094 -4.949219 C 5.898438 -5.136719 5.449219 -5.285156 5.023438 -5.386719 C 4.585938 -5.484375 4.175781 -5.535156 3.789062 -5.535156 C 3.367188 -5.535156 3.066406 -5.472656 2.867188 -5.371094 C 2.667969 -5.273438 2.566406 -5.109375 2.566406 -4.898438 C 2.566406 -4.726562 2.644531 -4.585938 2.792969 -4.5 C 2.941406 -4.402344 3.214844 -4.339844 3.613281 -4.289062 L 4 -4.238281 C 5.109375 -4.089844 5.859375 -3.863281 6.246094 -3.539062 C 6.632812 -3.214844 6.832031 -2.707031 6.832031 -2.007812 C 6.832031 -1.285156 6.558594 -0.734375 6.019531 -0.375 C 5.484375 -0.0117188 4.6875 0.160156 3.628906 0.160156 C 3.179688 0.160156 2.707031 0.125 2.230469 0.0625 C 1.746094 0 1.246094 -0.101562 0.746094 -0.25 L 0.746094 -1.90625 C 1.171875 -1.683594 1.621094 -1.519531 2.082031 -1.421875 C 2.53125 -1.320312 3.003906 -1.273438 3.476562 -1.273438 C 3.902344 -1.273438 4.214844 -1.320312 4.4375 -1.445312 C 4.648438 -1.558594 4.761719 -1.734375 4.761719 -1.96875 C 4.761719 -2.167969 4.6875 -2.304688 4.539062 -2.40625 C 4.386719 -2.503906 4.089844 -2.582031 3.652344 -2.628906 L 3.265625 -2.679688 C 2.292969 -2.792969 1.621094 -3.015625 1.234375 -3.351562 C 0.835938 -3.675781 0.648438 -4.175781 0.648438 -4.847656 C 0.648438 -5.574219 0.886719 -6.109375 1.382812 -6.457031 C 1.882812 -6.804688 2.644531 -6.980469 3.664062 -6.980469 C 4.0625 -6.980469 4.476562 -6.945312 4.925781 -6.882812 C 5.371094 -6.820312 5.847656 -6.730469 6.371094 -6.605469 Z M 6.371094 -6.605469 " />
</g>
<g id="f8_bagging-glyph-2-11">
<path d="M 6.109375 -4.960938 C 5.910156 -5.046875 5.722656 -5.109375 5.535156 -5.160156 C 5.347656 -5.199219 5.160156 -5.222656 4.972656 -5.222656 C 4.414062 -5.222656 3.976562 -5.035156 3.675781 -4.6875 C 3.378906 -4.324219 3.230469 -3.816406 3.230469 -3.140625 L 3.230469 0 L 1.046875 0 L 1.046875 -6.820312 L 3.230469 -6.820312 L 3.230469 -5.695312 C 3.503906 -6.144531 3.816406 -6.46875 4.1875 -6.667969 C 4.550781 -6.867188 4.988281 -6.980469 5.496094 -6.980469 C 5.574219 -6.980469 5.648438 -6.96875 5.734375 -6.96875 C 5.808594 -6.96875 5.933594 -6.957031 6.109375 -6.929688 Z M 6.109375 -4.960938 " />
</g>
<g id="f8_bagging-glyph-2-12">
<path d="M 3.429688 -8.75 L 3.429688 -6.820312 L 5.671875 -6.820312 L 5.671875 -5.261719 L 3.429688 -5.261719 L 3.429688 -2.367188 C 3.429688 -2.042969 3.492188 -1.832031 3.613281 -1.71875 C 3.738281 -1.609375 3.988281 -1.558594 4.363281 -1.558594 L 5.484375 -1.558594 L 5.484375 0 L 3.613281 0 C 2.753906 0 2.144531 -0.175781 1.78125 -0.535156 C 1.421875 -0.886719 1.246094 -1.496094 1.246094 -2.367188 L 1.246094 -5.261719 L 0.160156 -5.261719 L 0.160156 -6.820312 L 1.246094 -6.820312 L 1.246094 -8.75 Z M 3.429688 -8.75 " />
</g>
<g id="f8_bagging-glyph-2-13">
<path d="M 1.046875 -6.820312 L 3.230469 -6.820312 L 3.230469 0 L 1.046875 0 Z M 1.394531 -9.972656 L 2.867188 -9.972656 L 4.425781 -7.679688 L 3.339844 -7.679688 L 2.132812 -9.050781 L 0.921875 -7.679688 L -0.148438 -7.679688 Z M 1.394531 -9.972656 " />
</g>
<g id="f8_bagging-glyph-2-14">
<path d="M 7.855469 -3.429688 L 7.855469 -2.804688 L 2.753906 -2.804688 C 2.804688 -2.292969 2.992188 -1.90625 3.316406 -1.65625 C 3.628906 -1.394531 4.0625 -1.273438 4.636719 -1.273438 C 5.085938 -1.273438 5.558594 -1.332031 6.046875 -1.472656 C 6.519531 -1.609375 7.019531 -1.820312 7.53125 -2.09375 L 7.53125 -0.410156 C 7.007812 -0.210938 6.496094 -0.0742188 5.984375 0.0117188 C 5.460938 0.113281 4.949219 0.160156 4.4375 0.160156 C 3.203125 0.160156 2.242188 -0.148438 1.558594 -0.773438 C 0.871094 -1.394531 0.535156 -2.269531 0.535156 -3.402344 C 0.535156 -4.511719 0.871094 -5.386719 1.546875 -6.019531 C 2.21875 -6.65625 3.140625 -6.980469 4.3125 -6.980469 C 5.386719 -6.980469 6.234375 -6.65625 6.882812 -6.007812 C 7.53125 -5.359375 7.855469 -4.5 7.855469 -3.429688 Z M 5.609375 -4.152344 C 5.609375 -4.5625 5.484375 -4.898438 5.25 -5.148438 C 5 -5.398438 4.6875 -5.535156 4.300781 -5.535156 C 3.878906 -5.535156 3.527344 -5.410156 3.265625 -5.171875 C 3.003906 -4.9375 2.84375 -4.601562 2.78125 -4.152344 Z M 5.261719 -9.972656 L 6.980469 -9.972656 L 4.738281 -7.679688 L 3.539062 -7.679688 Z M 5.261719 -9.972656 " />
</g>
<g id="f8_bagging-glyph-2-15">
<path d="M 0.972656 -2.65625 L 0.972656 -6.820312 L 3.167969 -6.820312 L 3.167969 -6.132812 C 3.167969 -5.757812 3.152344 -5.296875 3.152344 -4.738281 C 3.152344 -4.175781 3.152344 -3.800781 3.152344 -3.628906 C 3.152344 -3.078125 3.167969 -2.679688 3.191406 -2.445312 C 3.214844 -2.195312 3.265625 -2.019531 3.339844 -1.917969 C 3.429688 -1.769531 3.539062 -1.65625 3.691406 -1.582031 C 3.828125 -1.507812 3.988281 -1.472656 4.1875 -1.472656 C 4.636719 -1.472656 5 -1.644531 5.261719 -1.996094 C 5.511719 -2.34375 5.648438 -2.828125 5.648438 -3.453125 L 5.648438 -6.820312 L 7.828125 -6.820312 L 7.828125 0 L 5.648438 0 L 5.648438 -0.984375 C 5.324219 -0.585938 4.972656 -0.285156 4.601562 -0.113281 C 4.226562 0.0625 3.828125 0.160156 3.390625 0.160156 C 2.59375 0.160156 1.996094 -0.0742188 1.582031 -0.546875 C 1.171875 -1.023438 0.972656 -1.734375 0.972656 -2.65625 Z M 0.972656 -2.65625 " />
</g>
<g id="f8_bagging-glyph-2-16">
<path d="M 5.535156 -9.472656 L 5.535156 -8.039062 L 4.324219 -8.039062 C 4.015625 -8.039062 3.800781 -7.976562 3.675781 -7.867188 C 3.554688 -7.753906 3.503906 -7.566406 3.503906 -7.292969 L 3.503906 -6.820312 L 5.359375 -6.820312 L 5.359375 -5.261719 L 3.503906 -5.261719 L 3.503906 0 L 1.320312 0 L 1.320312 -5.261719 L 0.238281 -5.261719 L 0.238281 -6.820312 L 1.320312 -6.820312 L 1.320312 -7.292969 C 1.320312 -8.027344 1.519531 -8.578125 1.945312 -8.9375 C 2.355469 -9.289062 2.992188 -9.472656 3.863281 -9.472656 Z M 5.535156 -9.472656 " />
</g>
<g id="f8_bagging-glyph-2-17">
<path d="M 1.273438 -2.355469 L 3.464844 -2.355469 L 3.464844 -0.5 L 1.957031 1.757812 L 0.660156 1.757812 L 1.273438 -0.5 Z M 1.273438 -2.355469 " />
</g>
<g id="f8_bagging-glyph-2-18">
<path d="M 3.230469 -0.984375 L 3.230469 2.582031 L 1.046875 2.582031 L 1.046875 -6.820312 L 3.230469 -6.820312 L 3.230469 -5.820312 C 3.527344 -6.21875 3.851562 -6.507812 4.226562 -6.695312 C 4.585938 -6.882812 5.011719 -6.980469 5.484375 -6.980469 C 6.320312 -6.980469 7.007812 -6.644531 7.554688 -5.972656 C 8.089844 -5.296875 8.363281 -4.4375 8.363281 -3.390625 C 8.363281 -2.34375 8.089844 -1.484375 7.554688 -0.824219 C 7.007812 -0.160156 6.320312 0.160156 5.484375 0.160156 C 5.011719 0.160156 4.585938 0.0625 4.226562 -0.113281 C 3.851562 -0.285156 3.527344 -0.585938 3.230469 -0.984375 Z M 4.675781 -5.398438 C 4.199219 -5.398438 3.851562 -5.222656 3.601562 -4.886719 C 3.351562 -4.539062 3.230469 -4.050781 3.230469 -3.402344 C 3.230469 -2.753906 3.351562 -2.257812 3.601562 -1.917969 C 3.851562 -1.570312 4.199219 -1.410156 4.675781 -1.410156 C 5.136719 -1.410156 5.484375 -1.570312 5.734375 -1.917969 C 5.984375 -2.257812 6.109375 -2.753906 6.109375 -3.402344 C 6.109375 -4.050781 5.984375 -4.539062 5.734375 -4.886719 C 5.484375 -5.222656 5.136719 -5.398438 4.675781 -5.398438 Z M 4.675781 -5.398438 " />
</g>
</g>
<clipPath id="f8_bagging-clip-0">
<path clip-rule="nonzero" d="M 0.285156 0 L 548.875 0 L 548.875 229.75 L 0.285156 229.75 Z M 0.285156 0 " />
</clipPath>
</defs>
<g clip-path="url(#f8_bagging-clip-0)">
<path fill-rule="nonzero" fill="rgb(100%, 100%, 100%)" fill-opacity="1" d="M 0.285156 229.75 L 548.875 229.75 L 548.875 0 L 0.285156 0 Z M 0.285156 229.75 " />
</g>
<path fill-rule="nonzero" fill="rgb(14.509583%, 52.156067%, 83.920288%)" fill-opacity="0.15" stroke-width="2" stroke-linecap="butt" stroke-linejoin="miter" stroke="rgb(14.509583%, 52.156067%, 83.920288%)" stroke-opacity="0.15" stroke-miterlimit="10" d="M 16.128911 83.70803 L 87.552742 83.70803 L 87.552742 130.275507 L 16.128911 130.275507 Z M 16.128911 83.70803 " transform="matrix(0.997293, 0, 0, -0.997293, 0.285848, 229.750943)" />
<path fill-rule="nonzero" fill="rgb(18.03894%, 54.508972%, 34.117126%)" fill-opacity="0.12" stroke-width="1.6" stroke-linecap="butt" stroke-linejoin="miter" stroke="rgb(18.03894%, 54.508972%, 34.117126%)" stroke-opacity="0.12" stroke-miterlimit="10" d="M 158.976573 153.561203 L 243.792128 153.561203 L 243.792128 180.172308 L 158.976573 180.172308 Z M 158.976573 153.561203 " transform="matrix(0.997293, 0, 0, -0.997293, 0.285848, 229.750943)" />
<path fill-rule="nonzero" fill="rgb(85.096741%, 50.979614%, 16.862488%)" fill-opacity="0.13" stroke-width="1.6" stroke-linecap="butt" stroke-linejoin="miter" stroke="rgb(85.096741%, 50.979614%, 16.862488%)" stroke-opacity="0.13" stroke-miterlimit="10" d="M 297.359022 153.561203 L 364.321556 153.561203 L 364.321556 180.172308 L 297.359022 180.172308 Z M 297.359022 153.561203 " transform="matrix(0.997293, 0, 0, -0.997293, 0.285848, 229.750943)" />
<path fill-rule="nonzero" fill="rgb(18.03894%, 54.508972%, 34.117126%)" fill-opacity="0.12" stroke-width="1.6" stroke-linecap="butt" stroke-linejoin="miter" stroke="rgb(18.03894%, 54.508972%, 34.117126%)" stroke-opacity="0.12" stroke-miterlimit="10" d="M 158.976573 93.688174 L 243.792128 93.688174 L 243.792128 120.29928 L 158.976573 120.29928 Z M 158.976573 93.688174 " transform="matrix(0.997293, 0, 0, -0.997293, 0.285848, 229.750943)" />
<path fill-rule="nonzero" fill="rgb(85.096741%, 50.979614%, 16.862488%)" fill-opacity="0.13" stroke-width="1.6" stroke-linecap="butt" stroke-linejoin="miter" stroke="rgb(85.096741%, 50.979614%, 16.862488%)" stroke-opacity="0.13" stroke-miterlimit="10" d="M 297.359022 93.688174 L 364.321556 93.688174 L 364.321556 120.29928 L 297.359022 120.29928 Z M 297.359022 93.688174 " transform="matrix(0.997293, 0, 0, -0.997293, 0.285848, 229.750943)" />
<path fill-rule="nonzero" fill="rgb(18.03894%, 54.508972%, 34.117126%)" fill-opacity="0.12" stroke-width="1.6" stroke-linecap="butt" stroke-linejoin="miter" stroke="rgb(18.03894%, 54.508972%, 34.117126%)" stroke-opacity="0.12" stroke-miterlimit="10" d="M 158.976573 33.811229 L 243.792128 33.811229 L 243.792128 60.422334 L 158.976573 60.422334 Z M 158.976573 33.811229 " transform="matrix(0.997293, 0, 0, -0.997293, 0.285848, 229.750943)" />
<path fill-rule="nonzero" fill="rgb(85.096741%, 50.979614%, 16.862488%)" fill-opacity="0.13" stroke-width="1.6" stroke-linecap="butt" stroke-linejoin="miter" stroke="rgb(85.096741%, 50.979614%, 16.862488%)" stroke-opacity="0.13" stroke-miterlimit="10" d="M 297.359022 33.811229 L 364.321556 33.811229 L 364.321556 60.422334 L 297.359022 60.422334 Z M 297.359022 33.811229 " transform="matrix(0.997293, 0, 0, -0.997293, 0.285848, 229.750943)" />
<path fill-rule="nonzero" fill="rgb(5.882263%, 22.744751%, 36.862183%)" fill-opacity="0.12" stroke-width="2" stroke-linecap="butt" stroke-linejoin="miter" stroke="rgb(5.882263%, 22.744751%, 36.862183%)" stroke-opacity="0.12" stroke-miterlimit="10" d="M 435.745387 83.70803 L 525.022238 83.70803 L 525.022238 130.275507 L 435.745387 130.275507 Z M 435.745387 83.70803 " transform="matrix(0.997293, 0, 0, -0.997293, 0.285848, 229.750943)" />
<g fill="rgb(5.882263%, 22.744751%, 36.862183%)" fill-opacity="1">
<use xlink:href="#f8_bagging-glyph-0-0" x="30.699537" y="120.218779" />
<use xlink:href="#f8_bagging-glyph-0-1" x="37.032346" y="120.218779" />
<use xlink:href="#f8_bagging-glyph-0-2" x="43.135777" y="120.218779" />
<use xlink:href="#f8_bagging-glyph-0-2" x="49.458613" y="120.218779" />
<use xlink:href="#f8_bagging-glyph-0-3" x="55.781449" y="120.218779" />
<use xlink:href="#f8_bagging-glyph-0-4" x="61.9148" y="120.218779" />
<use xlink:href="#f8_bagging-glyph-0-5" x="68.04815" y="120.218779" />
</g>
<g fill="rgb(5.882263%, 22.744751%, 36.862183%)" fill-opacity="1">
<use xlink:href="#f8_bagging-glyph-0-0" x="13.488445" y="131.379108" />
<use xlink:href="#f8_bagging-glyph-0-6" x="19.821254" y="131.379108" />
<use xlink:href="#f8_bagging-glyph-0-4" x="22.563809" y="131.379108" />
<use xlink:href="#f8_bagging-glyph-0-2" x="28.69716" y="131.379108" />
<use xlink:href="#f8_bagging-glyph-0-7" x="35.019996" y="131.379108" />
<use xlink:href="#f8_bagging-glyph-0-8" x="38.929383" y="131.379108" />
<use xlink:href="#f8_bagging-glyph-0-9" x="43.028257" y="131.379108" />
<use xlink:href="#f8_bagging-glyph-0-10" x="49.141661" y="131.379108" />
<use xlink:href="#f8_bagging-glyph-0-2" x="51.914135" y="131.379108" />
<use xlink:href="#f8_bagging-glyph-0-4" x="58.236971" y="131.379108" />
<use xlink:href="#f8_bagging-glyph-0-11" x="64.370321" y="131.379108" />
<use xlink:href="#f8_bagging-glyph-0-4" x="74.083953" y="131.379108" />
<use xlink:href="#f8_bagging-glyph-0-2" x="80.217303" y="131.379108" />
<use xlink:href="#f8_bagging-glyph-0-7" x="86.540139" y="131.379108" />
</g>
<path fill="none" stroke-width="1.4" stroke-linecap="round" stroke-linejoin="round" stroke="rgb(35.293579%, 41.960144%, 45.881653%)" stroke-opacity="1" stroke-miterlimit="10" d="M 93.50636 108.325457 C 114.829713 127.392702 135.769214 146.115264 156.317029 164.489225 " transform="matrix(0.997293, 0, 0, -0.997293, 0.285848, 229.750943)" />
<path fill="none" stroke-width="1.4" stroke-linecap="round" stroke-linejoin="round" stroke="rgb(35.293579%, 41.960144%, 45.881653%)" stroke-opacity="1" stroke-miterlimit="10" d="M 151.138948 163.079158 L 156.317029 164.489225 L 154.339018 159.499154 " transform="matrix(0.997293, 0, 0, -0.997293, 0.285848, 229.750943)" />
<g fill="rgb(5.882263%, 22.744751%, 36.862183%)" fill-opacity="1">
<use xlink:href="#f8_bagging-glyph-1-0" x="175.195039" y="65.813144" />
<use xlink:href="#f8_bagging-glyph-1-1" x="180.894567" y="65.813144" />
<use xlink:href="#f8_bagging-glyph-1-1" x="186.387656" y="65.813144" />
<use xlink:href="#f8_bagging-glyph-1-2" x="191.880744" y="65.813144" />
<use xlink:href="#f8_bagging-glyph-1-3" x="195.399193" y="65.813144" />
<use xlink:href="#f8_bagging-glyph-1-2" x="200.075499" y="65.813144" />
<use xlink:href="#f8_bagging-glyph-1-4" x="203.593947" y="65.813144" />
<use xlink:href="#f8_bagging-glyph-1-5" x="207.282933" y="65.813144" />
<use xlink:href="#f8_bagging-glyph-1-6" x="212.784997" y="65.813144" />
<use xlink:href="#f8_bagging-glyph-1-7" x="218.484526" y="65.813144" />
<use xlink:href="#f8_bagging-glyph-1-8" x="221.338777" y="65.813144" />
</g>
<path fill="none" stroke-width="1.4" stroke-linecap="round" stroke-linejoin="round" stroke="rgb(35.293579%, 41.960144%, 45.881653%)" stroke-opacity="1" stroke-miterlimit="10" d="M 250.254937 166.866756 C 265.291739 166.866756 279.803682 166.866756 293.794685 166.866756 " transform="matrix(0.997293, 0, 0, -0.997293, 0.285848, 229.750943)" />
<path fill="none" stroke-width="1.4" stroke-linecap="round" stroke-linejoin="round" stroke="rgb(35.293579%, 41.960144%, 45.881653%)" stroke-opacity="1" stroke-miterlimit="10" d="M 288.996539 169.267787 L 293.794685 166.866756 L 288.996539 164.465724 " transform="matrix(0.997293, 0, 0, -0.997293, 0.285848, 229.750943)" />
<g fill="rgb(5.882263%, 22.744751%, 36.862183%)" fill-opacity="1">
<use xlink:href="#f8_bagging-glyph-1-5" x="314.016382" y="65.813144" />
<use xlink:href="#f8_bagging-glyph-1-4" x="319.518446" y="65.813144" />
<use xlink:href="#f8_bagging-glyph-1-0" x="323.207432" y="65.813144" />
<use xlink:href="#f8_bagging-glyph-1-4" x="328.90696" y="65.813144" />
</g>
<g fill="rgb(5.882263%, 22.744751%, 36.862183%)" fill-opacity="1">
<use xlink:href="#f8_bagging-glyph-1-9" x="332.408954" y="65.813144" />
<use xlink:href="#f8_bagging-glyph-1-7" x="337.928969" y="65.813144" />
<use xlink:href="#f8_bagging-glyph-1-8" x="340.783221" y="65.813144" />
</g>
<path fill="none" stroke-width="1.2" stroke-linecap="round" stroke-linejoin="round" stroke="rgb(35.293579%, 41.960144%, 45.881653%)" stroke-opacity="1" stroke-miterlimit="10" d="M 370.275174 165.535025 C 391.598527 146.463864 412.592864 127.6943 433.250351 109.222417 " transform="matrix(0.997293, 0, 0, -0.997293, 0.285848, 229.750943)" />
<path fill="none" stroke-width="1.2" stroke-linecap="round" stroke-linejoin="round" stroke="rgb(35.293579%, 41.960144%, 45.881653%)" stroke-opacity="1" stroke-miterlimit="10" d="M 431.27234 114.208572 L 433.250351 109.222417 L 428.07227 110.632484 " transform="matrix(0.997293, 0, 0, -0.997293, 0.285848, 229.750943)" />
<path fill="none" stroke-width="1.4" stroke-linecap="round" stroke-linejoin="round" stroke="rgb(35.293579%, 41.960144%, 45.881653%)" stroke-opacity="1" stroke-miterlimit="10" d="M 94.015551 106.993727 C 115.002054 106.993727 135.463699 106.993727 155.408319 106.993727 " transform="matrix(0.997293, 0, 0, -0.997293, 0.285848, 229.750943)" />
<path fill="none" stroke-width="1.4" stroke-linecap="round" stroke-linejoin="round" stroke="rgb(35.293579%, 41.960144%, 45.881653%)" stroke-opacity="1" stroke-miterlimit="10" d="M 150.610173 109.390842 L 155.408319 106.993727 L 150.610173 104.592695 " transform="matrix(0.997293, 0, 0, -0.997293, 0.285848, 229.750943)" />
<g fill="rgb(5.882263%, 22.744751%, 36.862183%)" fill-opacity="1">
<use xlink:href="#f8_bagging-glyph-1-0" x="175.195039" y="125.526246" />
<use xlink:href="#f8_bagging-glyph-1-1" x="180.894567" y="125.526246" />
<use xlink:href="#f8_bagging-glyph-1-1" x="186.387656" y="125.526246" />
<use xlink:href="#f8_bagging-glyph-1-2" x="191.880744" y="125.526246" />
<use xlink:href="#f8_bagging-glyph-1-3" x="195.399193" y="125.526246" />
<use xlink:href="#f8_bagging-glyph-1-2" x="200.075499" y="125.526246" />
<use xlink:href="#f8_bagging-glyph-1-4" x="203.593947" y="125.526246" />
<use xlink:href="#f8_bagging-glyph-1-5" x="207.282933" y="125.526246" />
<use xlink:href="#f8_bagging-glyph-1-6" x="212.784997" y="125.526246" />
<use xlink:href="#f8_bagging-glyph-1-7" x="218.484526" y="125.526246" />
<use xlink:href="#f8_bagging-glyph-1-10" x="221.338777" y="125.526246" />
</g>
<path fill="none" stroke-width="1.4" stroke-linecap="round" stroke-linejoin="round" stroke="rgb(35.293579%, 41.960144%, 45.881653%)" stroke-opacity="1" stroke-miterlimit="10" d="M 250.254937 106.993727 C 265.291739 106.993727 279.803682 106.993727 293.794685 106.993727 " transform="matrix(0.997293, 0, 0, -0.997293, 0.285848, 229.750943)" />
<path fill="none" stroke-width="1.4" stroke-linecap="round" stroke-linejoin="round" stroke="rgb(35.293579%, 41.960144%, 45.881653%)" stroke-opacity="1" stroke-miterlimit="10" d="M 288.996539 109.390842 L 293.794685 106.993727 L 288.996539 104.592695 " transform="matrix(0.997293, 0, 0, -0.997293, 0.285848, 229.750943)" />
<g fill="rgb(5.882263%, 22.744751%, 36.862183%)" fill-opacity="1">
<use xlink:href="#f8_bagging-glyph-1-5" x="314.016382" y="125.526246" />
<use xlink:href="#f8_bagging-glyph-1-4" x="319.518446" y="125.526246" />
<use xlink:href="#f8_bagging-glyph-1-0" x="323.207432" y="125.526246" />
<use xlink:href="#f8_bagging-glyph-1-4" x="328.90696" y="125.526246" />
</g>
<g fill="rgb(5.882263%, 22.744751%, 36.862183%)" fill-opacity="1">
<use xlink:href="#f8_bagging-glyph-1-9" x="332.408954" y="125.526246" />
<use xlink:href="#f8_bagging-glyph-1-7" x="337.928969" y="125.526246" />
<use xlink:href="#f8_bagging-glyph-1-10" x="340.783221" y="125.526246" />
</g>
<path fill="none" stroke-width="1.2" stroke-linecap="round" stroke-linejoin="round" stroke="rgb(35.293579%, 41.960144%, 45.881653%)" stroke-opacity="1" stroke-miterlimit="10" d="M 370.784365 106.993727 C 391.766951 106.993727 412.306933 106.993727 432.400394 106.993727 " transform="matrix(0.997293, 0, 0, -0.997293, 0.285848, 229.750943)" />
<path fill="none" stroke-width="1.2" stroke-linecap="round" stroke-linejoin="round" stroke="rgb(35.293579%, 41.960144%, 45.881653%)" stroke-opacity="1" stroke-miterlimit="10" d="M 427.598331 109.390842 L 432.400394 106.993727 L 427.598331 104.592695 " transform="matrix(0.997293, 0, 0, -0.997293, 0.285848, 229.750943)" />
<path fill="none" stroke-width="1.4" stroke-linecap="round" stroke-linejoin="round" stroke="rgb(35.293579%, 41.960144%, 45.881653%)" stroke-opacity="1" stroke-miterlimit="10" d="M 93.50636 105.65808 C 114.829713 86.590835 135.769214 67.868273 156.317029 49.494312 " transform="matrix(0.997293, 0, 0, -0.997293, 0.285848, 229.750943)" />
<path fill="none" stroke-width="1.4" stroke-linecap="round" stroke-linejoin="round" stroke="rgb(35.293579%, 41.960144%, 45.881653%)" stroke-opacity="1" stroke-miterlimit="10" d="M 154.339018 54.484383 L 156.317029 49.494312 L 151.138948 50.904379 " transform="matrix(0.997293, 0, 0, -0.997293, 0.285848, 229.750943)" />
<g fill="rgb(5.882263%, 22.744751%, 36.862183%)" fill-opacity="1">
<use xlink:href="#f8_bagging-glyph-1-0" x="175.195039" y="185.239349" />
<use xlink:href="#f8_bagging-glyph-1-1" x="180.894567" y="185.239349" />
<use xlink:href="#f8_bagging-glyph-1-1" x="186.387656" y="185.239349" />
<use xlink:href="#f8_bagging-glyph-1-2" x="191.880744" y="185.239349" />
<use xlink:href="#f8_bagging-glyph-1-3" x="195.399193" y="185.239349" />
<use xlink:href="#f8_bagging-glyph-1-2" x="200.075499" y="185.239349" />
<use xlink:href="#f8_bagging-glyph-1-4" x="203.593947" y="185.239349" />
<use xlink:href="#f8_bagging-glyph-1-5" x="207.282933" y="185.239349" />
<use xlink:href="#f8_bagging-glyph-1-6" x="212.784997" y="185.239349" />
<use xlink:href="#f8_bagging-glyph-1-7" x="218.484526" y="185.239349" />
<use xlink:href="#f8_bagging-glyph-1-11" x="221.338777" y="185.239349" />
</g>
<path fill="none" stroke-width="1.4" stroke-linecap="round" stroke-linejoin="round" stroke="rgb(35.293579%, 41.960144%, 45.881653%)" stroke-opacity="1" stroke-miterlimit="10" d="M 250.254937 47.116781 C 265.291739 47.116781 279.803682 47.116781 293.794685 47.116781 " transform="matrix(0.997293, 0, 0, -0.997293, 0.285848, 229.750943)" />
<path fill="none" stroke-width="1.4" stroke-linecap="round" stroke-linejoin="round" stroke="rgb(35.293579%, 41.960144%, 45.881653%)" stroke-opacity="1" stroke-miterlimit="10" d="M 288.996539 49.517813 L 293.794685 47.116781 L 288.996539 44.71575 " transform="matrix(0.997293, 0, 0, -0.997293, 0.285848, 229.750943)" />
<g fill="rgb(5.882263%, 22.744751%, 36.862183%)" fill-opacity="1">
<use xlink:href="#f8_bagging-glyph-1-5" x="314.016382" y="185.239349" />
<use xlink:href="#f8_bagging-glyph-1-4" x="319.518446" y="185.239349" />
<use xlink:href="#f8_bagging-glyph-1-0" x="323.207432" y="185.239349" />
<use xlink:href="#f8_bagging-glyph-1-4" x="328.90696" y="185.239349" />
</g>
<g fill="rgb(5.882263%, 22.744751%, 36.862183%)" fill-opacity="1">
<use xlink:href="#f8_bagging-glyph-1-9" x="332.408954" y="185.239349" />
<use xlink:href="#f8_bagging-glyph-1-7" x="337.928969" y="185.239349" />
<use xlink:href="#f8_bagging-glyph-1-11" x="340.783221" y="185.239349" />
</g>
<path fill="none" stroke-width="1.2" stroke-linecap="round" stroke-linejoin="round" stroke="rgb(35.293579%, 41.960144%, 45.881653%)" stroke-opacity="1" stroke-miterlimit="10" d="M 370.275174 48.448512 C 391.598527 67.519673 412.592864 86.289237 433.250351 104.765037 " transform="matrix(0.997293, 0, 0, -0.997293, 0.285848, 229.750943)" />
<path fill="none" stroke-width="1.2" stroke-linecap="round" stroke-linejoin="round" stroke="rgb(35.293579%, 41.960144%, 45.881653%)" stroke-opacity="1" stroke-miterlimit="10" d="M 428.07227 103.351053 L 433.250351 104.765037 L 431.27234 99.774965 " transform="matrix(0.997293, 0, 0, -0.997293, 0.285848, 229.750943)" />
<g fill="rgb(5.882263%, 22.744751%, 36.862183%)" fill-opacity="1">
<use xlink:href="#f8_bagging-glyph-0-12" x="440.139882" y="119.975689" />
<use xlink:href="#f8_bagging-glyph-0-1" x="446.043855" y="119.975689" />
<use xlink:href="#f8_bagging-glyph-0-7" x="452.147287" y="119.975689" />
<use xlink:href="#f8_bagging-glyph-0-4" x="456.056675" y="119.975689" />
<use xlink:href="#f8_bagging-glyph-0-13" x="462.190025" y="119.975689" />
<use xlink:href="#f8_bagging-glyph-0-14" x="465.361416" y="119.975689" />
<use xlink:href="#f8_bagging-glyph-0-13" x="468.722293" y="119.975689" />
<use xlink:href="#f8_bagging-glyph-0-11" x="471.893683" y="119.975689" />
<use xlink:href="#f8_bagging-glyph-0-1" x="481.607315" y="119.975689" />
<use xlink:href="#f8_bagging-glyph-0-15" x="487.710746" y="119.975689" />
<use xlink:href="#f8_bagging-glyph-0-4" x="493.61472" y="119.975689" />
<use xlink:href="#f8_bagging-glyph-0-2" x="499.74807" y="119.975689" />
<use xlink:href="#f8_bagging-glyph-0-2" x="506.070906" y="119.975689" />
<use xlink:href="#f8_bagging-glyph-0-4" x="512.393742" y="119.975689" />
</g>
<g fill="rgb(5.882263%, 22.744751%, 36.862183%)" fill-opacity="1">
<use xlink:href="#f8_bagging-glyph-0-16" x="448.593497" y="131.622198" />
<use xlink:href="#f8_bagging-glyph-0-13" x="456.95081" y="131.622198" />
<use xlink:href="#f8_bagging-glyph-0-17" x="460.122201" y="131.622198" />
<use xlink:href="#f8_bagging-glyph-0-8" x="466.45501" y="131.622198" />
</g>
<g fill="rgb(5.882263%, 22.744751%, 36.862183%)" fill-opacity="1">
<use xlink:href="#f8_bagging-glyph-0-3" x="470.335725" y="131.622198" />
<use xlink:href="#f8_bagging-glyph-0-0" x="476.469076" y="131.622198" />
<use xlink:href="#f8_bagging-glyph-0-18" x="482.801885" y="131.622198" />
<use xlink:href="#f8_bagging-glyph-0-19" x="485.574358" y="131.622198" />
<use xlink:href="#f8_bagging-glyph-0-7" x="491.059469" y="131.622198" />
<use xlink:href="#f8_bagging-glyph-0-18" x="494.968856" y="131.622198" />
<use xlink:href="#f8_bagging-glyph-0-1" x="497.74133" y="131.622198" />
<use xlink:href="#f8_bagging-glyph-0-2" x="503.844762" y="131.622198" />
</g>
<g fill="rgb(5.882263%, 22.744751%, 36.862183%)" fill-opacity="1">
<use xlink:href="#f8_bagging-glyph-2-0" x="14.093054" y="17.543003" />
<use xlink:href="#f8_bagging-glyph-2-1" x="22.033998" y="17.543003" />
<use xlink:href="#f8_bagging-glyph-2-2" x="30.486054" y="17.543003" />
<use xlink:href="#f8_bagging-glyph-2-3" x="34.824277" y="17.543003" />
<use xlink:href="#f8_bagging-glyph-2-4" x="43.750047" y="17.543003" />
<use xlink:href="#f8_bagging-glyph-2-5" x="52.164705" y="17.543003" />
<use xlink:href="#f8_bagging-glyph-2-5" x="61.090475" y="17.543003" />
<use xlink:href="#f8_bagging-glyph-2-6" x="70.016245" y="17.543003" />
<use xlink:href="#f8_bagging-glyph-2-7" x="74.292138" y="17.543003" />
<use xlink:href="#f8_bagging-glyph-2-5" x="83.168043" y="17.543003" />
<use xlink:href="#f8_bagging-glyph-2-2" x="92.093813" y="17.543003" />
<use xlink:href="#f8_bagging-glyph-2-8" x="96.432037" y="17.543003" />
<use xlink:href="#f8_bagging-glyph-2-2" x="101.4185" y="17.543003" />
<use xlink:href="#f8_bagging-glyph-2-9" x="105.756724" y="17.543003" />
<use xlink:href="#f8_bagging-glyph-2-1" x="114.682494" y="17.543003" />
<use xlink:href="#f8_bagging-glyph-2-10" x="123.13455" y="17.543003" />
<use xlink:href="#f8_bagging-glyph-2-2" x="130.551915" y="17.543003" />
<use xlink:href="#f8_bagging-glyph-2-4" x="134.890138" y="17.543003" />
<use xlink:href="#f8_bagging-glyph-2-11" x="143.304796" y="17.543003" />
<use xlink:href="#f8_bagging-glyph-2-3" x="149.450612" y="17.543003" />
<use xlink:href="#f8_bagging-glyph-2-11" x="158.376383" y="17.543003" />
<use xlink:href="#f8_bagging-glyph-2-1" x="164.522199" y="17.543003" />
<use xlink:href="#f8_bagging-glyph-2-10" x="172.974255" y="17.543003" />
<use xlink:href="#f8_bagging-glyph-2-2" x="180.39162" y="17.543003" />
<use xlink:href="#f8_bagging-glyph-2-1" x="184.729843" y="17.543003" />
<use xlink:href="#f8_bagging-glyph-2-7" x="193.1819" y="17.543003" />
<use xlink:href="#f8_bagging-glyph-2-12" x="202.057805" y="17.543003" />
<use xlink:href="#f8_bagging-glyph-2-11" x="208.016629" y="17.543003" />
<use xlink:href="#f8_bagging-glyph-2-4" x="214.162446" y="17.543003" />
<use xlink:href="#f8_bagging-glyph-2-13" x="222.577103" y="17.543003" />
<use xlink:href="#f8_bagging-glyph-2-7" x="226.852996" y="17.543003" />
<use xlink:href="#f8_bagging-glyph-2-14" x="235.728901" y="17.543003" />
<use xlink:href="#f8_bagging-glyph-2-10" x="244.180957" y="17.543003" />
<use xlink:href="#f8_bagging-glyph-2-2" x="251.598322" y="17.543003" />
<use xlink:href="#f8_bagging-glyph-2-10" x="255.936546" y="17.543003" />
<use xlink:href="#f8_bagging-glyph-2-15" x="263.353911" y="17.543003" />
<use xlink:href="#f8_bagging-glyph-2-11" x="272.229816" y="17.543003" />
<use xlink:href="#f8_bagging-glyph-2-2" x="278.375633" y="17.543003" />
<use xlink:href="#f8_bagging-glyph-2-9" x="282.713856" y="17.543003" />
<use xlink:href="#f8_bagging-glyph-2-1" x="291.639626" y="17.543003" />
<use xlink:href="#f8_bagging-glyph-2-10" x="300.091682" y="17.543003" />
<use xlink:href="#f8_bagging-glyph-2-2" x="307.509047" y="17.543003" />
<use xlink:href="#f8_bagging-glyph-2-12" x="311.84727" y="17.543003" />
<use xlink:href="#f8_bagging-glyph-2-6" x="317.806095" y="17.543003" />
<use xlink:href="#f8_bagging-glyph-2-11" x="322.081987" y="17.543003" />
<use xlink:href="#f8_bagging-glyph-2-4" x="328.227804" y="17.543003" />
<use xlink:href="#f8_bagging-glyph-2-5" x="336.642461" y="17.543003" />
<use xlink:href="#f8_bagging-glyph-2-1" x="345.568232" y="17.543003" />
<use xlink:href="#f8_bagging-glyph-2-10" x="354.020288" y="17.543003" />
<use xlink:href="#f8_bagging-glyph-2-2" x="361.437652" y="17.543003" />
<use xlink:href="#f8_bagging-glyph-2-9" x="365.775876" y="17.543003" />
<use xlink:href="#f8_bagging-glyph-2-6" x="374.701646" y="17.543003" />
<use xlink:href="#f8_bagging-glyph-2-16" x="378.977539" y="17.543003" />
<use xlink:href="#f8_bagging-glyph-2-16" x="384.400318" y="17.543003" />
<use xlink:href="#f8_bagging-glyph-2-14" x="389.823097" y="17.543003" />
<use xlink:href="#f8_bagging-glyph-2-11" x="398.275153" y="17.543003" />
<use xlink:href="#f8_bagging-glyph-2-1" x="404.42097" y="17.543003" />
<use xlink:href="#f8_bagging-glyph-2-7" x="412.873026" y="17.543003" />
<use xlink:href="#f8_bagging-glyph-2-12" x="421.748931" y="17.543003" />
<use xlink:href="#f8_bagging-glyph-2-10" x="427.707756" y="17.543003" />
<use xlink:href="#f8_bagging-glyph-2-17" x="435.12512" y="17.543003" />
<use xlink:href="#f8_bagging-glyph-2-2" x="439.862261" y="17.543003" />
<use xlink:href="#f8_bagging-glyph-2-18" x="444.200484" y="17.543003" />
<use xlink:href="#f8_bagging-glyph-2-15" x="453.126255" y="17.543003" />
<use xlink:href="#f8_bagging-glyph-2-6" x="462.00216" y="17.543003" />
<use xlink:href="#f8_bagging-glyph-2-10" x="466.278053" y="17.543003" />
<use xlink:href="#f8_bagging-glyph-2-2" x="473.695417" y="17.543003" />
<use xlink:href="#f8_bagging-glyph-2-4" x="478.033641" y="17.543003" />
<use xlink:href="#f8_bagging-glyph-2-5" x="486.448298" y="17.543003" />
<use xlink:href="#f8_bagging-glyph-2-11" x="495.374069" y="17.543003" />
<use xlink:href="#f8_bagging-glyph-2-14" x="501.519885" y="17.543003" />
<use xlink:href="#f8_bagging-glyph-2-5" x="509.971941" y="17.543003" />
<use xlink:href="#f8_bagging-glyph-2-14" x="518.897711" y="17.543003" />
<use xlink:href="#f8_bagging-glyph-2-10" x="527.349767" y="17.543003" />
</g>
</svg>
